<svg width="767" height="344" viewBox="0 0 767 344" fill="none" xmlns="http://www.w3.org/2000/svg">
<path d="M270.67 101.147L293.231 101.142V22.4819L349.616 22.4855L338.339 0.00892109H293.231V0.00537109H270.674V0.00892109H214.289L214.283 22.4804L270.674 22.4819L270.67 101.147Z" fill="#FEFEFE"/>
<path d="M394.728 22.486L394.724 67.4356L383.458 78.6642L338.343 78.6693V33.7141L315.787 33.7248L315.782 101.142L338.343 101.147V101.144L394.728 101.147L394.73 101.146L417.285 78.6728L417.29 0.00537109L349.62 0.0104425L360.897 22.486H394.728Z" fill="#FEFEFE"/>
<path d="M451.082 78.673V78.6674H507.465L507.464 101.142L530.024 101.148V78.6674V56.1924V0.0126786L507.469 0.00152143L507.467 56.1924L451.082 56.196L451.078 22.4857H462.358V0L451.076 0.0071V0.00507143L428.527 0.01065L428.524 56.198V56.8629L428.521 78.6674L451.082 78.673Z" fill="#FEFEFE"/>
<path d="M575.157 56.1909L563.878 56.1944V0.00709004H541.325L541.321 56.196H541.319L541.321 60.033L541.319 101.148L563.878 101.143V78.668L620.267 78.673L620.256 101.148L642.817 101.143V78.668L642.815 56.1873L601.888 56.1909L646.995 0.00911861L620.267 0.00354004L575.157 56.1909Z" fill="#FEFEFE"/>
<path d="M755.577 33.7214V0.01065V0.00507143H743.629L733.023 0V0.0071L676.629 0.01065V0.0213L654.08 22.4801L676.639 22.4857H733.021V33.7194L654.073 33.7159L654.075 37.4626V101.148L676.635 101.142V56.196H733.019L733.017 101.142L755.577 101.148V56.196H766.853V33.7214H755.577Z" fill="#FEFEFE"/>
<path d="M225.584 123.62H169.198H169.195L146.643 146.091H146.641V146.094L146.636 191.044H169.202V157.329L180.476 146.094H225.584V191.048L214.304 202.279L146.641 202.282L146.636 224.762L225.584 224.757V224.755L248.139 202.28V146.094V123.62H225.584Z" fill="#FEFEFE"/>
<path d="M507.467 123.618V168.566L451.083 168.57L451.08 157.331L428.53 157.336L428.529 168.57H428.527V174.697L428.525 179.804H428.527V191.045H507.467V202.279L428.521 202.282L428.532 224.757H514.988L530.027 224.76V224.757V223.084L530.033 123.618H507.467Z" fill="#FEFEFE"/>
<path d="M451.073 146.092L451.079 123.623H405.969L383.409 123.618V123.623H360.85L349.576 146.092H383.409V224.753L405.963 224.763L405.967 146.092H451.073Z" fill="#FEFEFE"/>
<path d="M631.542 123.618H541.325L541.319 146.098H541.325L541.323 224.754L563.88 224.764V224.757H575.161L575.156 202.277L563.88 202.279L563.883 146.097L620.267 146.093V224.761H642.822L642.826 123.618L631.542 123.62V123.618Z" fill="#FEFEFE"/>
<path d="M676.635 157.33L687.909 146.094H733.021V157.33H676.635ZM766.853 157.33H755.578V127.36V123.614L676.635 123.625L654.078 146.1V157.33L654.073 179.811H654.078L654.075 224.757L676.635 224.762V179.811L733.019 179.807L733.017 224.762L755.578 224.757V179.805H766.853V157.33V157.33Z" fill="#FEFEFE"/>
<path d="M360.859 191.041L338.299 191.044V202.281H281.919L281.925 157.326L293.193 146.098H338.305L349.58 123.623L281.915 123.62L259.36 146.093L259.366 202.281H259.36L259.366 224.76L360.868 224.755L360.859 207.166V191.041Z" fill="#FEFEFE"/>
<path d="M45.1207 202.284V157.336L56.398 146.099L101.507 146.095L101.504 202.28L45.1207 202.284ZM124.063 146.095V123.62H110.335L101.508 123.616V123.62H45.1212V123.622L22.5662 146.095L22.5606 146.102L22.557 202.286H21.3783L0.00559842 202.28L0 235.998L22.5606 235.993L22.5621 224.757H45.1212H101.503L124.064 224.763V224.757H135.335L135.341 202.277L124.064 202.279V146.095H124.063Z" fill="#FEFEFE"/>
<path d="M208.642 174.189C208.642 167.983 203.588 162.947 197.37 162.947C191.141 162.947 186.087 167.983 186.087 174.189C186.082 180.391 191.136 185.427 197.364 185.427C203.594 185.427 208.647 180.391 208.642 174.189Z" fill="#FEFEFE"/>
<path d="M377.799 50.5746C377.799 44.3672 372.745 39.3318 366.517 39.3318C360.293 39.3369 355.234 44.3677 355.24 50.5691C355.24 56.776 360.293 61.8119 366.522 61.8119C372.746 61.817 377.799 56.781 377.799 50.5746Z" fill="#FEFEFE"/>
<path fill-rule="evenodd" clip-rule="evenodd" d="M30.1172 17.4369V67.073L194.588 67.0766L194.595 0.311224L47.3084 0.306152L30.1172 17.4369Z" fill="#E31E25"/>
<path d="M109.286 6.36938H48.3681L36.1768 18.5155H66.6464L66.6428 61.0074H78.8342V18.5155H109.286V6.36938Z" fill="#FEFEFE"/>
<path d="M160.261 36.7275L184.626 6.38003L170.191 6.36938L145.816 36.729H139.731V36.7163V6.37446L127.546 6.36938L127.539 42.7944H127.55L127.546 61.0059H139.725L139.729 48.8614L170.188 48.8649L170.182 61.0059H182.374L182.368 48.8649L182.374 36.7239L160.261 36.7275Z" fill="#FEFEFE"/>
<path d="M97.1373 24.5812L84.9567 24.5918V36.7272H84.9531L84.9547 39.304L84.9531 48.8703H97.1317V48.8682L121.502 48.8647V36.7272H97.1353L97.1373 24.5812Z" fill="#FEFEFE"/>
<path d="M45.3108 61.0066C40.2621 61.0066 36.1768 56.9347 36.1768 51.9044C36.1712 46.8685 40.2626 42.7915 45.3164 42.7971C50.3652 42.7971 54.451 46.869 54.451 51.8993C54.451 56.9302 50.3647 61.001 45.3108 61.0066Z" fill="#FEFEFE"/>
<path opacity="0.8" fill-rule="evenodd" clip-rule="evenodd" d="M337.878 343.319H342.622C349.467 343.319 353.083 339.713 353.083 332.895V317.742H346.391V332.895C346.391 335.489 345.226 336.649 342.623 336.649H337.879C335.273 336.649 334.111 335.489 334.111 332.895V280.903C334.111 278.305 335.274 277.147 337.879 277.147H342.623C345.227 277.147 346.391 278.305 346.391 280.903V296.054H353.083V280.903C353.083 274.083 349.467 270.479 342.622 270.479H337.878C331.036 270.479 327.416 274.083 327.416 280.903V332.895C327.416 339.713 331.036 343.319 337.878 343.319Z" fill="#E31E25"/>
<path opacity="0.8" fill-rule="evenodd" clip-rule="evenodd" d="M374.972 343.319H381.669V277.147H391.154V270.479H365.486V277.147H374.972V343.319Z" fill="#E31E25"/>
<path opacity="0.8" fill-rule="evenodd" clip-rule="evenodd" d="M403.54 343.319H410.235V310.234H418.747C425.591 310.234 429.207 306.628 429.207 299.808V280.903C429.207 274.083 425.591 270.479 418.747 270.479H403.54V343.319ZM410.235 277.147H418.747C421.352 277.147 422.514 278.306 422.514 280.903V299.855C422.514 302.455 421.387 303.562 418.747 303.562H410.235V277.147V277.147Z" fill="#E31E25"/>
<path opacity="0.8" fill-rule="evenodd" clip-rule="evenodd" d="M441.602 343.319H448.071L460.575 296.465V343.319H467.271V270.479H460.756L448.297 317.143V270.479H441.602V343.319Z" fill="#E31E25"/>
<path opacity="0.8" fill-rule="evenodd" clip-rule="evenodd" d="M479.672 343.319H486.365V277.147H498.645V343.319H505.34V270.479H479.672V343.319Z" fill="#E31E25"/>
<path opacity="0.8" fill-rule="evenodd" clip-rule="evenodd" d="M527.213 343.319H533.91V277.147H543.393V270.479H517.728V277.147H527.213V343.319Z" fill="#E31E25"/>
<path opacity="0.8" fill-rule="evenodd" clip-rule="evenodd" d="M555.797 343.319H562.265L574.771 296.465V343.319H581.466V270.479H574.949L562.492 317.143V270.479H555.797V343.319Z" fill="#E31E25"/>
<path opacity="0.8" fill-rule="evenodd" clip-rule="evenodd" d="M604.306 343.319H609.05C615.894 343.319 619.51 339.713 619.51 332.895V316.351C619.51 311.989 618.214 308.819 615.645 306.897C618.214 304.979 619.51 301.809 619.51 297.446V280.903C619.51 274.083 615.894 270.479 609.05 270.479H604.306C597.463 270.479 593.845 274.083 593.845 280.903V296.054H600.538V280.903C600.538 278.305 601.7 277.147 604.305 277.147H609.05C611.655 277.147 612.818 278.306 612.818 280.903V295.13C612.818 302.688 609.314 303.563 606.68 303.563H600.958V310.234H606.68C609.314 310.234 612.818 311.113 612.818 318.716V332.895C612.818 335.489 611.654 336.649 609.05 336.649H604.305C601.7 336.649 600.538 335.489 600.538 332.895V317.743H593.845V332.895C593.845 339.713 597.463 343.319 604.306 343.319Z" fill="#E31E25"/>
<path opacity="0.8" fill-rule="evenodd" clip-rule="evenodd" d="M631.899 343.32H657.567V336.649H631.899V343.32Z" fill="#E31E25"/>
<path opacity="0.8" fill-rule="evenodd" clip-rule="evenodd" d="M669.932 343.319H685.137C691.981 343.319 695.597 339.713 695.597 332.895V304.536C695.597 297.716 691.981 294.111 685.137 294.111H676.625V277.147H693.275V270.479H669.932V343.319H669.932ZM676.625 300.78H685.137C687.778 300.78 688.904 301.889 688.904 304.488V332.895C688.904 335.489 687.742 336.649 685.137 336.649H676.625V300.78V300.78Z" fill="#E31E25"/>
<path opacity="0.8" fill-rule="evenodd" clip-rule="evenodd" d="M705.503 343.319H712.212L713.493 333.867H723.458L724.738 343.319H731.448L721.702 270.479H715.25L705.503 343.319H705.503ZM718.473 296.524L722.579 327.196H714.369L718.473 296.524Z" fill="#E31E25"/>
<path opacity="0.8" fill-rule="evenodd" clip-rule="evenodd" d="M741.335 343.319H748.027V310.234H756.54C763.384 310.234 767 306.628 767 299.808V280.903C767 274.083 763.384 270.479 756.54 270.479H741.335V343.319ZM748.027 277.147H756.54C759.145 277.147 760.307 278.306 760.307 280.903V299.855C760.307 302.455 759.18 303.562 756.54 303.562H748.027V277.147V277.147Z" fill="#E31E25"/>
</svg>
