<svg width="768" height="209" viewBox="0 0 768 209" fill="none" xmlns="http://www.w3.org/2000/svg">
<path d="M155.119 0C155.782 0.164866 155.782 0.164866 156.459 0.333063C157.022 2.36471 157.325 4.34169 157.537 6.43618C157.572 6.76328 157.607 7.09037 157.642 7.42738C157.752 8.46939 157.859 9.51165 157.967 10.5539C158.038 11.2368 158.11 11.9196 158.183 12.6024C158.522 15.8324 158.846 19.0635 159.151 22.297C159.414 25.0857 159.717 27.8681 160.04 30.6504C160.587 35.3745 161.061 40.1 161.442 44.8401C161.691 47.8348 162.041 50.8091 162.424 53.7897C162.923 57.6845 163.356 61.5859 163.788 65.4885C163.875 66.2723 163.962 67.0561 164.049 67.8399C164.788 74.4847 165.518 81.1304 166.24 87.7769C166.43 89.5267 166.621 91.2764 166.814 93.026C167.22 96.7372 167.622 100.447 167.91 104.169C168.05 105.838 168.266 107.486 168.516 109.141C169.325 114.51 169.81 119.908 170.321 125.31C170.945 137.079 174.886 146.381 176.226 147.214C177.632 148.087 178.364 148.645 179.576 149.212C179.83 149.334 180.084 149.455 180.346 149.58C182.883 150.685 185.599 151.253 188.287 151.877C188.287 152.426 188.287 152.976 188.287 153.542C176.899 153.542 165.512 153.542 153.779 153.542C154.093 152.291 154.476 151.54 155.14 150.472C157.929 145.203 155.513 135.526 154.847 129.853C154.705 128.595 154.565 127.337 154.426 126.079C154.335 125.257 154.243 124.434 154.15 123.611C153.8 120.484 153.497 117.355 153.234 114.22C153.002 111.467 152.76 108.717 152.475 105.97C152.449 105.714 152.422 105.459 152.395 105.196C152.34 104.665 152.285 104.135 152.23 103.604C151.657 98.0808 151.173 92.553 150.723 87.0182C150.143 79.906 149.497 72.8105 148.689 65.7202C148.62 65.113 148.551 64.5058 148.482 63.8986C148.449 63.6021 148.415 63.3057 148.38 63.0002C148.136 60.8158 147.919 58.6297 147.716 56.4411C147.686 56.1256 147.657 55.81 147.626 55.4848C147.488 53.9954 147.354 52.5058 147.223 51.0157C146.898 47.4088 146.387 43.8639 145.738 40.3006C145.406 40.1907 145.075 40.0808 144.733 39.9675C142.897 43.5607 141.152 47.1847 139.477 50.8545C139.243 51.365 139.009 51.8755 138.775 52.3859C137.14 55.956 135.527 59.5354 133.918 63.1173C132.528 66.2061 131.1 69.2765 129.661 72.343C128.251 75.3507 126.867 78.3695 125.49 81.3922C123.811 85.0747 122.112 88.7464 120.388 92.4078C118.691 96.0093 117.009 99.6173 115.334 103.229C115.208 103.5 115.082 103.772 114.952 104.052C114.308 105.441 113.664 106.83 113.019 108.22C111.841 110.762 110.661 113.303 109.481 115.844C108.847 117.209 108.213 118.575 107.579 119.94C107.34 120.454 107.102 120.968 106.863 121.482C106.751 121.723 106.639 121.964 106.524 122.212C105.144 125.183 105.144 125.183 104.662 126.223C104.352 126.891 104.042 127.558 103.732 128.226C102.857 130.112 101.981 131.997 101.105 133.882C100.579 135.014 100.053 136.146 99.5268 137.277C99.2616 137.848 98.9963 138.419 98.7309 138.989C97.5007 141.635 96.2707 144.28 95.07 146.939C94.9167 147.278 94.7635 147.617 94.6056 147.967C94.3373 148.562 93.9057 149.099 93.6409 149.696L90.9607 154.541L89.6205 152.709L87.6064 149.696C87.6064 149.696 87.4428 149.378 87.2759 149.054C86.918 148.358 86.5627 147.661 86.2074 146.964C85.9564 146.475 85.7051 145.986 85.4537 145.496C84.9293 144.476 84.4058 143.456 83.8828 142.435C83.1068 140.921 82.3247 139.411 81.5406 137.902C81.3522 137.54 81.3522 137.54 81.16 137.17C80.6746 136.235 80.189 135.301 79.7033 134.367C78.2838 131.636 76.8831 128.896 75.5037 126.144C74.7102 124.561 73.9127 122.98 73.1151 121.399C72.4141 120.01 71.7137 118.62 71.0135 117.23C70.4992 116.209 69.9847 115.188 69.4696 114.168C66.9493 109.175 64.4635 104.168 62.058 99.1193C61.6612 98.2864 61.2632 97.4542 60.8648 96.6221C56.3173 87.1217 51.8425 77.5926 47.5093 67.9935C46.3008 65.3165 45.0909 62.6401 43.868 59.9695C43.7604 59.7345 43.6528 59.4995 43.5419 59.2574C43.0205 58.1194 42.4983 56.9817 41.9754 55.8444C40.9759 53.6672 39.9913 51.4851 39.0336 49.2894C38.8473 48.8643 38.661 48.4392 38.4746 48.0141C38.1283 47.2214 37.7849 46.4273 37.445 45.6318C37.2929 45.2842 37.1409 44.9365 36.9842 44.5784C36.853 44.2733 36.7218 43.9683 36.5867 43.654C36.2212 42.8554 36.2212 42.8554 35.1782 42.632C34.1624 43.226 33.8832 43.4966 33.503 44.6304C33.4325 45.3413 33.3787 46.0538 33.3329 46.7667C33.3005 47.2448 33.2681 47.7229 33.2355 48.2009C33.218 48.4637 33.2005 48.7265 33.1825 48.9972C32.6791 56.4733 32.0216 63.9362 31.3672 71.4003C31.315 71.9959 31.2629 72.5914 31.2107 73.187C31.0029 75.5588 30.795 77.9306 30.5869 80.3024C30.1551 85.2238 29.7328 90.146 29.3151 95.0686C29.1843 96.6073 29.0534 98.146 28.9225 99.6847C28.8888 100.081 28.8552 100.477 28.8204 100.885C28.3687 106.197 27.9162 111.508 27.4617 116.819C27.3288 118.373 27.1961 119.926 27.0639 121.479C26.9396 122.94 26.8147 124.4 26.6895 125.861C26.6432 126.402 26.5971 126.943 26.5511 127.484C26.4876 128.232 26.4234 128.98 26.3591 129.728C26.3232 130.148 26.2873 130.568 26.2504 131.001C26.1654 131.883 26.0682 132.757 25.9547 133.635C25.705 135.626 25.6965 137.619 25.68 139.623C25.6745 140.117 25.6653 140.612 25.6525 141.106C25.5785 144.001 25.5245 146.526 27.4725 148.879C30.5603 152.081 35.705 152.044 39.8686 152.21C39.8686 152.759 39.8686 153.309 39.8686 153.875C26.7119 153.875 13.5553 153.875 0 153.875C0 153.435 0 152.996 0 152.543C1.05689 152.193 1.88433 152.152 2.99433 152.106C6.00736 151.885 9.03772 151.273 11.2602 149.102C14.4299 145.322 14.3103 139.136 14.7481 134.457C14.9195 132.628 15.1001 130.8 15.2792 128.972C15.3165 128.589 15.3538 128.206 15.3922 127.812C15.7918 123.728 16.2241 119.647 16.6639 115.567C16.7488 114.78 16.8332 113.992 16.9174 113.205C17.3738 108.933 17.861 104.667 18.4055 100.405C18.7781 97.4845 19.1118 94.5607 19.4317 91.6339C19.5361 90.6841 19.6409 89.7344 19.7458 88.7847C19.773 88.5384 19.8001 88.2921 19.8281 88.0383C19.9893 86.5837 20.156 85.1298 20.3277 83.6763C20.9661 78.2697 21.5376 72.8576 22.0894 67.4417C22.8419 60.0585 23.6163 52.6792 24.4766 45.3075C25.0062 40.7662 25.4809 36.2232 25.9059 31.6709C26.1529 29.0453 26.4346 26.4235 26.7149 23.8013C26.9713 21.3982 27.2225 18.9945 27.4725 16.5907C27.5016 16.3113 27.5306 16.0319 27.5606 15.744C27.9553 11.9414 28.3247 8.1393 28.613 4.32697C28.7175 2.97213 28.8294 1.65901 29.1476 0.333063C30.2005 0.431133 30.6873 0.515678 31.4051 1.31274C32.8742 3.74435 34.1676 6.23963 35.417 8.78681C35.9161 9.79603 36.4235 10.8009 36.9318 11.8055C39.2517 16.3906 41.522 20.9955 43.7378 25.6314C44.5492 27.3231 45.3691 29.0109 46.1893 30.6985C46.4863 31.3098 46.7833 31.9212 47.0801 32.5327C48.1096 34.652 49.1418 36.77 50.1773 38.8864C52.3923 43.4164 54.574 47.9577 56.6961 52.5316C57.9289 55.1843 59.1918 57.821 60.4729 60.4509C62.9022 65.4408 65.2419 70.4708 67.5774 75.5046C70.22 81.227 70.22 81.227 73.0064 86.8808C75.3375 91.4516 77.5225 96.0974 79.7429 100.722C83.1215 107.757 86.5289 114.78 90.0224 121.759C90.2546 122.224 90.4864 122.688 90.7178 123.153C91.0399 123.799 91.3638 124.445 91.6883 125.09C91.8717 125.456 92.3008 126.223 92.3008 126.223L94.4785 129.894L95.0853 128.695C95.4849 127.559 95.9616 126.517 96.4952 125.437C96.5938 125.236 96.6925 125.036 96.7941 124.829C97.0062 124.397 97.2189 123.966 97.432 123.535C98.0077 122.369 98.5786 121.201 99.1493 120.033C99.2654 119.795 99.3814 119.558 99.5011 119.313C101.024 116.189 102.487 113.038 103.948 109.886C104.754 108.149 105.564 106.414 106.375 104.679C109.07 98.9118 111.751 93.1387 114.392 87.3461C115.951 83.9268 117.524 80.5144 119.103 77.104C120.906 73.2086 122.702 69.3098 124.485 65.4052C124.691 64.9539 124.897 64.5027 125.103 64.0514C125.205 63.8278 125.307 63.6042 125.413 63.3738C128.694 56.191 131.983 49.0141 135.375 41.8819C137.221 37.9978 139.024 34.0958 140.806 30.1823C141.014 29.7257 141.222 29.2691 141.43 28.8125C141.534 28.5844 141.638 28.3562 141.745 28.1212C143.618 24.0109 145.52 19.9138 147.419 15.8152C148.142 14.2542 148.861 12.6915 149.578 11.1277C151.312 7.35142 153.075 3.62191 155.119 0Z" fill="#F8F7FB"/>
<path d="M734.716 0.183228C735.379 0.348094 735.379 0.348094 736.056 0.51629C736.618 2.54794 736.922 4.52492 737.134 6.61941C737.169 6.9465 737.203 7.2736 737.239 7.61061C737.349 8.65261 737.456 9.69487 737.563 10.7372C737.635 11.42 737.707 12.1028 737.779 12.7856C738.119 16.0157 738.443 19.2468 738.748 22.4802C739.011 25.2689 739.314 28.0513 739.637 30.8337C740.184 35.5577 740.657 40.2832 741.039 45.0233C741.288 48.018 741.638 50.9923 742.021 53.973C742.52 57.8677 742.953 61.7691 743.384 65.6717C743.472 66.4555 743.559 67.2393 743.646 68.0231C744.384 74.6679 745.114 81.3136 745.837 87.9602C746.027 89.71 746.218 91.4596 746.41 93.2092C746.816 96.9204 747.219 100.63 747.507 104.353C747.646 106.021 747.863 107.67 748.113 109.325C748.922 114.693 749.406 120.091 749.918 125.494C750.541 137.262 754.482 146.564 755.822 147.397C757.229 148.271 757.96 148.828 759.173 149.395C759.427 149.517 759.681 149.638 759.942 149.764C762.48 150.868 765.196 151.437 767.884 152.06C767.884 152.609 767.884 153.159 767.884 153.725C756.496 153.725 745.108 153.725 733.375 153.725C733.69 152.474 734.072 151.723 734.737 150.655C737.526 145.386 735.109 135.709 734.443 130.036C734.302 128.778 734.162 127.521 734.023 126.263C733.931 125.44 733.84 124.617 733.747 123.794C733.397 120.667 733.094 117.539 732.831 114.403C732.599 111.651 732.357 108.901 732.072 106.153C732.046 105.898 732.019 105.642 731.992 105.379C731.937 104.848 731.882 104.318 731.827 103.788C731.253 98.264 730.77 92.7363 730.319 87.2015C729.74 80.0892 729.094 72.9937 728.286 65.9034C728.217 65.2963 728.148 64.6891 728.079 64.0818C728.045 63.7854 728.012 63.4889 727.977 63.1834C727.732 60.9991 727.516 58.8129 727.312 56.6244C727.283 56.3088 727.253 55.9932 727.223 55.6681C727.085 54.1786 726.95 52.689 726.819 51.1989C726.495 47.592 725.984 44.0471 725.335 40.4838C725.003 40.3739 724.671 40.264 724.33 40.1508C722.494 43.7439 720.749 47.368 719.074 51.0378C718.84 51.5482 718.606 52.0587 718.372 52.5691C716.737 56.1392 715.123 59.7186 713.515 63.3005C712.124 66.3893 710.697 69.4598 709.258 72.5262C707.848 75.534 706.464 78.5527 705.086 81.5754C703.408 85.2579 701.709 88.9296 699.984 92.591C698.288 96.1926 696.606 99.8005 694.931 103.412C694.805 103.683 694.679 103.955 694.549 104.235C693.905 105.624 693.26 107.014 692.616 108.403C691.437 110.945 690.257 113.486 689.077 116.027C688.443 117.393 687.809 118.758 687.175 120.124C686.937 120.637 686.698 121.151 686.46 121.665C686.348 121.906 686.236 122.147 686.121 122.396C684.741 125.367 684.741 125.367 684.259 126.406C683.949 127.074 683.639 127.742 683.329 128.409C682.453 130.295 681.578 132.18 680.701 134.066C680.175 135.197 679.649 136.329 679.124 137.461C678.858 138.031 678.593 138.602 678.328 139.173C677.097 141.818 675.867 144.464 674.667 147.122C674.513 147.462 674.36 147.801 674.202 148.15C673.934 148.746 673.502 149.282 673.238 149.879L670.557 154.724L669.217 152.893L667.203 149.879C667.203 149.879 667.039 149.562 666.873 149.238C666.515 148.542 666.159 147.844 665.804 147.147C665.553 146.658 665.302 146.169 665.05 145.68C664.526 144.659 664.002 143.639 663.479 142.618C662.704 141.105 661.921 139.595 661.137 138.086C660.949 137.723 660.949 137.723 660.757 137.353C660.271 136.419 659.786 135.484 659.3 134.55C657.88 131.819 656.48 129.079 655.1 126.327C654.307 124.744 653.509 123.163 652.712 121.583C652.011 120.193 651.31 118.803 650.61 117.413C650.096 116.392 649.581 115.372 649.066 114.351C646.546 109.358 644.06 104.351 641.655 99.3025C641.258 98.4697 640.86 97.6374 640.461 96.8053C635.914 87.3049 631.439 77.7758 627.106 68.1767C625.897 65.4997 624.688 62.8233 623.465 60.1527C623.357 59.9177 623.249 59.6827 623.139 59.4406C622.617 58.3026 622.095 57.1649 621.572 56.0276C620.573 53.8505 619.588 51.6683 618.63 49.4726C618.444 49.0475 618.258 48.6224 618.071 48.1974C617.725 47.4046 617.382 46.6105 617.042 45.815C616.89 45.4674 616.738 45.1198 616.581 44.7616C616.45 44.4566 616.318 44.1515 616.183 43.8372C615.818 43.0386 615.818 43.0386 614.775 42.8153C613.759 43.4093 613.48 43.6798 613.1 44.8136C613.029 45.5245 612.975 46.2371 612.93 46.9499C612.897 47.428 612.865 47.9061 612.832 48.3841C612.815 48.6469 612.797 48.9097 612.779 49.1804C612.276 56.6565 611.618 64.1195 610.964 71.5836C610.912 72.1791 610.86 72.7747 610.807 73.3702C610.6 75.742 610.392 78.1138 610.184 80.4856C609.752 85.407 609.33 90.3292 608.912 95.2518C608.781 96.7905 608.65 98.3292 608.519 99.8679C608.486 100.264 608.452 100.66 608.417 101.068C607.965 106.38 607.513 111.691 607.058 117.003C606.925 118.556 606.793 120.109 606.661 121.662C606.536 123.123 606.411 124.583 606.286 126.044C606.24 126.585 606.194 127.126 606.148 127.667C606.084 128.415 606.02 129.163 605.956 129.911C605.92 130.331 605.884 130.751 605.847 131.184C605.762 132.066 605.665 132.94 605.551 133.819C605.302 135.81 605.293 137.802 605.277 139.806C605.271 140.3 605.262 140.795 605.249 141.289C605.175 144.184 605.121 146.71 607.069 149.062C610.157 152.264 615.302 152.227 619.465 152.393C619.465 152.942 619.465 153.492 619.465 154.058C606.309 154.058 593.152 154.058 579.597 154.058C579.597 153.619 579.597 153.179 579.597 152.726C580.654 152.376 581.481 152.336 582.591 152.289C585.604 152.068 588.634 151.457 590.857 149.285C594.027 145.505 593.907 139.319 594.345 134.64C594.516 132.811 594.697 130.983 594.876 129.155C594.913 128.772 594.95 128.39 594.989 127.995C595.388 123.911 595.821 119.83 596.261 115.75C596.345 114.963 596.43 114.176 596.514 113.388C596.971 109.116 597.458 104.85 598.002 100.588C598.375 97.6678 598.708 94.7439 599.028 91.8171C599.133 90.8673 599.238 89.9176 599.343 88.9679C599.37 88.7216 599.397 88.4753 599.425 88.2215C599.586 86.7669 599.753 85.313 599.924 83.8596C600.563 78.4529 601.134 73.0408 601.686 67.6249C602.439 60.2417 603.213 52.8625 604.073 45.4908C604.603 40.9494 605.078 36.4064 605.503 31.8541C605.75 29.2285 606.031 26.6068 606.312 23.9845C606.568 21.5814 606.819 19.1777 607.069 16.7739C607.098 16.4945 607.127 16.2151 607.157 15.9272C607.552 12.1246 607.921 8.32252 608.21 4.5102C608.314 3.15536 608.426 1.84224 608.744 0.51629C609.797 0.61436 610.284 0.698906 611.002 1.49596C612.471 3.92758 613.764 6.42286 615.014 8.97004C615.513 9.97926 616.02 10.9841 616.529 11.9887C618.848 16.5738 621.119 21.1787 623.334 25.8146C624.146 27.5064 624.966 29.1941 625.786 30.8817C626.083 31.493 626.38 32.1045 626.677 32.7159C627.706 34.8352 628.738 36.9532 629.774 39.0696C631.989 43.5996 634.171 48.1409 636.293 52.7149C637.526 55.3675 638.788 58.0042 640.07 60.6341C642.499 65.6241 644.839 70.654 647.174 75.6878C649.817 81.4102 649.817 81.4102 652.603 87.0641C654.934 91.6348 657.119 96.2807 659.34 100.905C662.718 107.941 666.126 114.963 669.619 121.943C669.851 122.407 670.083 122.871 670.314 123.336C670.637 123.982 670.96 124.628 671.285 125.273C671.468 125.639 671.897 126.406 671.897 126.406L674.075 130.078L674.682 128.878C675.082 127.743 675.558 126.7 676.092 125.62C676.191 125.42 676.289 125.219 676.391 125.012C676.603 124.581 676.816 124.149 677.029 123.718C677.604 122.552 678.175 121.384 678.746 120.216C678.862 119.978 678.978 119.741 679.098 119.496C680.621 116.373 682.083 113.221 683.545 110.069C684.35 108.332 685.16 106.597 685.971 104.863C688.667 99.095 691.348 93.322 693.988 87.5294C695.547 84.11 697.121 80.6976 698.7 77.2873C700.503 73.3918 702.298 69.493 704.081 65.5884C704.287 65.1372 704.494 64.6859 704.7 64.2346C704.802 64.011 704.904 63.7874 705.009 63.557C708.291 56.3743 711.58 49.1973 714.972 42.0651C716.818 38.181 718.621 34.279 720.403 30.3655C720.611 29.9089 720.819 29.4523 721.026 28.9958C721.13 28.7676 721.234 28.5395 721.341 28.3044C723.215 24.1942 725.117 20.097 727.016 15.9985C727.739 14.4375 728.458 12.8748 729.175 11.3109C730.909 7.53465 732.671 3.80514 734.716 0.183228Z" fill="#F8F7FB"/>
<path d="M268.021 0.334839C269.151 0.896431 269.43 2.16499 269.914 3.27386C270.032 3.54229 270.15 3.81073 270.272 4.0873C271.589 7.10819 272.762 10.1805 273.926 13.2618C274.16 13.8764 274.394 14.4909 274.628 15.1054C275.219 16.6591 275.808 18.2134 276.397 19.768C276.908 21.1156 277.421 22.4624 277.934 23.8093C278.125 24.3125 278.317 24.8157 278.508 25.3189C278.602 25.5655 278.696 25.8121 278.793 26.0661C279.079 26.8185 279.366 27.5709 279.652 28.3233C281.115 32.1729 282.587 36.0196 284.061 39.8652C284.173 40.1565 284.284 40.4477 284.399 40.7478C285.532 43.7026 286.665 46.6571 287.8 49.6112C288.362 51.0739 288.923 52.5367 289.484 53.9996C289.595 54.2892 289.707 54.5789 289.821 54.8773C291.546 59.375 293.249 63.8809 294.943 68.3903C296.756 73.2147 298.618 78.0199 300.492 82.8213C301.884 86.3879 303.261 89.9574 304.582 93.5508C306.482 98.713 308.538 103.814 310.579 108.923C311.562 111.384 312.54 113.847 313.517 116.311C313.836 117.112 314.155 117.914 314.474 118.715C315.408 121.064 316.338 123.415 317.247 125.775C318.794 129.779 320.429 133.724 322.234 137.619C322.41 138.003 322.587 138.387 322.769 138.782C323.79 140.949 324.904 142.947 326.317 144.884C326.521 145.166 326.724 145.448 326.934 145.739C329.615 148.951 333.58 150.611 337.373 152.211C337.373 152.651 337.373 153.091 337.373 153.544C326.648 153.544 315.924 153.544 304.875 153.544C304.875 153.324 304.875 153.104 304.875 152.878C305.186 152.685 305.497 152.493 305.817 152.295C307.069 151.416 307.422 150.994 307.89 149.547C308.125 147.555 308.077 145.912 307.299 144.052C306.534 142.189 305.822 140.309 305.116 138.423C304.834 137.673 304.552 136.924 304.271 136.174C304.123 135.782 303.976 135.39 303.825 134.986C301.23 128.078 298.605 121.184 295.934 114.305C292.373 105.132 292.373 105.132 290.762 100.816C290.633 100.473 290.504 100.129 290.372 99.7758C289.774 98.1624 289.271 96.586 288.793 94.9247C273.647 95.0346 258.5 95.1445 242.894 95.2577C239.979 103.745 237.08 112.231 234.272 120.753C233.925 121.804 233.578 122.854 233.23 123.905C231.065 130.448 231.065 130.448 228.946 137.005C228.869 137.246 228.791 137.488 228.712 137.737C228.174 139.435 227.696 141.116 227.483 142.886C227.436 143.255 227.436 143.255 227.387 143.633C227.228 145.974 228.101 148.008 229.646 149.771C231.436 151.367 233.7 151.684 235.984 152.087C236.231 152.131 236.477 152.176 236.731 152.222C237.334 152.331 237.936 152.438 238.539 152.545C238.539 152.874 238.539 153.204 238.539 153.544C234.385 153.588 230.232 153.631 226.078 153.674C224.149 153.694 222.219 153.714 220.29 153.734C218.421 153.754 216.553 153.774 214.685 153.793C213.979 153.8 213.272 153.808 212.566 153.815C207.822 153.866 203.079 153.886 198.335 153.877C198.335 153.437 198.335 152.997 198.335 152.545C199.649 152.213 200.96 151.89 202.285 151.604C206.966 150.557 211.361 149.035 214.075 144.863C216.483 140.898 218.137 136.593 219.714 132.249C219.87 131.823 220.026 131.397 220.182 130.971C220.528 130.025 220.873 129.078 221.218 128.131C221.719 126.752 222.223 125.373 222.726 123.995C225.495 116.416 228.235 108.827 230.959 101.232C233.456 94.2703 235.956 87.3105 238.579 80.3946C239.684 77.4776 240.751 74.548 241.806 71.6126C242.314 70.1994 242.823 68.7868 243.333 67.3741C243.436 67.0886 243.539 66.8031 243.645 66.509C244.692 63.6062 245.749 60.707 246.81 57.809C246.894 57.58 246.977 57.3511 247.064 57.1151C248.45 53.3256 248.45 53.3256 249.072 51.6882C249.647 50.1654 250.194 48.6328 250.739 47.0989C250.848 46.7916 250.957 46.4842 251.07 46.1676C251.306 45.5038 251.543 44.8401 251.779 44.1763C252.157 43.1119 252.536 42.0476 252.915 40.9834C254.069 37.7424 255.222 34.501 256.371 31.2581C258.843 24.2798 261.336 17.31 263.891 10.3614C264.158 9.63624 264.424 8.91084 264.689 8.18524C265.057 7.17975 265.428 6.17513 265.799 5.17075C265.908 4.87316 266.017 4.57557 266.128 4.26896C266.65 2.86691 267.18 1.58603 268.021 0.334839Z" fill="#F9F9FC"/>
<path d="M345.423 4.33142C360.791 4.33142 376.159 4.33142 391.992 4.33142C391.992 4.88097 391.992 5.43053 391.992 5.99673C391.58 6.02936 391.168 6.06199 390.744 6.09561C390.197 6.14562 389.65 6.19595 389.103 6.24653C388.832 6.26714 388.561 6.28775 388.282 6.30898C386.079 6.52266 384.394 7.25223 382.946 8.9943C382.204 11.209 382.289 13.2046 383.315 15.3279C383.798 16.2565 384.299 17.1747 384.805 18.0911C385.376 19.1415 385.925 20.2024 386.471 21.2656C388.637 25.4779 390.845 29.6598 393.183 33.7806C393.768 34.8193 394.346 35.862 394.922 36.9052C397.41 41.4053 399.921 45.8896 402.498 50.3398C403.133 51.4396 403.763 52.5418 404.394 53.6442C404.75 54.2664 405.106 54.8886 405.462 55.5108C405.799 56.0998 406.136 56.6893 406.472 57.2787C407.794 59.5861 409.165 61.8519 410.594 64.0947C411.089 64.9488 411.089 64.9488 411.089 65.615C412.503 64.311 413.536 62.9092 414.586 61.306C414.759 61.045 414.931 60.784 415.11 60.5151C419.001 54.6153 422.751 48.6233 426.5 42.6336C426.692 42.3282 426.883 42.0228 427.08 41.7081C429.568 37.7382 432.013 33.7457 434.424 29.7294C434.84 29.0385 435.259 28.3495 435.68 27.6614C441.369 19.2546 441.369 19.2546 442.917 9.66043C442.449 8.40039 441.798 7.9691 440.62 7.30557C438.68 6.46941 436.813 6.21259 434.73 6.12163C434.484 6.10875 434.239 6.09587 433.987 6.0826C433.39 6.05158 432.793 6.02381 432.196 5.99673C432.085 5.44718 431.975 4.89763 431.861 4.33142C445.017 4.33142 458.174 4.33142 471.729 4.33142C471.729 4.88097 471.729 5.43053 471.729 5.99673C471.515 6.00994 471.301 6.02314 471.081 6.03674C465.08 6.42617 460.43 6.81693 456.222 11.5144C453.49 14.9197 451.154 18.6337 448.749 22.2697C447.828 23.6617 446.905 25.0526 445.983 26.4437C444.714 28.3579 443.445 30.2723 442.177 32.187C438.979 37.0133 435.763 41.8268 432.531 46.6304C428.734 52.2738 424.949 57.9242 421.229 63.6176C420.436 64.8286 419.63 66.0297 418.817 67.2269C418.439 67.7928 418.062 68.3587 417.685 68.9248C417.512 69.1727 417.339 69.4207 417.161 69.6761C417.01 69.9052 416.86 70.1342 416.705 70.3702C416.573 70.5634 416.442 70.7566 416.306 70.9556C415.924 72.2598 416.679 73.4052 417.273 74.554C417.462 74.8791 417.651 75.2042 417.846 75.5392C418.06 75.9089 418.273 76.2786 418.494 76.6595C418.727 77.058 418.96 77.4565 419.193 77.855C419.435 78.2723 419.677 78.6897 419.919 79.1072C420.417 79.9655 420.916 80.8233 421.415 81.6805C422.089 82.8378 422.76 83.9974 423.429 85.1577C425.747 89.1743 428.1 93.1697 430.48 97.1506C432.124 99.8997 433.754 102.656 435.379 105.416C437.43 108.901 439.495 112.379 441.569 115.851C443.087 118.394 444.594 120.944 446.095 123.496C452.607 135.543 452.607 135.543 461.008 146.216C461.277 146.494 461.277 146.494 461.552 146.778C465.819 150.84 471.82 151.656 477.425 152.211C477.425 152.761 477.425 153.31 477.425 153.877C469.288 153.908 461.153 153.82 453.017 153.722C451.305 153.702 449.593 153.682 447.881 153.662C444.551 153.623 441.221 153.584 437.891 153.544C437.891 153.214 437.891 152.884 437.891 152.544C438.454 152.129 438.454 152.129 439.19 151.733C440.309 151.128 440.751 150.715 441.242 149.547C441.724 147.024 440.716 145.163 439.504 143.01C439.323 142.678 439.142 142.346 438.956 142.004C438.385 140.961 437.805 139.925 437.221 138.889C437.041 138.566 436.86 138.243 436.674 137.911C435.599 135.995 434.51 134.087 433.414 132.183C432.508 130.605 431.609 129.022 430.709 127.44C430.53 127.126 430.352 126.812 430.167 126.488C429.222 124.826 428.281 123.161 427.347 121.493C424.963 117.237 422.521 113.023 420.015 108.837C417.175 104.076 414.398 99.2792 411.645 94.4683C410.096 91.7613 408.518 89.0771 406.87 86.4288C406.399 85.5987 406.399 85.5987 406.399 84.9326C405.334 85.8366 404.752 86.9962 404.095 88.2008C402.869 90.409 401.601 92.5892 400.305 94.758C398.752 97.3606 397.209 99.9692 395.678 102.585C394.369 104.82 393.055 107.051 391.727 109.275C389.658 112.738 387.637 116.227 385.632 119.727C384.182 122.26 382.712 124.78 381.229 127.294C379.603 130.061 377.986 132.834 376.392 135.621C376.201 135.951 376.009 136.281 375.812 136.621C374.108 139.62 372.294 142.856 372.393 146.383C372.398 146.944 372.398 146.944 372.403 147.517C372.642 149.08 373.243 149.931 374.424 150.962C375.766 151.92 376.855 151.975 378.465 152.066C378.702 152.08 378.939 152.094 379.183 152.109C379.767 152.145 380.352 152.178 380.936 152.211C380.936 152.761 380.936 153.31 380.936 153.877C368.885 153.877 356.834 153.877 344.418 153.877C344.418 153.217 344.418 152.558 344.418 151.878C344.998 151.847 344.998 151.847 345.591 151.816C351.606 151.136 356.004 148.537 359.738 143.884C361.123 142.069 362.355 140.155 363.598 138.243C363.881 137.812 364.163 137.38 364.446 136.949C366.143 134.355 367.82 131.748 369.473 129.127C370.65 127.261 371.852 125.412 373.063 123.568C374.992 120.628 376.885 117.667 378.764 114.695C379.431 113.641 380.099 112.589 380.768 111.537C381.104 111.008 381.44 110.48 381.775 109.951C382.603 108.648 383.431 107.346 384.263 106.046C386.285 102.881 388.266 99.6941 390.221 96.4882C391.539 94.3285 392.87 92.1778 394.212 90.0326C396.168 86.9023 398.095 83.7542 399.977 80.5794C400.3 80.0479 400.649 79.5319 401.004 79.0207C401.43 78.2977 401.43 78.2977 401.367 77.5181C400.875 76.1545 400.182 74.9303 399.468 73.6709C399.304 73.3792 399.14 73.0874 398.972 72.7868C396.919 69.1459 394.79 65.5489 392.662 61.9513C391.84 60.5601 391.019 59.1686 390.198 57.777C389.956 57.3677 389.714 56.9584 389.473 56.5492C387.759 53.6459 386.059 50.7349 384.37 47.8169C380.95 41.9105 377.447 36.0552 373.911 30.2166C373.079 28.8413 372.252 27.4631 371.431 26.0816C364.775 13.8424 364.775 13.8424 353.193 6.99722C350.619 6.44981 348.05 6.13778 345.423 5.99673C345.423 5.44718 345.423 4.89763 345.423 4.33142Z" fill="#F9F8FB"/>
<path d="M499.531 4.33142C513.793 4.33142 528.056 4.33142 542.75 4.33142C542.75 4.88097 542.75 5.43053 542.75 5.99674C542.114 6.6294 540.939 6.4044 540.091 6.43388C537.029 6.60697 534.761 7.11821 532.574 9.34818C529.327 13.3365 529.247 18.7462 529.262 23.6539C529.261 24.1084 529.259 24.5629 529.258 25.0174C529.254 26.2542 529.255 27.4908 529.256 28.7275C529.257 30.0665 529.254 31.4055 529.252 32.7445C529.247 35.3647 529.247 37.9849 529.248 40.6051C529.248 42.7399 529.248 44.8747 529.246 47.0095C529.246 47.3144 529.246 47.6193 529.246 47.9334C529.245 48.553 529.245 49.1727 529.244 49.7923C529.241 55.5984 529.241 61.4045 529.244 67.2106C529.245 72.4966 529.241 77.7826 529.235 83.0687C529.229 88.5164 529.226 93.9641 529.227 99.4118C529.228 102.462 529.227 105.512 529.222 108.562C529.218 111.163 529.218 113.765 529.222 116.366C529.224 117.687 529.224 119.009 529.22 120.33C529.205 125.684 529.332 130.998 529.776 136.335C529.794 136.568 529.812 136.802 529.83 137.042C530.161 141.188 530.704 146.164 533.994 149.106C538.205 152.19 543.104 152.134 548.111 152.211C548.111 152.871 548.111 153.53 548.111 154.21C547.217 154.219 546.324 154.225 545.43 154.231C545.188 154.233 544.945 154.236 544.695 154.239C543.061 154.246 541.45 154.167 539.821 154.043C535.93 153.781 532.032 153.835 528.134 153.844C527.316 153.845 526.497 153.845 525.679 153.846C523.542 153.847 521.405 153.85 519.268 153.854C517.08 153.857 514.892 153.859 512.705 153.86C508.425 153.864 504.146 153.87 499.866 153.877C499.866 153.327 499.866 152.778 499.866 152.211C500.168 152.176 500.168 152.176 500.475 152.141C501.397 152.031 502.317 151.913 503.238 151.795C503.553 151.758 503.869 151.722 504.195 151.684C506.202 151.42 509.247 150.213 509.247 150.213C509.468 150.213 509.917 149.88 509.917 149.88C510.01 149.692 510.104 149.505 510.2 149.311C510.458 148.802 510.723 148.296 510.996 147.794C511.137 147.528 511.279 147.261 511.425 146.986C511.566 146.724 511.708 146.462 511.854 146.191C512.892 143.714 513.105 141.054 513.304 138.401C513.333 138.026 513.361 137.652 513.39 137.266C513.71 132.57 513.696 127.871 513.685 123.167C513.683 121.81 513.685 120.453 513.686 119.096C513.687 116.452 513.686 113.807 513.683 111.163C513.679 108.075 513.679 104.988 513.679 101.9C513.679 96.3896 513.676 90.8789 513.671 85.3682C513.667 80.0337 513.664 74.6992 513.665 69.3646C513.665 69.0354 513.665 68.7063 513.665 68.3671C513.665 68.0385 513.665 67.7099 513.665 67.3713C513.665 61.2747 513.663 55.1781 513.66 49.0815C513.659 46.9341 513.659 44.7867 513.658 42.6393C513.658 40.022 513.657 37.4047 513.654 34.7874C513.652 33.4545 513.651 32.1216 513.651 30.7887C513.652 29.5654 513.651 28.3421 513.648 27.1188C513.647 26.474 513.648 25.8291 513.649 25.1842C513.878 16.6843 513.878 16.6843 510.526 9.22361C508.351 7.21444 505.902 6.68908 503.028 6.39225C502.69 6.3521 502.352 6.31196 502.004 6.2706C501.18 6.17357 500.356 6.08241 499.531 5.99674C499.531 5.44718 499.531 4.89763 499.531 4.33142Z" fill="#FBFAFC"/>
<path d="M265.184 28.3112L266.294 31.3842C266.426 31.6992 266.426 31.6992 266.562 32.0207C267.445 34.1351 268.252 36.2758 269.037 38.4279C269.113 38.6361 269.189 38.8442 269.268 39.0586C272.445 47.7327 275.477 56.4553 278.395 65.2189C279.828 69.5215 281.299 73.8087 282.815 78.0832C282.905 78.3388 282.996 78.5943 283.089 78.8575C283.347 79.5845 283.606 80.3112 283.864 81.0379C283.984 81.3749 283.984 81.3749 284.106 81.7186C284.462 82.7154 284.825 83.7081 285.203 84.6965C285.326 85.0185 285.449 85.3404 285.576 85.6721C285.736 86.0785 285.736 86.0785 285.899 86.4932L286.793 88.9459C281.651 88.9536 275.837 88.9422 270.694 88.9459C268.307 88.9476 265.919 88.9499 263.531 88.9537C261.228 88.9574 258.926 88.9593 256.623 88.9602C255.743 88.9608 254.862 88.962 253.982 88.9638C252.753 88.9662 251.524 88.9666 250.295 88.9664C249.928 88.9676 249.56 88.9688 249.182 88.97C248.848 88.9696 248.515 88.9691 248.171 88.9687C247.88 88.969 247.589 88.9693 247.29 88.9696L244.747 88.9459C244.747 88.9459 246.395 84.4471 247.087 82.3142C247.208 81.9332 247.329 81.5522 247.453 81.1596C247.831 79.9732 248.215 78.7886 248.6 77.6045C248.716 77.2475 248.832 76.8905 248.951 76.5227C249.629 74.4373 250.316 72.3547 251.006 70.2732C252.843 64.7343 254.658 59.1896 256.41 53.6239C259.015 45.3592 262.256 36.4688 265.184 28.3112Z" fill="#0C0921"/>
<path d="M249.93 73.6089C250.6 74.6081 250.6 74.6081 250.492 75.2718C250.404 75.5178 250.316 75.7637 250.226 76.0171C250.133 76.2844 250.04 76.5516 249.944 76.827C249.792 77.2433 249.792 77.2433 249.637 77.6681C249.538 77.9495 249.439 78.231 249.337 78.5209C249.092 79.2165 248.843 79.9104 248.59 80.6032C248.369 80.6032 248.148 80.6032 247.92 80.6032C248.404 78.1987 249.119 75.9233 249.93 73.6089Z" fill="#1C1B25"/>
<path d="M599.714 183.519C600.419 183.492 601.123 183.473 601.828 183.457C602.221 183.445 602.614 183.434 603.018 183.422C604.069 183.519 604.069 183.519 605.074 184.518C603.194 184.518 601.315 184.518 599.379 184.518C599.489 184.188 599.6 183.859 599.714 183.519Z" fill="#181724"/>
<path d="M600.385 47.631C600.606 47.631 600.827 47.631 601.055 47.631C601.095 49.7734 600.996 51.8335 600.72 53.9592C600.609 53.9592 600.499 53.9592 600.385 53.9592C600.274 52.7502 600.164 51.5411 600.05 50.2955C600.271 50.2955 600.492 50.2955 600.72 50.2955C600.609 49.4162 600.499 48.5369 600.385 47.631Z" fill="#2B2933"/>
<path d="M231.182 129.228C231.403 129.338 231.624 129.447 231.852 129.561C231.631 130.66 231.41 131.759 231.182 132.891C230.85 133.001 230.519 133.111 230.177 133.224C230.281 132.745 230.386 132.267 230.491 131.788C230.549 131.521 230.608 131.255 230.668 130.98C230.847 130.227 230.847 130.227 231.182 129.228Z" fill="#181822"/>
<path d="M449.284 128.898C450.113 129.227 450.113 129.227 450.959 129.564C450.959 129.784 450.959 130.003 450.959 130.23C451.18 130.34 451.402 130.45 451.629 130.563C451.519 131.113 451.408 131.662 451.294 132.228C450.375 131.163 449.743 130.228 449.284 128.898Z" fill="#1B1925"/>
<path d="M236.199 115.906C236.534 116.573 236.534 116.573 236.383 117.197C236.294 117.431 236.206 117.664 236.116 117.905C235.989 118.255 235.989 118.255 235.859 118.613C235.529 119.237 235.529 119.237 234.524 119.903C234.674 119.299 234.829 118.695 234.985 118.092C235.113 117.588 235.113 117.588 235.244 117.074C235.529 116.24 235.529 116.24 236.199 115.906Z" fill="#15141F"/>
<path d="M451.943 131.895C452.165 132.335 452.386 132.774 452.614 133.227C452.835 133.227 453.056 133.227 453.284 133.227C453.173 133.777 453.062 134.326 452.949 134.893C452.036 134.109 451.671 133.352 451.273 132.228C451.495 132.118 451.716 132.008 451.943 131.895Z" fill="#1A1925"/>
<path d="M227.833 142.219C228.285 143.569 228.041 144.482 227.833 145.883C227.612 145.883 227.391 145.883 227.163 145.883C227.145 145.398 227.132 144.912 227.121 144.426C227.11 144.02 227.11 144.02 227.098 143.606C227.163 142.886 227.163 142.886 227.833 142.219Z" fill="#2E2F35"/>
<path d="M446.925 124.234C447.146 124.234 447.367 124.234 447.595 124.234C447.927 125.113 448.258 125.993 448.6 126.899C448.268 127.063 448.268 127.063 447.93 127.232C447.488 126.352 447.045 125.473 446.59 124.567C446.7 124.457 446.811 124.347 446.925 124.234Z" fill="#1A1A24"/>
<path d="M616.139 51.9607C616.47 51.9607 616.802 51.9607 617.144 51.9607C618.149 53.8758 618.149 53.8758 618.149 54.6252C617.817 54.6252 617.485 54.6252 617.144 54.6252C616.812 53.7459 616.48 52.8666 616.139 51.9607Z" fill="#24232E"/>
<path d="M229.823 133.227C230.045 133.337 230.266 133.447 230.493 133.56C230.383 134.219 230.272 134.879 230.158 135.558C229.827 135.668 229.495 135.778 229.153 135.891C229.374 135.012 229.596 134.133 229.823 133.227Z" fill="#21202A"/>
<path d="M307.901 102.252C308.122 102.252 308.344 102.252 308.571 102.252C308.571 102.471 308.571 102.691 308.571 102.918C308.903 103.028 309.235 103.138 309.577 103.251C309.355 103.8 309.134 104.35 308.906 104.916C308.255 103.944 308.085 103.376 307.901 102.252Z" fill="#161621"/>
<path d="M528.943 180.494C538.734 180.494 538.734 180.494 541.163 182.516C541.339 182.742 541.514 182.968 541.695 183.2C541.971 183.542 541.971 183.542 542.252 183.89C543.486 185.624 543.181 187.778 543.015 189.82C542.704 190.823 542.279 191.628 541.675 192.484C541.481 192.759 541.288 193.034 541.088 193.317C540.95 193.482 540.812 193.647 540.669 193.817C540.911 193.885 541.153 193.954 541.402 194.025C542.981 194.792 544.049 196.2 544.69 197.813C544.968 200.422 545.054 203.01 543.35 205.141C542.089 206.466 541.059 207.118 539.329 207.805C535.902 207.805 532.475 207.805 528.943 207.805C528.943 198.793 528.943 189.78 528.943 180.494Z" fill="#F9F9FA"/>
<path d="M692.679 180.461C693.233 180.466 693.233 180.466 693.798 180.472C694.168 180.475 694.539 180.478 694.92 180.482C695.206 180.485 695.493 180.489 695.788 180.493C696.022 189.71 696.178 198.918 696.123 208.137C694.906 208.137 693.69 208.137 692.437 208.137C692.327 201.653 692.216 195.168 692.102 188.487C691.549 189.916 690.997 191.344 690.427 192.816C690.025 193.826 689.621 194.835 689.211 195.841C689.105 196.102 688.999 196.364 688.89 196.633C688.669 197.176 688.448 197.719 688.227 198.262C687.892 199.086 687.558 199.911 687.224 200.736C687.007 201.27 686.79 201.803 686.573 202.336C686.475 202.578 686.377 202.82 686.277 203.07C685.614 204.691 684.865 206.247 684.062 207.804C683.177 207.804 682.293 207.804 681.381 207.804C680.177 204.945 678.988 202.079 677.811 199.209C677.623 198.751 677.435 198.293 677.246 197.835C676.966 197.156 676.687 196.476 676.408 195.796C676.245 195.399 676.082 195.003 675.914 194.594C675.126 192.574 674.409 190.527 673.676 188.487C673.565 194.861 673.455 201.236 673.341 207.804C672.124 207.804 670.908 207.804 669.655 207.804C669.655 198.902 669.655 189.999 669.655 180.826C671.093 180.826 672.53 180.826 674.011 180.826C676.103 184.807 677.808 188.903 679.497 193.066C679.907 194.074 680.318 195.081 680.73 196.088C680.983 196.709 681.237 197.331 681.489 197.954C681.602 198.232 681.715 198.51 681.832 198.797C681.931 199.042 682.031 199.287 682.133 199.539C682.313 199.969 682.512 200.393 682.721 200.81C683.692 199.684 684.159 198.463 684.648 197.084C686.232 192.763 688.046 188.544 689.883 184.323C690.031 183.983 690.178 183.642 690.331 183.292C690.469 182.976 690.607 182.661 690.749 182.335C690.873 182.052 690.996 181.769 691.124 181.477C691.587 180.5 691.587 180.5 692.679 180.461Z" fill="#F6F6F8"/>
<path d="M629.127 180.827C640.329 180.827 640.329 180.827 642.609 182.814C642.79 183.03 642.97 183.247 643.156 183.471C643.435 183.795 643.435 183.795 643.719 184.125C645.1 186.117 645.119 188.139 644.873 190.486C644.275 192.532 643.284 194.494 641.411 195.618C640.003 196.355 639.12 196.814 637.503 196.814C639.443 199.552 641.423 202.248 643.49 204.893C643.725 205.195 643.961 205.496 644.203 205.806C644.401 206.053 644.598 206.299 644.801 206.553C645.208 207.139 645.208 207.139 645.208 207.805C643.609 208.262 642.06 208.531 640.518 207.805C638.765 206.084 637.601 203.848 636.383 201.74C634.959 199.09 634.959 199.09 632.812 197.147C632.812 200.774 632.812 204.401 632.812 208.138C631.596 208.138 630.38 208.138 629.127 208.138C629.127 199.125 629.127 190.113 629.127 180.827Z" fill="#F8F7F9"/>
<path d="M730.971 180.494C732.076 180.494 733.182 180.494 734.321 180.494C735.094 181.279 735.436 181.754 735.912 182.701C736.192 183.195 736.472 183.689 736.753 184.183C736.9 184.449 737.046 184.715 737.198 184.99C738.035 186.464 738.968 187.877 739.891 189.3C740.288 189.918 740.684 190.536 741.08 191.155C741.286 191.475 741.491 191.795 741.703 192.124C742.165 192.845 742.628 193.565 743.09 194.286C743.71 195.253 744.331 196.22 744.952 197.187C745.31 197.744 745.667 198.302 746.025 198.859C746.35 199.365 746.35 199.365 746.682 199.881C746.875 200.181 747.068 200.482 747.267 200.791C747.668 201.446 747.668 201.446 748.057 201.81C748.057 194.776 748.057 187.742 748.057 180.494C749.273 180.494 750.49 180.494 751.743 180.494C751.743 189.507 751.743 198.52 751.743 207.805C750.305 207.805 748.868 207.805 747.387 207.805C746.22 206.547 745.527 205.598 744.707 204.142C744.252 203.42 743.797 202.699 743.341 201.978C742.873 201.208 742.407 200.438 741.943 199.666C741.695 199.257 741.448 198.848 741.2 198.439C740.584 197.424 739.971 196.408 739.358 195.391C738.827 194.51 738.294 193.631 737.76 192.751C737.074 191.618 736.387 190.484 735.703 189.349C735.573 189.133 735.442 188.917 735.308 188.694C735.076 188.3 734.861 187.897 734.656 187.489C734.545 194.193 734.435 200.898 734.321 207.805C733.215 207.805 732.11 207.805 730.971 207.805C730.971 198.793 730.971 189.78 730.971 180.494Z" fill="#F7F7F9"/>
<path d="M611.89 181.92C615.632 184.009 618.353 187.185 619.576 191.328C620.323 195.202 619.572 199.098 617.452 202.432C617.107 202.898 616.751 203.356 616.384 203.806C616.212 204.018 616.04 204.23 615.863 204.448C614.091 206.412 611.3 207.932 608.632 208.21C603.499 208.456 599.822 208.13 595.801 204.618C592.541 201.056 591.65 196.791 591.87 192.136C592.16 188.806 594.225 185.783 596.611 183.528C601.052 180.021 606.814 179.405 611.89 181.92ZM598.137 187.119C596.118 189.867 595.374 192.805 595.612 196.145C596.177 199.394 597.858 201.592 600.334 203.698C602.064 204.892 603.527 205.315 605.621 205.284C605.859 205.281 606.097 205.278 606.342 205.275C608.227 205.215 609.527 204.933 611.023 203.806C611.249 203.652 611.474 203.498 611.707 203.339C613.872 201.69 615.404 199.481 615.824 196.764C616.166 193.131 615.764 190.336 613.46 187.419C611.586 185.345 609.374 184.071 606.587 183.663C603.16 183.511 600.477 184.621 598.137 187.119Z" fill="#F7F6F8"/>
<path d="M500.803 180.494C502.13 180.494 503.457 180.494 504.824 180.494C504.828 181.445 504.828 181.445 504.833 182.414C504.845 184.513 504.863 186.612 504.885 188.711C504.899 189.983 504.909 191.255 504.915 192.527C504.92 193.756 504.931 194.985 504.947 196.213C504.952 196.681 504.955 197.149 504.955 197.616C504.922 201.125 504.922 201.125 506.499 204.142C507.999 205.136 509.431 205.006 511.189 204.808C512.645 204.15 513.486 203.323 514.258 201.927C514.891 200.167 514.743 198.248 514.744 196.399C514.749 195.94 514.754 195.48 514.761 195.02C514.775 193.817 514.782 192.615 514.787 191.412C514.794 190.181 514.808 188.951 514.821 187.721C514.846 185.312 514.863 182.903 514.875 180.494C516.091 180.494 517.307 180.494 518.56 180.494C518.591 183.123 518.615 185.752 518.629 188.382C518.636 189.603 518.646 190.824 518.661 192.045C518.676 193.226 518.684 194.408 518.687 195.589C518.691 196.253 518.701 196.917 518.712 197.581C518.713 200.596 518.383 203.33 516.466 205.765C514.121 207.567 512.533 208.415 509.514 208.346C509.229 208.353 508.944 208.359 508.65 208.366C506.014 208.346 504.415 207.357 502.541 205.578C500.635 202.708 500.665 199.646 500.705 196.302C500.707 195.843 500.709 195.385 500.71 194.927C500.713 193.732 500.723 192.538 500.734 191.343C500.745 190.119 500.749 188.896 500.754 187.672C500.765 185.279 500.783 182.887 500.803 180.494Z" fill="#F2F1F3"/>
<path d="M466.937 182.804C469.145 184.4 469.145 184.4 469.974 185.489C470.229 187.232 469.853 188.316 468.968 189.819C467.838 189.444 467.622 189.158 466.895 188.258C464.956 185.992 462.944 184.399 459.896 184.033C456.933 183.972 454.794 184.439 452.542 186.421C450.25 188.834 449.427 191.083 449.39 194.357C449.387 194.596 449.383 194.834 449.38 195.08C449.426 197.874 450.717 200.39 452.552 202.475C455.465 204.636 457.991 205.134 461.598 204.807C464.331 204.028 466.307 202.077 468.298 200.144C469.275 200.502 469.899 200.736 470.644 201.476C470.461 203.374 468.747 204.761 467.405 205.98C464.273 208.421 460.375 208.458 456.572 208.137C453.178 207.604 450.176 205.809 448.017 203.169C447.265 202.106 446.7 201.003 446.186 199.811C446.055 199.529 445.924 199.248 445.789 198.957C444.684 195.663 444.77 191.845 446.099 188.652C446.763 187.346 447.56 186.252 448.532 185.156C448.707 184.95 448.883 184.745 449.064 184.533C453.709 179.481 461.326 179.242 466.937 182.804Z" fill="#F7F7F8"/>
<path d="M706.516 180.827C711.27 180.827 716.024 180.827 720.922 180.827C720.922 181.816 720.922 182.805 720.922 183.824C717.384 183.824 713.846 183.824 710.201 183.824C710.201 186.572 710.201 189.32 710.201 192.151C713.297 192.151 716.392 192.151 719.582 192.151C719.582 193.14 719.582 194.129 719.582 195.149C716.486 195.149 713.39 195.149 710.201 195.149C710.201 198.446 710.201 201.743 710.201 205.14C713.849 205.14 717.498 205.14 721.257 205.14C721.257 206.13 721.257 207.119 721.257 208.138C716.392 208.138 711.528 208.138 706.516 208.138C706.516 199.125 706.516 190.113 706.516 180.827Z" fill="#F8F8F9"/>
<path d="M570.151 180.827C574.795 180.827 579.438 180.827 584.223 180.827C584.223 181.816 584.223 182.805 584.223 183.824C580.906 183.824 577.589 183.824 574.172 183.824C574.172 186.682 574.172 189.54 574.172 192.484C576.715 192.484 579.257 192.484 581.877 192.484C581.877 193.473 581.877 194.462 581.877 195.482C579.335 195.482 576.792 195.482 574.172 195.482C574.172 199.658 574.172 203.835 574.172 208.138C572.845 208.138 571.518 208.138 570.151 208.138C570.151 199.125 570.151 190.113 570.151 180.827Z" fill="#F1F0F2"/>
<path d="M480.367 180.494C481.583 180.494 482.8 180.494 484.053 180.494C484.053 188.518 484.053 196.541 484.053 204.808C487.259 204.808 490.465 204.808 493.768 204.808C493.768 205.797 493.768 206.786 493.768 207.805C489.346 207.805 484.924 207.805 480.367 207.805C480.367 198.793 480.367 189.78 480.367 180.494Z" fill="#F7F6F8"/>
<path d="M532.301 195.148C533.144 195.121 533.987 195.093 534.855 195.065C535.248 195.047 535.248 195.047 535.648 195.028C537.764 194.995 538.882 195.799 540.467 197.167C541.309 198.681 541.259 200.12 541.012 201.809C540.276 203.325 539.52 204.101 537.996 204.807C537.007 204.924 536.038 204.901 535.044 204.869C533.686 204.839 533.686 204.839 532.301 204.807C532.301 201.62 532.301 198.432 532.301 195.148Z" fill="#100E21"/>
<path d="M632.812 183.825C638.387 183.825 638.387 183.825 640.496 185.699C641.386 187.145 641.459 188.168 641.187 189.82C640.611 191.388 639.766 192.388 638.507 193.484C636.703 194.082 634.713 193.817 632.812 193.817C632.812 190.52 632.812 187.222 632.812 183.825Z" fill="#0B0A1C"/>
<path d="M532.301 183.825C536.838 183.825 536.838 183.825 538.331 185.157C538.511 185.304 538.692 185.451 538.877 185.602C539.652 186.537 539.471 187.487 539.433 188.651C539.302 189.781 538.987 190.555 538.331 191.485C536.622 192.664 534.265 192.188 532.301 192.152C532.301 189.404 532.301 186.656 532.301 183.825Z" fill="#0E0C1E"/>
<path d="M764.817 202.66C766.02 202.925 766.817 203.329 767.166 204.474C767.508 205.596 767.314 206.626 766.475 207.451C765.602 208.309 764.215 208.345 763.146 207.805C761.955 207.203 761.614 206.443 761.659 205.119C761.728 203.085 762.719 202.545 764.817 202.66Z" fill="#F6F4F8"/>
</svg>
