<svg width="155" height="42" viewBox="0 0 155 42" fill="none" xmlns="http://www.w3.org/2000/svg">
<path d="M31.2313 0C31.3648 0.03315 31.3648 0.03315 31.5011 0.0669698C31.6144 0.475478 31.6755 0.872995 31.7182 1.29414C31.7252 1.35991 31.7322 1.42568 31.7393 1.49344C31.7615 1.70296 31.783 1.91253 31.8046 2.1221C31.8191 2.2594 31.8336 2.3967 31.8481 2.53399C31.9165 3.18347 31.9817 3.83315 32.0431 4.48331C32.096 5.04404 32.157 5.6035 32.2221 6.16296C32.3322 7.11283 32.4275 8.06301 32.5043 9.01612C32.5544 9.61826 32.625 10.2163 32.7021 10.8156C32.8025 11.5988 32.8897 12.3832 32.9766 13.1679C32.9942 13.3255 33.0117 13.4831 33.0293 13.6407C33.178 14.9768 33.3249 16.3131 33.4703 17.6495C33.5086 18.0014 33.5471 18.3532 33.5858 18.705C33.6676 19.4512 33.7487 20.1971 33.8066 20.9456C33.8347 21.2811 33.8783 21.6126 33.9287 21.9453C34.0915 23.0248 34.1891 24.1101 34.292 25.1965C34.4176 27.5628 35.2111 29.4332 35.4809 29.6006C35.764 29.7763 35.9113 29.8883 36.1554 30.0025C36.2065 30.0269 36.2577 30.0513 36.3104 30.0765C36.8212 30.2986 37.368 30.4129 37.9092 30.5382C37.9092 30.6487 37.9092 30.7592 37.9092 30.8731C35.6165 30.8731 33.3237 30.8731 30.9614 30.8731C31.0248 30.6215 31.1017 30.4705 31.2355 30.2557C31.7971 29.1963 31.3106 27.2506 31.1765 26.1098C31.148 25.857 31.1198 25.604 31.0918 25.3511C31.0734 25.1857 31.0549 25.0202 31.0363 24.8548C30.9658 24.226 30.9047 23.5969 30.8518 22.9664C30.805 22.413 30.7563 21.8601 30.699 21.3076C30.6937 21.2563 30.6884 21.2049 30.6829 21.152C30.6718 21.0453 30.6607 20.9386 30.6496 20.832C30.5342 19.7213 30.4369 18.6099 30.3461 17.497C30.2295 16.0669 30.0994 14.6402 29.9368 13.2145C29.9229 13.0924 29.909 12.9703 29.8951 12.8483C29.8883 12.7886 29.8815 12.729 29.8746 12.6676C29.8252 12.2284 29.7816 11.7888 29.7407 11.3488C29.7348 11.2853 29.7288 11.2219 29.7227 11.1565C29.695 10.857 29.6678 10.5575 29.6415 10.2579C29.5761 9.5326 29.4732 8.81983 29.3426 8.10334C29.2758 8.08124 29.209 8.05914 29.1402 8.03637C28.7706 8.75886 28.4192 9.48755 28.082 10.2254C28.0349 10.3281 27.9878 10.4307 27.9407 10.5334C27.6115 11.2512 27.2866 11.9709 26.9627 12.6911C26.6828 13.3122 26.3954 13.9296 26.1056 14.5462C25.8217 15.151 25.5431 15.758 25.2658 16.3657C24.9279 17.1062 24.5858 17.8445 24.2385 18.5807C23.897 19.3048 23.5584 20.0303 23.2211 20.7564C23.1957 20.8111 23.1704 20.8657 23.1442 20.9219C23.0145 21.2013 22.8847 21.4806 22.755 21.76C22.5177 22.2711 22.2801 22.7821 22.0425 23.293C21.9149 23.5676 21.7873 23.8421 21.6596 24.1167C21.6116 24.22 21.5636 24.3233 21.5156 24.4266C21.493 24.4751 21.4705 24.5236 21.4473 24.5735C21.1695 25.171 21.1695 25.171 21.0724 25.38C21.01 25.5142 20.9476 25.6485 20.8852 25.7827C20.7089 26.1619 20.5326 26.541 20.3561 26.9201C20.2502 27.1476 20.1444 27.3752 20.0385 27.6027C19.9851 27.7175 19.9317 27.8322 19.8782 27.947C19.6306 28.4789 19.3829 29.0108 19.1412 29.5454C19.1103 29.6136 19.0795 29.6818 19.0477 29.752C18.9936 29.8718 18.9068 29.9797 18.8534 30.0998L18.3138 31.074L18.044 30.7056L17.6385 30.0998C17.6385 30.0998 17.6055 30.0359 17.5719 29.9707C17.4998 29.8308 17.4283 29.6906 17.3568 29.5504C17.3062 29.452 17.2557 29.3537 17.205 29.2553C17.0995 29.0502 16.9941 28.845 16.8888 28.6397C16.7325 28.3354 16.5751 28.0318 16.4172 27.7284C16.3792 27.6554 16.3792 27.6554 16.3405 27.581C16.2428 27.3932 16.1451 27.2053 16.0473 27.0175C15.7615 26.4683 15.4795 25.9174 15.2017 25.3641C15.042 25.0458 14.8814 24.7279 14.7208 24.4101C14.5797 24.1306 14.4387 23.8512 14.2977 23.5717C14.1941 23.3664 14.0905 23.1612 13.9868 22.956C13.4794 21.9521 12.9789 20.9453 12.4946 19.9302C12.4147 19.7627 12.3346 19.5954 12.2544 19.4281C11.3388 17.5178 10.4378 15.6017 9.56541 13.6716C9.32209 13.1333 9.0785 12.5952 8.83228 12.0582C8.81061 12.011 8.78894 11.9637 8.76662 11.915C8.66164 11.6862 8.55651 11.4575 8.45123 11.2288C8.24999 10.791 8.05174 10.3522 7.85893 9.91074C7.82142 9.82527 7.78391 9.73979 7.74639 9.65432C7.67666 9.49492 7.60752 9.33526 7.53909 9.1753C7.50847 9.1054 7.47785 9.0355 7.4463 8.96349C7.41989 8.90215 7.39348 8.84081 7.36627 8.77762C7.29269 8.61704 7.29269 8.61704 7.08268 8.57213C6.87817 8.69157 6.82196 8.74597 6.74541 8.97395C6.73122 9.11689 6.7204 9.26016 6.71116 9.4035C6.70465 9.49963 6.69812 9.59575 6.69156 9.69188C6.68804 9.74472 6.68451 9.79755 6.68088 9.85199C6.57953 11.3552 6.44716 12.8558 6.31539 14.3566C6.30489 14.4764 6.29439 14.5961 6.28389 14.7159C6.24205 15.1928 6.2002 15.6697 6.15828 16.1466C6.07135 17.1362 5.98634 18.1259 5.90224 19.1157C5.8759 19.4251 5.84954 19.7345 5.82319 20.0438C5.81641 20.1235 5.80963 20.2031 5.80264 20.2852C5.71168 21.3532 5.62057 22.4212 5.52907 23.4892C5.50232 23.8015 5.4756 24.1138 5.44898 24.4261C5.42394 24.7198 5.39881 25.0135 5.37359 25.3071C5.36427 25.416 5.35499 25.5248 5.34574 25.6336C5.33295 25.784 5.32003 25.9344 5.30707 26.0848C5.29985 26.1692 5.29263 26.2537 5.28519 26.3407C5.26808 26.518 5.2485 26.6938 5.22566 26.8704C5.17539 27.2708 5.17366 27.6714 5.17035 28.0743C5.16923 28.1737 5.16739 28.2731 5.16482 28.3725C5.14991 28.9546 5.13903 29.4624 5.53124 29.9355C6.15294 30.5793 7.18876 30.5718 8.02704 30.6052C8.02704 30.7157 8.02704 30.8262 8.02704 30.94C5.37812 30.94 2.72919 30.94 0 30.94C0 30.8516 0 30.7632 0 30.6722C0.212793 30.6017 0.379386 30.5937 0.602871 30.5843C1.20951 30.5399 1.81963 30.4169 2.26709 29.9802C2.90528 29.2202 2.8812 27.9764 2.96935 27.0356C3.00386 26.6679 3.04021 26.3003 3.07628 25.9327C3.08379 25.8557 3.0913 25.7788 3.09904 25.6994C3.17948 24.8782 3.26652 24.0577 3.35508 23.2373C3.37215 23.079 3.38916 22.9207 3.4061 22.7624C3.49801 21.9034 3.59609 21.0457 3.70571 20.1887C3.78074 19.6015 3.84793 19.0135 3.91234 18.4251C3.93335 18.2341 3.95445 18.0431 3.97558 17.8522C3.98104 17.8026 3.98651 17.7531 3.99214 17.7021C4.02459 17.4096 4.05815 17.1173 4.09273 16.825C4.22126 15.7379 4.33632 14.6497 4.44742 13.5607C4.59893 12.0761 4.75486 10.5923 4.92806 9.1101C5.03468 8.19696 5.13026 7.28348 5.21584 6.36815C5.26556 5.84021 5.32228 5.31305 5.37872 4.78579C5.43033 4.30258 5.48092 3.81927 5.53124 3.33593C5.5371 3.27975 5.54295 3.22357 5.54899 3.16568C5.62846 2.40108 5.70282 1.63659 5.76087 0.870035C5.78191 0.597614 5.80444 0.333581 5.86851 0.0669698C6.08049 0.0866889 6.1785 0.103689 6.32303 0.263955C6.61881 0.752886 6.87922 1.25462 7.13077 1.76679C7.23125 1.96971 7.33341 2.17176 7.43576 2.37376C7.90285 3.29569 8.35995 4.22161 8.80606 5.15376C8.96943 5.49393 9.1345 5.83329 9.29963 6.17262C9.35945 6.29554 9.41923 6.41848 9.479 6.54142C9.68626 6.96756 9.89409 7.39343 10.1026 7.81898C10.5485 8.72984 10.9878 9.64297 11.415 10.5627C11.6633 11.096 11.9175 11.6262 12.1755 12.155C12.6646 13.1584 13.1357 14.1697 13.6059 15.1819C14.1379 16.3325 14.1379 16.3325 14.6989 17.4694C15.1683 18.3884 15.6082 19.3226 16.0552 20.2524C16.7355 21.6671 17.4215 23.079 18.1249 24.4825C18.1716 24.5758 18.2183 24.6692 18.2649 24.7626C18.3297 24.8926 18.395 25.0224 18.4603 25.1521C18.4972 25.2257 18.5836 25.38 18.5836 25.38L19.0221 26.1182L19.1442 25.877C19.2247 25.6487 19.3207 25.439 19.4281 25.222C19.448 25.1816 19.4678 25.1413 19.4883 25.0997C19.531 25.0129 19.5738 24.9261 19.6167 24.8394C19.7326 24.605 19.8476 24.3702 19.9625 24.1353C19.9858 24.0875 20.0092 24.0397 20.0333 23.9905C20.34 23.3625 20.6344 22.7289 20.9287 22.095C21.0909 21.7457 21.254 21.3969 21.4172 21.0481C21.9599 19.8884 22.4998 18.7276 23.0313 17.5629C23.3452 16.8754 23.6621 16.1892 23.9799 15.5035C24.343 14.7202 24.7045 13.9363 25.0634 13.1512C25.1049 13.0605 25.1464 12.9697 25.1879 12.879C25.2085 12.834 25.2291 12.789 25.2503 12.7427C25.9109 11.2985 26.5732 9.85538 27.2561 8.4213C27.6278 7.64031 27.9907 6.85572 28.3495 6.06883C28.3914 5.97702 28.4333 5.88521 28.4751 5.79341C28.496 5.74753 28.517 5.70166 28.5385 5.65439C28.9157 4.82794 29.2987 4.00412 29.6811 3.18001C29.8266 2.86614 29.9714 2.55192 30.1156 2.23747C30.4648 1.47817 30.8197 0.728266 31.2313 0Z" fill="#F8F7FB"/>
<path d="M147.925 0.0378418C148.059 0.0709918 148.059 0.0709918 148.195 0.104812C148.308 0.51332 148.37 0.910837 148.412 1.33198C148.419 1.39775 148.426 1.46352 148.433 1.53128C148.456 1.7408 148.477 1.95037 148.499 2.15995C148.513 2.29725 148.528 2.43454 148.542 2.57184C148.611 3.22131 148.676 3.87099 148.737 4.52115C148.79 5.08188 148.851 5.64135 148.916 6.2008C149.026 7.15067 149.122 8.10085 149.198 9.05396C149.249 9.65611 149.319 10.2542 149.396 10.8535C149.497 11.6366 149.584 12.4211 149.671 13.2058C149.688 13.3634 149.706 13.521 149.723 13.6786C149.872 15.0147 150.019 16.3509 150.164 17.6874C150.203 18.0392 150.241 18.391 150.28 18.7428C150.362 19.489 150.443 20.2349 150.501 20.9834C150.529 21.3189 150.572 21.6504 150.623 21.9832C150.786 23.0626 150.883 24.1479 150.986 25.2343C151.112 27.6006 151.905 29.4711 152.175 29.6385C152.458 29.8142 152.605 29.9262 152.85 30.0403C152.901 30.0647 152.952 30.0892 153.004 30.1143C153.515 30.3364 154.062 30.4507 154.603 30.5761C154.603 30.6866 154.603 30.7971 154.603 30.9109C152.311 30.9109 150.018 30.9109 147.656 30.9109C147.719 30.6594 147.796 30.5083 147.93 30.2935C148.491 29.2341 148.005 27.2884 147.871 26.1477C147.842 25.8948 147.814 25.6419 147.786 25.3889C147.767 25.2235 147.749 25.0581 147.73 24.8926C147.66 24.2638 147.599 23.6348 147.546 23.0043C147.499 22.4509 147.45 21.8979 147.393 21.3455C147.388 21.2941 147.382 21.2427 147.377 21.1898C147.366 21.0831 147.355 20.9765 147.344 20.8698C147.228 19.7592 147.131 18.6477 147.04 17.5348C146.924 16.1047 146.793 14.678 146.631 13.2524C146.617 13.1303 146.603 13.0082 146.589 12.8861C146.582 12.8265 146.576 12.7669 146.569 12.7054C146.519 12.2662 146.476 11.8267 146.435 11.3866C146.429 11.3231 146.423 11.2597 146.417 11.1943C146.389 10.8948 146.362 10.5953 146.336 10.2957C146.27 9.57045 146.167 8.85767 146.037 8.14118C145.97 8.11908 145.903 8.09698 145.834 8.07421C145.465 8.79671 145.113 9.52539 144.776 10.2633C144.729 10.3659 144.682 10.4686 144.635 10.5712C144.306 11.2891 143.981 12.0088 143.657 12.729C143.377 13.3501 143.089 13.9675 142.8 14.584C142.516 15.1888 142.237 15.7958 141.96 16.4036C141.622 17.144 141.28 17.8823 140.933 18.6185C140.591 19.3427 140.252 20.0681 139.915 20.7943C139.89 20.8489 139.864 20.9035 139.838 20.9598C139.709 21.2391 139.579 21.5185 139.449 21.7979C139.212 22.3089 138.974 22.8199 138.737 23.3309C138.609 23.6054 138.481 23.88 138.354 24.1545C138.306 24.2578 138.258 24.3611 138.21 24.4644C138.187 24.5129 138.165 24.5614 138.141 24.6114C137.864 25.2088 137.864 25.2088 137.766 25.4178C137.704 25.5521 137.642 25.6863 137.579 25.8206C137.403 26.1997 137.227 26.5788 137.05 26.9579C136.944 27.1855 136.838 27.413 136.733 27.6406C136.679 27.7553 136.626 27.8701 136.572 27.9848C136.325 28.5167 136.077 29.0487 135.835 29.5833C135.804 29.6515 135.774 29.7196 135.742 29.7899C135.688 29.9097 135.601 30.0175 135.548 30.1376L135.008 31.1118L134.738 30.7435L134.333 30.1376C134.333 30.1376 134.3 30.0737 134.266 30.0086C134.194 29.8686 134.122 29.7284 134.051 29.5883C134 29.4899 133.95 29.3915 133.899 29.2932C133.794 29.088 133.688 28.8828 133.583 28.6775C133.427 28.3733 133.269 28.0696 133.111 27.7662C133.073 27.6933 133.073 27.6933 133.035 27.6189C132.937 27.431 132.839 27.2432 132.741 27.0554C132.456 26.5061 132.174 25.9552 131.896 25.4019C131.736 25.0836 131.575 24.7658 131.415 24.4479C131.274 24.1685 131.133 23.889 130.992 23.6095C130.888 23.4043 130.785 23.199 130.681 22.9939C130.174 21.9899 129.673 20.9832 129.189 19.968C129.109 19.8005 129.029 19.6332 128.948 19.4659C128.033 17.5556 127.132 15.6396 126.26 13.7095C126.016 13.1712 125.773 12.633 125.526 12.0961C125.505 12.0488 125.483 12.0016 125.461 11.9529C125.356 11.724 125.251 11.4953 125.145 11.2666C124.944 10.8289 124.746 10.3901 124.553 9.94858C124.516 9.86311 124.478 9.77764 124.44 9.69217C124.371 9.53276 124.302 9.3731 124.233 9.21314C124.203 9.14324 124.172 9.07334 124.14 9.00133C124.114 8.93999 124.088 8.87866 124.06 8.81546C123.987 8.65489 123.987 8.65489 123.777 8.60997C123.572 8.72941 123.516 8.78381 123.44 9.01179C123.425 9.15473 123.414 9.298 123.405 9.44134C123.399 9.53747 123.392 9.6336 123.386 9.72972C123.382 9.78256 123.379 9.8354 123.375 9.88983C123.274 11.3931 123.141 12.8937 123.009 14.3945C122.999 14.5142 122.988 14.634 122.978 14.7537C122.936 15.2306 122.894 15.7075 122.852 16.1844C122.765 17.174 122.68 18.1637 122.596 19.1535C122.57 19.4629 122.544 19.7723 122.517 20.0817C122.51 20.1613 122.504 20.241 122.497 20.323C122.406 21.391 122.315 22.4591 122.223 23.527C122.196 23.8393 122.17 24.1516 122.143 24.4639C122.118 24.7576 122.093 25.0513 122.068 25.345C122.058 25.4538 122.049 25.5626 122.04 25.6714C122.027 25.8218 122.014 25.9722 122.001 26.1226C121.994 26.2071 121.987 26.2915 121.979 26.3785C121.962 26.5559 121.943 26.7316 121.92 26.9082C121.869 27.3086 121.868 27.7092 121.864 28.1121C121.863 28.2115 121.861 28.311 121.859 28.4103C121.844 28.9924 121.833 29.5003 122.225 29.9733C122.847 30.6171 123.883 30.6096 124.721 30.643C124.721 30.7535 124.721 30.864 124.721 30.9779C122.072 30.9779 119.423 30.9779 116.694 30.9779C116.694 30.8895 116.694 30.8011 116.694 30.71C116.907 30.6396 117.073 30.6315 117.297 30.6221C117.904 30.5778 118.514 30.4548 118.961 30.0181C119.599 29.2581 119.575 28.0142 119.663 27.0734C119.698 26.7057 119.734 26.3382 119.77 25.9706C119.778 25.8936 119.785 25.8166 119.793 25.7373C119.874 24.9161 119.961 24.0956 120.049 23.2752C120.066 23.1169 120.083 22.9586 120.1 22.8003C120.192 21.9413 120.29 21.0835 120.4 20.2266C120.475 19.6393 120.542 19.0514 120.606 18.4629C120.627 18.2719 120.649 18.081 120.67 17.89C120.675 17.8405 120.681 17.7909 120.686 17.7399C120.719 17.4474 120.752 17.1551 120.787 16.8629C120.915 15.7757 121.03 14.6875 121.142 13.5985C121.293 12.1139 121.449 10.6302 121.622 9.14794C121.729 8.2348 121.824 7.32133 121.91 6.40599C121.96 5.87805 122.016 5.35089 122.073 4.82363C122.124 4.34042 122.175 3.85711 122.225 3.37377C122.231 3.31759 122.237 3.26141 122.243 3.20352C122.323 2.43892 122.397 1.67443 122.455 0.907877C122.476 0.635455 122.499 0.371423 122.563 0.104812C122.775 0.124531 122.873 0.14153 123.017 0.301797C123.313 0.790728 123.573 1.29246 123.825 1.80463C123.925 2.00755 124.028 2.2096 124.13 2.41161C124.597 3.33353 125.054 4.25946 125.5 5.1916C125.664 5.53177 125.829 5.87113 125.994 6.21046C126.054 6.33338 126.113 6.45632 126.173 6.57927C126.38 7.00541 126.588 7.43127 126.797 7.85682C127.243 8.76768 127.682 9.68081 128.109 10.6005C128.357 11.1339 128.612 11.6641 128.87 12.1929C129.359 13.1962 129.83 14.2076 130.3 15.2197C130.832 16.3704 130.832 16.3704 131.393 17.5072C131.862 18.4262 132.302 19.3604 132.749 20.2903C133.43 21.7049 134.116 23.1168 134.819 24.5203C134.866 24.6137 134.912 24.707 134.959 24.8005C135.024 24.9304 135.089 25.0602 135.154 25.19C135.191 25.2636 135.278 25.4178 135.278 25.4178L135.716 26.1561L135.838 25.9149C135.919 25.6865 136.015 25.4769 136.122 25.2598C136.142 25.2195 136.162 25.1791 136.182 25.1375C136.225 25.0507 136.268 24.964 136.311 24.8773C136.427 24.6429 136.542 24.408 136.657 24.1731C136.68 24.1254 136.703 24.0776 136.727 24.0284C137.034 23.4003 137.329 22.7667 137.623 22.1328C137.785 21.7836 137.948 21.4347 138.111 21.086C138.654 19.9263 139.194 18.7655 139.725 17.6007C140.039 16.9132 140.356 16.2271 140.674 15.5413C141.037 14.7581 141.399 13.9741 141.758 13.189C141.799 13.0983 141.841 13.0076 141.882 12.9168C141.903 12.8719 141.923 12.8269 141.944 12.7806C142.605 11.3363 143.267 9.89322 143.95 8.45914C144.322 7.67815 144.685 6.89356 145.044 6.10667C145.085 6.01486 145.127 5.92306 145.169 5.83125C145.19 5.78537 145.211 5.7395 145.233 5.69223C145.61 4.86578 145.993 4.04196 146.375 3.21785C146.521 2.90398 146.665 2.58976 146.81 2.27531C147.159 1.51601 147.514 0.766108 147.925 0.0378418Z" fill="#F8F7FB"/>
<path d="M69.5481 0.871338C72.6422 0.871338 75.7363 0.871338 78.9242 0.871338C78.9242 0.981838 78.9242 1.09234 78.9242 1.20619C78.8412 1.21275 78.7583 1.21931 78.6728 1.22607C78.5627 1.23612 78.4525 1.24624 78.3424 1.25641C78.2879 1.26056 78.2334 1.2647 78.1772 1.26897C77.7336 1.31194 77.3944 1.45863 77.1029 1.80891C76.9534 2.25422 76.9705 2.65548 77.1772 3.08244C77.2745 3.26915 77.3753 3.45377 77.4772 3.63803C77.5921 3.84923 77.7026 4.06256 77.8125 4.27633C78.2486 5.12331 78.6932 5.96417 79.164 6.79277C79.2818 7.00161 79.3981 7.21126 79.5142 7.42103C80.015 8.32587 80.5205 9.22755 81.0394 10.1224C81.1672 10.3435 81.2942 10.5651 81.421 10.7868C81.4928 10.9119 81.5645 11.037 81.6362 11.1621C81.704 11.2805 81.7718 11.3991 81.8395 11.5176C82.1058 11.9815 82.3816 12.4371 82.6694 12.8881C82.7691 13.0598 82.7691 13.0598 82.7691 13.1938C83.0537 12.9316 83.2618 12.6497 83.4731 12.3274C83.5079 12.2749 83.5427 12.2224 83.5786 12.1683C84.3621 10.982 85.117 9.77722 85.872 8.57286C85.9105 8.51145 85.9491 8.45004 85.9888 8.38677C86.4895 7.58853 86.9819 6.78575 87.4672 5.97818C87.551 5.83925 87.6354 5.70071 87.7201 5.56236C88.8655 3.87197 88.8655 3.87197 89.1772 1.94285C89.083 1.6895 88.9519 1.60277 88.7148 1.46936C88.3242 1.30123 87.9483 1.24959 87.5288 1.2313C87.4795 1.22871 87.4301 1.22612 87.3793 1.22345C87.2591 1.21721 87.1389 1.21163 87.0187 1.20619C86.9964 1.09569 86.9742 0.985186 86.9512 0.871338C89.6002 0.871338 92.2491 0.871338 94.9783 0.871338C94.9783 0.981838 94.9783 1.09234 94.9783 1.20619C94.9352 1.20884 94.8921 1.2115 94.8476 1.21423C93.6394 1.29254 92.7033 1.37111 91.8561 2.31564C91.3061 3.00035 90.8356 3.74713 90.3515 4.47824C90.1661 4.75813 89.9803 5.03779 89.7946 5.3175C89.5391 5.70241 89.2836 6.08734 89.0282 6.47234C88.3844 7.44277 87.7369 8.41063 87.0861 9.3765C86.3218 10.5112 85.5597 11.6474 84.8107 12.7922C84.6511 13.0356 84.4888 13.2772 84.325 13.5179C84.249 13.6317 84.173 13.7455 84.0971 13.8593C84.0623 13.9091 84.0275 13.959 83.9916 14.0104C83.9613 14.0564 83.931 14.1025 83.8997 14.1499C83.8733 14.1888 83.8468 14.2276 83.8195 14.2676C83.7425 14.5299 83.8947 14.7602 84.0141 14.9912C84.0522 15.0565 84.0903 15.1219 84.1295 15.1893C84.1725 15.2636 84.2156 15.3379 84.2599 15.4145C84.3068 15.4947 84.3537 15.5748 84.4006 15.6549C84.4494 15.7388 84.4981 15.8227 84.5469 15.9067C84.6471 16.0793 84.7475 16.2517 84.8481 16.4241C84.9839 16.6568 85.1188 16.89 85.2535 17.1233C85.7204 17.9309 86.194 18.7343 86.6732 19.5347C87.0041 20.0875 87.3324 20.6417 87.6595 21.1967C88.0726 21.8975 88.4883 22.5967 88.9059 23.2949C89.2115 23.8062 89.5148 24.3188 89.8171 24.8321C91.1281 27.2543 91.1281 27.2543 92.8197 29.4005C92.8739 29.4564 92.8739 29.4564 92.9291 29.5135C93.7882 30.3302 94.9966 30.4943 96.125 30.6059C96.125 30.7164 96.125 30.8269 96.125 30.9408C94.4867 30.9471 92.8489 30.9295 91.2107 30.9097C90.866 30.9056 90.5213 30.9016 90.1766 30.8976C89.5062 30.8898 88.8358 30.8818 88.1654 30.8738C88.1654 30.8075 88.1654 30.7412 88.1654 30.6729C88.2787 30.5894 88.2787 30.5894 88.4268 30.5096C88.6522 30.3881 88.7411 30.3051 88.8399 30.0702C88.9371 29.5628 88.7341 29.1887 88.49 28.7559C88.4536 28.6891 88.4172 28.6223 88.3797 28.5535C88.2648 28.3439 88.148 28.1354 88.0305 27.9271C87.9941 27.8622 87.9577 27.7973 87.9202 27.7305C87.7038 27.3452 87.4845 26.9617 87.264 26.5788C87.0815 26.2614 86.9004 25.9432 86.7194 25.625C86.6834 25.5619 86.6474 25.4988 86.6103 25.4337C86.4199 25.0995 86.2305 24.7647 86.0424 24.4293C85.5625 23.5735 85.0707 22.7262 84.5663 21.8844C83.9944 20.9272 83.4353 19.9627 82.881 18.9954C82.5691 18.4511 82.2515 17.9114 81.9196 17.3789C81.8247 17.212 81.8247 17.212 81.8247 17.078C81.6103 17.2598 81.4932 17.493 81.361 17.7352C81.114 18.1792 80.8588 18.6176 80.5979 19.0536C80.2851 19.577 79.9745 20.1015 79.6662 20.6274C79.4027 21.0768 79.1381 21.5255 78.8707 21.9725C78.4542 22.6689 78.0472 23.3704 77.6437 24.0743C77.3516 24.5834 77.0558 25.0903 76.7572 25.5957C76.4297 26.1522 76.1042 26.7097 75.7834 27.27C75.7448 27.3363 75.7062 27.4027 75.6665 27.4711C75.3235 28.0742 74.9581 28.7248 74.9781 29.4339C74.9792 29.5469 74.9792 29.5469 74.9802 29.6621C75.0282 29.9763 75.1492 30.1474 75.3871 30.3548C75.6573 30.5474 75.8765 30.5585 76.2007 30.5766C76.2484 30.5795 76.296 30.5824 76.3451 30.5854C76.4628 30.5925 76.5805 30.5992 76.6982 30.6059C76.6982 30.7164 76.6982 30.8269 76.6982 30.9408C74.2719 30.9408 71.8456 30.9408 69.3457 30.9408C69.3457 30.8082 69.3457 30.6756 69.3457 30.5389C69.4626 30.5327 69.4626 30.5327 69.5818 30.5264C70.7929 30.3896 71.6784 29.867 72.4301 28.9314C72.709 28.5665 72.9571 28.1818 73.2075 27.7974C73.2643 27.7106 73.3212 27.6238 73.3781 27.5371C73.7197 27.0155 74.0573 26.4914 74.3902 25.9642C74.6272 25.5891 74.8692 25.2173 75.113 24.8465C75.5015 24.2554 75.8825 23.6599 76.2608 23.0624C76.395 22.8506 76.5297 22.639 76.6643 22.4274C76.7319 22.3212 76.7996 22.2148 76.8672 22.1085C77.0337 21.8465 77.2005 21.5847 77.368 21.3233C77.7751 20.687 78.174 20.0462 78.5676 19.4015C78.8329 18.9673 79.101 18.5348 79.3711 18.1035C79.7649 17.4741 80.1528 16.8411 80.5318 16.2027C80.5969 16.0958 80.6671 15.9921 80.7386 15.8893C80.8243 15.7439 80.8243 15.7439 80.8116 15.5872C80.7127 15.313 80.5732 15.0668 80.4293 14.8136C80.3963 14.7549 80.3634 14.6963 80.3294 14.6358C79.9162 13.9037 79.4875 13.1805 79.0591 12.4571C78.8936 12.1774 78.7282 11.8976 78.5629 11.6178C78.5142 11.5355 78.4656 11.4532 78.4169 11.3709C78.0718 10.7871 77.7296 10.2018 77.3896 9.61508C76.7011 8.42746 75.9956 7.25012 75.2838 6.07614C75.1162 5.7996 74.9498 5.52249 74.7843 5.24469C73.4443 2.78373 73.4443 2.78373 71.1124 1.40736C70.5942 1.29729 70.077 1.23455 69.5481 1.20619C69.5481 1.09569 69.5481 0.985186 69.5481 0.871338Z" fill="#F9F8FB"/>
<path d="M100.574 0.871338C103.446 0.871338 106.317 0.871338 109.276 0.871338C109.276 0.981838 109.276 1.09234 109.276 1.20619C109.148 1.3334 108.911 1.28816 108.74 1.29408C108.124 1.32889 107.667 1.43168 107.227 1.88007C106.573 2.682 106.557 3.76976 106.56 4.75655C106.56 4.84794 106.56 4.93934 106.559 5.03073C106.559 5.2794 106.559 5.52806 106.559 5.77673C106.559 6.04596 106.559 6.31519 106.558 6.58443C106.557 7.11128 106.557 7.63813 106.557 8.16498C106.557 8.59423 106.557 9.02348 106.557 9.45273C106.557 9.51403 106.557 9.57534 106.557 9.6385C106.557 9.76309 106.557 9.88768 106.557 10.0123C106.556 11.1797 106.556 12.3472 106.556 13.5146C106.557 14.5775 106.556 15.6404 106.555 16.7032C106.553 17.7986 106.553 18.894 106.553 19.9894C106.553 20.6027 106.553 21.216 106.552 21.8293C106.551 22.3523 106.551 22.8753 106.552 23.3983C106.552 23.664 106.553 23.9298 106.552 24.1955C106.549 25.272 106.574 26.3404 106.664 27.4136C106.667 27.4605 106.671 27.5075 106.675 27.5558C106.741 28.3893 106.85 29.39 107.513 29.9815C108.361 30.6016 109.347 30.5903 110.355 30.6059C110.355 30.7385 110.355 30.8711 110.355 31.0077C110.175 31.0096 109.995 31.0109 109.815 31.0119C109.767 31.0125 109.718 31.013 109.667 31.0136C109.338 31.015 109.014 30.9991 108.686 30.9742C107.903 30.9215 107.118 30.9325 106.333 30.9342C106.168 30.9343 106.003 30.9344 105.839 30.9345C105.408 30.9348 104.978 30.9354 104.548 30.9362C104.107 30.9369 103.667 30.9372 103.227 30.9375C102.365 30.9382 101.503 30.9393 100.642 30.9408C100.642 30.8303 100.642 30.7198 100.642 30.6059C100.702 30.5989 100.702 30.5989 100.764 30.5917C100.95 30.5696 101.135 30.5459 101.32 30.5222C101.384 30.5149 101.448 30.5075 101.513 30.5C101.917 30.4468 102.53 30.2041 102.53 30.2041C102.575 30.2041 102.665 30.1371 102.665 30.1371C102.684 30.0994 102.703 30.0617 102.722 30.0228C102.774 29.9204 102.828 29.8187 102.882 29.7178C102.911 29.6642 102.939 29.6106 102.969 29.5553C102.997 29.5026 103.026 29.4498 103.055 29.3955C103.264 28.8973 103.307 28.3626 103.347 27.829C103.353 27.7537 103.359 27.6784 103.364 27.6008C103.429 26.6565 103.426 25.7117 103.424 24.7659C103.423 24.493 103.424 24.2202 103.424 23.9473C103.424 23.4156 103.424 22.8839 103.423 22.3522C103.423 21.7314 103.423 21.1106 103.423 20.4897C103.423 19.3817 103.422 18.2737 103.421 17.1656C103.42 16.093 103.42 15.0204 103.42 13.9477C103.42 13.8815 103.42 13.8153 103.42 13.7472C103.42 13.6811 103.42 13.615 103.42 13.5469C103.42 12.3211 103.419 11.0952 103.419 9.86934C103.419 9.43756 103.419 9.00578 103.419 8.57401C103.419 8.04773 103.418 7.52147 103.418 6.9952C103.417 6.72719 103.417 6.45918 103.417 6.19117C103.417 5.9452 103.417 5.69923 103.416 5.45326C103.416 5.32359 103.416 5.19393 103.417 5.06426C103.463 3.35516 103.463 3.35516 102.788 1.85502C102.35 1.45103 101.857 1.3454 101.278 1.28571C101.21 1.27764 101.142 1.26957 101.072 1.26125C100.906 1.24174 100.74 1.22341 100.574 1.20619C100.574 1.09569 100.574 0.985186 100.574 0.871338Z" fill="#FBFAFC"/>
<path d="M53.9609 0.0671387C54.1883 0.179985 54.2446 0.435101 54.3418 0.657959C54.3656 0.711934 54.3895 0.766411 54.4141 0.822021C54.6791 1.42944 54.9161 2.04718 55.1504 2.66675C55.1973 2.79009 55.244 2.91355 55.291 3.03687C55.41 3.34912 55.529 3.66193 55.6475 3.97437C55.7503 4.24533 55.8538 4.51703 55.957 4.78784C55.9955 4.88873 56.0338 4.98969 56.0723 5.09058C56.0911 5.14008 56.1104 5.18996 56.1299 5.24097C56.1875 5.39223 56.2451 5.54378 56.3027 5.69507C56.5974 6.46896 56.8937 7.24228 57.1904 8.01538C57.2129 8.07391 57.2356 8.13282 57.2588 8.19312C57.4868 8.78721 57.7149 9.3814 57.9434 9.97534C58.0565 10.2695 58.1692 10.564 58.2822 10.8582C58.3046 10.9163 58.3276 10.9741 58.3506 11.0339C58.6979 11.9383 59.0408 12.845 59.3818 13.7517C59.7469 14.7216 60.1217 15.6878 60.499 16.6531C60.7792 17.3701 61.0564 18.0878 61.3223 18.8103C61.7049 19.8481 62.1183 20.8741 62.5293 21.9011C62.7272 22.3958 62.9243 22.8913 63.1211 23.3865C63.1851 23.5475 63.2493 23.7089 63.3135 23.8699C63.5017 24.3423 63.6891 24.8154 63.8721 25.2898C64.1835 26.095 64.5126 26.8884 64.876 27.6716C64.9115 27.7486 64.9468 27.8257 64.9834 27.905C65.189 28.3406 65.4138 28.743 65.6982 29.1326C65.7392 29.1892 65.78 29.2461 65.8223 29.3044C66.3619 29.9502 67.1603 30.2834 67.9238 30.6052V30.8738H61.3809V30.74C61.4433 30.7014 61.506 30.6625 61.5703 30.6228C61.8224 30.4462 61.8941 30.3608 61.9883 30.0701C62.0355 29.6695 62.0258 29.3387 61.8691 28.9646C61.715 28.5901 61.5718 28.2119 61.4297 27.8328C61.373 27.6821 61.3164 27.5313 61.2598 27.3806C61.2302 27.302 61.2004 27.2234 61.1699 27.1423C60.6476 25.7534 60.1189 24.3663 59.5811 22.9832C58.8644 21.1392 58.8645 21.1391 58.54 20.2712C58.5142 20.2022 58.4876 20.1334 58.4609 20.0623C58.3406 19.7379 58.2397 19.4207 58.1436 19.0867C55.094 19.1088 52.0443 19.1313 48.9023 19.1541C48.3154 20.8605 47.7314 22.5666 47.166 24.28C47.0962 24.4913 47.026 24.7026 46.9561 24.9138C46.5202 26.2292 46.5203 26.2295 46.0938 27.5476C46.0782 27.5961 46.0629 27.6451 46.0469 27.6951C45.9387 28.0365 45.8418 28.3744 45.7988 28.7302C45.7893 28.8045 45.79 28.8048 45.7803 28.8806C45.7483 29.3514 45.9233 29.7606 46.2344 30.115C46.5948 30.436 47.0508 30.4999 47.5107 30.5808C47.5604 30.5898 47.61 30.5989 47.6611 30.6082C47.7824 30.63 47.9041 30.6511 48.0254 30.6726V30.8738C47.1892 30.8826 46.3528 30.8915 45.5166 30.9001C45.1281 30.9042 44.7391 30.9078 44.3506 30.9119C43.9746 30.9158 43.5986 30.9197 43.2227 30.9236C43.0805 30.9251 42.9381 30.9269 42.7959 30.9285C41.8408 30.9387 40.8858 30.942 39.9307 30.9402V30.6726C40.1952 30.6059 40.4589 30.5408 40.7256 30.4832C41.668 30.2726 42.5532 29.9666 43.0996 29.1277C43.5843 28.3305 43.9178 27.4649 44.2354 26.5916C44.2667 26.506 44.2977 26.4203 44.3291 26.3347C44.3988 26.1444 44.4687 25.9539 44.5381 25.7634C44.639 25.4863 44.7405 25.2094 44.8418 24.9324C45.3992 23.4085 45.9506 21.8823 46.499 20.3552C47.0017 18.9554 47.5051 17.5554 48.0332 16.1648C48.2557 15.5784 48.4703 14.9893 48.6826 14.3992C48.7848 14.1152 48.8877 13.8315 48.9902 13.5476C49.011 13.4902 49.0314 13.4319 49.0527 13.3728C49.2636 12.7892 49.4769 12.2064 49.6904 11.6238C49.7073 11.5778 49.7238 11.5315 49.7412 11.4841C50.0202 10.7224 50.0204 10.7223 50.1455 10.3933C50.2614 10.0871 50.3717 9.77885 50.4814 9.47046C50.5035 9.40866 50.5252 9.34663 50.5479 9.28296C50.5954 9.14951 50.6429 9.01603 50.6904 8.88257C50.7666 8.6686 50.8436 8.4549 50.9199 8.24097C51.1523 7.58929 51.384 6.93698 51.6152 6.28491C52.1129 4.8819 52.6155 3.48079 53.1299 2.08374C53.1835 1.93805 53.2366 1.79201 53.29 1.64624C53.3642 1.44408 53.4389 1.24173 53.5137 1.03979C53.5355 0.979957 53.5575 0.919805 53.5801 0.858154C53.685 0.576346 53.7917 0.318639 53.9609 0.0671387ZM53.3916 5.69312C52.8022 7.33336 52.1505 9.1212 51.626 10.783C51.2731 11.9021 50.9069 13.0169 50.5371 14.1306C50.3981 14.5491 50.2606 14.9682 50.124 15.3875C50.1 15.4612 50.076 15.5326 50.0527 15.6042C49.9752 15.8422 49.8983 16.0807 49.8223 16.3191C49.7972 16.398 49.7724 16.4749 49.748 16.5515C49.6087 16.9804 49.2773 17.8855 49.2773 17.8855L49.7891 17.8894C49.8494 17.8893 49.9082 17.8895 49.9668 17.8894C50.0359 17.8895 50.1029 17.8903 50.1699 17.8904C50.2461 17.8901 50.3206 17.8896 50.3945 17.8894C50.6419 17.8894 50.8893 17.8889 51.1367 17.8884C51.3138 17.8881 51.4909 17.8886 51.668 17.8884C52.1316 17.8883 52.596 17.8872 53.0596 17.8865C53.5402 17.8857 54.0213 17.8858 54.502 17.8855C55.5373 17.8848 56.7078 17.8871 57.7432 17.8855L57.5625 17.3923C57.5297 17.3091 57.5301 17.3085 57.498 17.2273C57.4725 17.1607 57.4476 17.0956 57.4229 17.031C57.3468 16.8324 57.2736 16.6326 57.2021 16.4324C57.1776 16.3632 57.1774 16.3624 57.1533 16.2947C57.1013 16.1486 57.049 16.0023 56.9971 15.8562C56.9783 15.8034 56.9596 15.7522 56.9414 15.7009C56.6363 14.8415 56.3403 13.9791 56.0518 13.114C55.4644 11.352 54.8535 9.5983 54.2139 7.85425C54.1981 7.81116 54.1833 7.76912 54.168 7.72729C54.01 7.29467 53.8476 6.86425 53.6699 6.43921C53.6427 6.37462 53.6419 6.3745 53.6152 6.31128L53.3916 5.69312Z" fill="#F9F9FC"/>
<path d="M105.769 36.2314C107.74 36.2314 107.74 36.2314 108.229 36.638C108.264 36.6834 108.3 36.7288 108.336 36.7756C108.391 36.8442 108.391 36.8442 108.448 36.9142C108.697 37.2628 108.635 37.6961 108.602 38.1066C108.539 38.3083 108.453 38.47 108.332 38.6424C108.293 38.6976 108.254 38.7529 108.214 38.8098C108.186 38.8429 108.158 38.8761 108.129 38.9102C108.178 38.924 108.227 38.9379 108.277 38.9521C108.595 39.1064 108.81 39.3894 108.939 39.7139C108.995 40.2385 109.012 40.7588 108.669 41.1872C108.415 41.4536 108.208 41.5847 107.86 41.723C107.17 41.723 106.48 41.723 105.769 41.723C105.769 39.9108 105.769 38.0986 105.769 36.2314Z" fill="#F9F9FA"/>
<path d="M138.74 36.2249C138.852 36.226 138.852 36.226 138.965 36.2272C139.04 36.2278 139.114 36.2284 139.191 36.229C139.249 36.2298 139.307 36.2306 139.366 36.2314C139.413 38.0846 139.444 39.9361 139.433 41.7899C139.189 41.7899 138.944 41.7899 138.691 41.7899C138.669 40.486 138.647 39.1821 138.624 37.8387C138.513 38.126 138.401 38.4133 138.287 38.7093C138.206 38.9123 138.124 39.115 138.042 39.3175C138.021 39.37 137.999 39.4225 137.977 39.4766C137.933 39.5858 137.888 39.695 137.844 39.8042C137.776 39.97 137.709 40.1359 137.642 40.3018C137.598 40.409 137.554 40.5162 137.511 40.6234C137.491 40.6721 137.471 40.7208 137.451 40.771C137.318 41.097 137.167 41.4098 137.005 41.7229C136.827 41.7229 136.649 41.7229 136.465 41.7229C136.223 41.1479 135.983 40.5718 135.747 39.9946C135.709 39.9025 135.671 39.8104 135.633 39.7184C135.576 39.5818 135.52 39.4451 135.464 39.3083C135.431 39.2286 135.398 39.1488 135.365 39.0667C135.206 38.6605 135.062 38.2489 134.914 37.8387C134.892 39.1205 134.869 40.4023 134.846 41.7229C134.602 41.7229 134.357 41.7229 134.104 41.7229C134.104 39.9328 134.104 38.1427 134.104 36.2984C134.394 36.2984 134.683 36.2984 134.981 36.2984C135.403 37.0988 135.746 37.9223 136.086 38.7595C136.169 38.962 136.251 39.1645 136.334 39.367C136.385 39.492 136.436 39.6171 136.487 39.7422C136.51 39.7982 136.533 39.8541 136.556 39.9118C136.576 39.961 136.596 40.0102 136.617 40.0609C136.653 40.1475 136.693 40.2327 136.735 40.3165C136.931 40.0901 137.025 39.8446 137.123 39.5673C137.442 38.6985 137.807 37.8501 138.177 37.0015C138.207 36.9331 138.237 36.8646 138.267 36.7941C138.295 36.7306 138.323 36.6672 138.351 36.6018C138.376 36.5449 138.401 36.488 138.427 36.4293C138.52 36.2327 138.52 36.2327 138.74 36.2249Z" fill="#F6F6F8"/>
<path d="M125.942 36.2986C128.197 36.2986 128.197 36.2986 128.657 36.698C128.693 36.7416 128.729 36.7852 128.767 36.8302C128.823 36.8953 128.823 36.8953 128.88 36.9617C129.158 37.3622 129.162 37.769 129.112 38.2407C128.992 38.6521 128.792 39.0467 128.415 39.2727C128.132 39.4208 127.954 39.5131 127.628 39.5131C128.019 40.0636 128.418 40.6058 128.834 41.1377C128.881 41.1983 128.929 41.2589 128.978 41.3213C129.017 41.3709 129.057 41.4204 129.098 41.4715C129.18 41.5892 129.18 41.5892 129.18 41.7231C128.858 41.815 128.546 41.8692 128.236 41.7231C127.883 41.3771 127.648 40.9275 127.403 40.5036C127.116 39.9709 127.116 39.9709 126.684 39.5801C126.684 40.3094 126.684 41.0387 126.684 41.7901C126.439 41.7901 126.194 41.7901 125.942 41.7901C125.942 39.9779 125.942 38.1657 125.942 36.2986Z" fill="#F8F7F9"/>
<path d="M146.442 36.2314C146.665 36.2314 146.888 36.2314 147.117 36.2314C147.273 36.3892 147.341 36.4848 147.437 36.6751C147.494 36.7745 147.55 36.8739 147.606 36.9731C147.636 37.0266 147.666 37.0802 147.696 37.1354C147.865 37.4318 148.053 37.7159 148.238 38.002C148.318 38.1263 148.398 38.2506 148.478 38.375C148.519 38.4393 148.561 38.5037 148.603 38.57C148.696 38.7148 148.789 38.8597 148.882 39.0046C149.007 39.1991 149.132 39.3935 149.257 39.5878C149.329 39.6999 149.401 39.812 149.473 39.9242C149.539 40.0258 149.539 40.0258 149.606 40.1296C149.644 40.19 149.683 40.2504 149.723 40.3126C149.804 40.4442 149.804 40.4442 149.883 40.5175C149.883 39.1031 149.883 37.6887 149.883 36.2314C150.127 36.2314 150.372 36.2314 150.625 36.2314C150.625 38.0436 150.625 39.8558 150.625 41.723C150.335 41.723 150.046 41.723 149.748 41.723C149.513 41.47 149.373 41.2792 149.208 40.9863C149.116 40.8412 149.025 40.6962 148.933 40.5513C148.839 40.3965 148.745 40.2416 148.652 40.0864C148.602 40.0042 148.552 39.9219 148.502 39.8397C148.378 39.6356 148.254 39.4312 148.131 39.2268C148.024 39.0497 147.917 38.8728 147.809 38.696C147.671 38.4681 147.533 38.2401 147.395 38.0119C147.369 37.9684 147.343 37.9249 147.316 37.8802C147.269 37.801 147.226 37.7198 147.184 37.6378C147.162 38.9859 147.14 40.334 147.117 41.723C146.894 41.723 146.672 41.723 146.442 41.723C146.442 39.9108 146.442 38.0986 146.442 36.2314Z" fill="#F7F7F9"/>
<path d="M122.47 36.5186C123.223 36.9387 123.771 37.5773 124.017 38.4102C124.168 39.1893 124.016 39.9727 123.59 40.643C123.52 40.7367 123.448 40.8289 123.375 40.9192C123.34 40.9619 123.305 41.0045 123.27 41.0485C122.913 41.4433 122.351 41.7488 121.814 41.8049C120.78 41.8543 120.04 41.7887 119.23 41.0825C118.574 40.3663 118.395 39.5088 118.439 38.5728C118.498 37.9032 118.913 37.2952 119.393 36.8419C120.288 36.1367 121.448 36.0129 122.47 36.5186ZM119.701 37.5639C119.294 38.1164 119.144 38.7072 119.192 39.3789C119.306 40.032 119.645 40.4742 120.143 40.8975C120.491 41.1377 120.786 41.2227 121.208 41.2164C121.256 41.2159 121.303 41.2153 121.353 41.2147C121.732 41.2025 121.994 41.1459 122.295 40.9192C122.341 40.8882 122.386 40.8572 122.433 40.8253C122.869 40.4938 123.177 40.0496 123.262 39.5033C123.331 38.7729 123.25 38.2109 122.786 37.6244C122.409 37.2073 121.963 36.951 121.402 36.8691C120.712 36.8385 120.172 37.0617 119.701 37.5639Z" fill="#F7F6F8"/>
<path d="M100.103 36.2314C100.37 36.2314 100.637 36.2314 100.912 36.2314C100.913 36.4225 100.913 36.4225 100.914 36.6175C100.917 37.0395 100.92 37.4616 100.925 37.8837C100.928 38.1394 100.93 38.3952 100.931 38.6509C100.932 38.898 100.934 39.1451 100.937 39.3922C100.938 39.4862 100.939 39.5802 100.939 39.6742C100.932 40.3798 100.932 40.3798 101.25 40.9863C101.552 41.1862 101.84 41.16 102.194 41.1202C102.487 40.988 102.656 40.8217 102.812 40.5411C102.939 40.1871 102.91 39.8012 102.91 39.4295C102.911 39.3371 102.912 39.2447 102.913 39.1522C102.916 38.9104 102.917 38.6685 102.918 38.4266C102.92 38.1792 102.923 37.9319 102.925 37.6845C102.93 37.2002 102.934 36.7158 102.936 36.2314C103.181 36.2314 103.426 36.2314 103.678 36.2314C103.684 36.7601 103.689 37.2887 103.692 37.8174C103.693 38.0629 103.695 38.3085 103.698 38.554C103.701 38.7915 103.703 39.029 103.704 39.2666C103.704 39.4001 103.707 39.5336 103.709 39.6671C103.709 40.2735 103.643 40.823 103.256 41.3128C102.784 41.6751 102.465 41.8455 101.857 41.8318C101.799 41.8331 101.742 41.8344 101.683 41.8357C101.152 41.8317 100.83 41.6329 100.453 41.2751C100.069 40.698 100.075 40.0823 100.083 39.4099C100.084 39.3178 100.084 39.2256 100.084 39.1335C100.085 38.8933 100.087 38.653 100.089 38.4128C100.091 38.1668 100.092 37.9207 100.093 37.6747C100.095 37.1936 100.099 36.7125 100.103 36.2314Z" fill="#F2F1F3"/>
<path d="M93.2858 36.6961C93.7303 37.0171 93.7303 37.0171 93.8971 37.2361C93.9484 37.5866 93.8729 37.8045 93.6947 38.1067C93.4671 38.0313 93.4236 37.9738 93.2773 37.7928C92.8869 37.3373 92.4819 37.0168 91.8682 36.9433C91.2715 36.9309 90.841 37.025 90.3873 37.4234C89.9259 37.9087 89.7602 38.3608 89.7529 39.0191C89.7522 39.0671 89.7515 39.1151 89.7508 39.1646C89.7601 39.7263 90.0201 40.2323 90.3895 40.6515C90.9759 41.086 91.4846 41.1861 92.2107 41.1203C92.7609 40.9637 93.1589 40.5714 93.5598 40.1827C93.7564 40.2547 93.8821 40.3018 94.032 40.4506C93.9952 40.8323 93.6501 41.1112 93.3798 41.3563C92.7493 41.847 91.9646 41.8544 91.1989 41.79C90.5154 41.6827 89.9111 41.3219 89.4765 40.791C89.325 40.5772 89.2113 40.3555 89.1078 40.1158C89.0814 40.0591 89.055 40.0025 89.0277 39.9442C88.8053 39.2818 88.8227 38.5141 89.0902 37.872C89.2239 37.6093 89.3844 37.3895 89.58 37.1691C89.6154 37.1278 89.6508 37.0864 89.6872 37.0438C90.6224 36.028 92.1561 35.9799 93.2858 36.6961Z" fill="#F7F7F8"/>
<path d="M141.523 36.2986C142.48 36.2986 143.437 36.2986 144.423 36.2986C144.423 36.4975 144.423 36.6964 144.423 36.9013C143.711 36.9013 142.999 36.9013 142.265 36.9013C142.265 37.4538 142.265 38.0063 142.265 38.5756C142.888 38.5756 143.511 38.5756 144.153 38.5756C144.153 38.7745 144.153 38.9734 144.153 39.1783C143.53 39.1783 142.907 39.1783 142.265 39.1783C142.265 39.8413 142.265 40.5043 142.265 41.1874C142.999 41.1874 143.734 41.1874 144.491 41.1874C144.491 41.3863 144.491 41.5852 144.491 41.7901C143.511 41.7901 142.532 41.7901 141.523 41.7901C141.523 39.9779 141.523 38.1657 141.523 36.2986Z" fill="#F8F8F9"/>
<path d="M114.067 36.2986C115.002 36.2986 115.937 36.2986 116.9 36.2986C116.9 36.4975 116.9 36.6964 116.9 36.9013C116.233 36.9013 115.565 36.9013 114.877 36.9013C114.877 37.4759 114.877 38.0505 114.877 38.6425C115.389 38.6425 115.901 38.6425 116.428 38.6425C116.428 38.8414 116.428 39.0403 116.428 39.2453C115.916 39.2453 115.404 39.2453 114.877 39.2453C114.877 40.0851 114.877 40.9249 114.877 41.7901C114.61 41.7901 114.343 41.7901 114.067 41.7901C114.067 39.9779 114.067 38.1657 114.067 36.2986Z" fill="#F1F0F2"/>
<path d="M95.9885 36.2314C96.2334 36.2314 96.4782 36.2314 96.7305 36.2314C96.7305 37.8447 96.7305 39.458 96.7305 41.1202C97.3761 41.1202 98.0216 41.1202 98.6867 41.1202C98.6867 41.3191 98.6867 41.518 98.6867 41.723C97.7963 41.723 96.9059 41.723 95.9885 41.723C95.9885 39.9108 95.9885 38.0986 95.9885 36.2314Z" fill="#F7F6F8"/>
<path d="M106.437 39.1781C106.606 39.1726 106.776 39.1671 106.951 39.1614C107.03 39.1577 107.03 39.1577 107.11 39.154C107.536 39.1474 107.762 39.309 108.081 39.5841C108.25 39.8885 108.24 40.1778 108.19 40.5175C108.042 40.8224 107.89 40.9782 107.583 41.1203C107.384 41.1438 107.189 41.1393 106.989 41.1328C106.715 41.1266 106.715 41.1266 106.437 41.1203C106.437 40.4794 106.437 39.8385 106.437 39.1781Z" fill="#100E21"/>
<path d="M126.679 36.9009C127.802 36.9009 127.802 36.9009 128.226 37.2776C128.405 37.5685 128.42 37.7741 128.365 38.1063C128.249 38.4216 128.079 38.6228 127.826 38.843C127.462 38.9632 127.062 38.91 126.679 38.91C126.679 38.247 126.679 37.584 126.679 36.9009Z" fill="#0B0A1C"/>
<path d="M106.437 36.9009C107.35 36.9009 107.35 36.9009 107.651 37.1688C107.687 37.1983 107.723 37.2278 107.761 37.2582C107.917 37.4462 107.88 37.6372 107.873 37.8712C107.846 38.0985 107.783 38.254 107.651 38.4412C107.307 38.6781 106.832 38.5824 106.437 38.5751C106.437 38.0226 106.437 37.4701 106.437 36.9009Z" fill="#0E0C1E"/>
<path d="M153.26 40.6888C153.502 40.742 153.662 40.8232 153.733 41.0534C153.802 41.279 153.762 41.4861 153.593 41.652C153.418 41.8245 153.138 41.8319 152.923 41.7231C152.683 41.6021 152.615 41.4494 152.624 41.1832C152.638 40.7742 152.837 40.6655 153.26 40.6888Z" fill="#F6F4F8"/>
<path d="M50.32 14.801C50.4549 15.0019 50.4549 15.0019 50.4331 15.1354C50.4154 15.1848 50.3978 15.2343 50.3796 15.2852C50.3609 15.339 50.3422 15.3927 50.3229 15.4481C50.2923 15.5318 50.2923 15.5318 50.261 15.6172C50.2411 15.6738 50.2212 15.7304 50.2006 15.7887C50.1513 15.9286 50.1011 16.0681 50.0502 16.2074C50.0057 16.2074 49.9612 16.2074 49.9153 16.2074C50.0127 15.7239 50.1566 15.2664 50.32 14.801Z" fill="#1C1B25"/>
<path d="M120.748 36.9014C120.89 36.896 121.032 36.8921 121.174 36.8889C121.253 36.8866 121.332 36.8842 121.413 36.8818C121.625 36.9014 121.625 36.9014 121.827 37.1022C121.449 37.1022 121.07 37.1022 120.681 37.1022C120.703 37.036 120.725 36.9697 120.748 36.9014Z" fill="#181724"/>
<path d="M120.877 9.57739C120.922 9.57739 120.966 9.57739 121.012 9.57739C121.02 10.0082 121 10.4224 120.944 10.8498C120.922 10.8498 120.9 10.8498 120.877 10.8498C120.855 10.6067 120.833 10.3636 120.81 10.1132C120.854 10.1132 120.899 10.1132 120.944 10.1132C120.922 9.93635 120.9 9.75955 120.877 9.57739Z" fill="#2B2933"/>
<path d="M46.549 25.9846C46.5936 26.0067 46.6381 26.0288 46.684 26.0516C46.6394 26.2726 46.5949 26.4936 46.549 26.7213C46.4823 26.7434 46.4155 26.7655 46.3467 26.7883C46.3676 26.692 46.3887 26.5957 46.4099 26.4994C46.4217 26.4458 46.4334 26.3922 46.4455 26.337C46.4816 26.1855 46.4816 26.1855 46.549 25.9846Z" fill="#181822"/>
<path d="M90.4534 25.918C90.6203 25.9843 90.6203 25.9843 90.7906 26.0519C90.7906 26.0961 90.7906 26.1403 90.7906 26.1858C90.8352 26.2079 90.8797 26.23 90.9255 26.2528C90.9033 26.3633 90.881 26.4738 90.8581 26.5877C90.6731 26.3734 90.5458 26.1855 90.4534 25.918Z" fill="#1B1925"/>
<path d="M47.557 23.3064C47.6245 23.4403 47.6245 23.4403 47.5939 23.5659C47.5761 23.6129 47.5584 23.6598 47.5401 23.7082C47.5146 23.7787 47.5146 23.7787 47.4885 23.8505C47.4221 23.9761 47.4221 23.9761 47.2197 24.11C47.25 23.9885 47.281 23.8671 47.3125 23.7459C47.3383 23.6445 47.3383 23.6445 47.3646 23.5411C47.4221 23.3734 47.4221 23.3734 47.557 23.3064Z" fill="#15141F"/>
<path d="M90.9982 26.5208C91.0427 26.6092 91.0872 26.6976 91.1331 26.7886C91.1776 26.7886 91.2221 26.7886 91.268 26.7886C91.2457 26.8991 91.2235 27.0096 91.2006 27.1235C91.0168 26.9659 90.9433 26.8137 90.8633 26.5877C90.9078 26.5656 90.9523 26.5435 90.9982 26.5208Z" fill="#1A1925"/>
<path d="M45.8649 28.5967C45.956 28.8679 45.9068 29.0515 45.8649 29.3333C45.8204 29.3333 45.7758 29.3333 45.73 29.3333C45.7263 29.2357 45.7237 29.138 45.7215 29.0404C45.7192 28.9588 45.7192 28.9588 45.7168 28.8755C45.73 28.7306 45.73 28.7306 45.8649 28.5967Z" fill="#2E2F35"/>
<path d="M89.9891 24.9807C90.0336 24.9807 90.0781 24.9807 90.124 24.9807C90.1908 25.1575 90.2576 25.3343 90.3264 25.5165C90.2596 25.5496 90.2596 25.5496 90.1914 25.5834C90.1024 25.4066 90.0134 25.2298 89.9216 25.0477C89.9439 25.0256 89.9662 25.0035 89.9891 24.9807Z" fill="#1A1A24"/>
<path d="M124.052 10.448C124.118 10.448 124.185 10.448 124.254 10.448C124.456 10.8331 124.456 10.8331 124.456 10.9838C124.389 10.9838 124.323 10.9838 124.254 10.9838C124.187 10.807 124.12 10.6302 124.052 10.448Z" fill="#24232E"/>
<path d="M46.2765 26.7888C46.321 26.8109 46.3655 26.833 46.4114 26.8558C46.3892 26.9884 46.3669 27.121 46.344 27.2576C46.2772 27.2797 46.2104 27.3018 46.1416 27.3246C46.1861 27.1478 46.2306 26.971 46.2765 26.7888Z" fill="#21202A"/>
<path d="M61.9951 20.5603C62.0396 20.5603 62.0842 20.5603 62.13 20.5603C62.13 20.6045 62.13 20.6487 62.13 20.6942C62.1968 20.7163 62.2636 20.7384 62.3324 20.7612C62.2879 20.8717 62.2433 20.9822 62.1975 21.0961C62.0663 20.9007 62.032 20.7863 61.9951 20.5603Z" fill="#161621"/>
</svg>
