<svg width="420" height="115" viewBox="0 0 420 115" fill="none" xmlns="http://www.w3.org/2000/svg">
<path d="M85.0997 -0.000976562C85.4637 0.0892898 85.4637 0.0892898 85.835 0.18138C86.1437 1.29373 86.3101 2.37616 86.4266 3.52292C86.4456 3.70201 86.4646 3.8811 86.4842 4.06561C86.5444 4.63612 86.6033 5.20677 86.6621 5.77744C86.7015 6.1513 86.7409 6.52516 86.7805 6.899C86.9668 8.66748 87.1447 10.4366 87.3118 12.2069C87.4561 13.7338 87.6223 15.2572 87.7996 16.7805C88.0996 19.367 88.3594 21.9543 88.5686 24.5496C88.7052 26.1892 88.8973 27.8177 89.1074 29.4496C89.3812 31.582 89.6187 33.7181 89.8556 35.8548C89.9034 36.284 89.9512 36.7131 89.9991 37.1423C90.4041 40.7804 90.8046 44.419 91.2008 48.0581C91.3051 49.0161 91.4101 49.9741 91.5155 50.932C91.7383 52.9639 91.9592 54.995 92.117 57.0331C92.1937 57.9466 92.3125 58.8493 92.4497 59.7554C92.8933 62.6946 93.1592 65.65 93.4397 68.6081C93.782 75.0515 95.944 80.1446 96.6792 80.6005C97.4507 81.0789 97.852 81.3839 98.5172 81.6946C98.6565 81.7612 98.7958 81.8277 98.9394 81.8962C100.331 82.501 101.821 82.8122 103.296 83.1535C103.296 83.4544 103.296 83.7553 103.296 84.0653C97.0486 84.0653 90.8012 84.0653 84.3645 84.0653C84.5371 83.3803 84.7468 82.969 85.1112 82.3842C86.6415 79.4994 85.3158 74.2014 84.9504 71.0952C84.8727 70.4066 84.7961 69.7179 84.7196 69.0292C84.6695 68.5787 84.6191 68.1282 84.5684 67.6777C84.3764 65.9655 84.21 64.2526 84.0659 62.5358C83.9383 61.0289 83.8057 59.5232 83.6494 58.0189C83.6349 57.8791 83.6204 57.7392 83.6054 57.595C83.5752 57.3046 83.545 57.0142 83.5148 56.7238C83.2003 53.6995 82.9351 50.673 82.6878 47.6426C82.3701 43.7486 82.0156 39.8637 81.5725 35.9817C81.5346 35.6493 81.4967 35.3168 81.4589 34.9844C81.4405 34.822 81.422 34.6597 81.403 34.4925C81.2686 33.2965 81.1497 32.0995 81.0382 30.9013C81.0221 30.7285 81.0059 30.5557 80.9893 30.3777C80.9136 29.5622 80.8396 28.7466 80.7678 27.9308C80.5896 25.956 80.3093 24.0151 79.9533 22.0641C79.7714 22.004 79.5894 21.9438 79.4019 21.8818C78.3948 23.8491 77.4374 25.8333 76.5186 27.8425C76.3902 28.122 76.2619 28.4015 76.1335 28.681C75.2365 30.6357 74.3512 32.5954 73.4687 34.5566C72.706 36.2477 71.9228 37.9288 71.1332 39.6078C70.3597 41.2545 69.6004 42.9074 68.8449 44.5623C67.9241 46.5785 66.9919 48.5888 66.0458 50.5935C65.1152 52.5654 64.1924 54.5408 63.2734 56.5181C63.2043 56.6668 63.1352 56.8155 63.0639 56.9687C62.7104 57.7293 62.3569 58.49 62.0035 59.2507C61.3569 60.6424 60.7094 62.0338 60.0621 63.4251C59.7143 64.1727 59.3665 64.9203 59.0187 65.6679C58.8879 65.9492 58.757 66.2305 58.6262 66.5118C58.5647 66.6438 58.5033 66.7758 58.44 66.9118C57.6833 68.5386 57.6833 68.5386 57.4185 69.1077C57.2485 69.4733 57.0784 69.8389 56.9084 70.2045C56.4282 71.2369 55.9477 72.2692 55.4669 73.3014C55.1784 73.921 54.8899 74.5406 54.6014 75.1602C54.4559 75.4727 54.3104 75.7851 54.1648 76.0976C53.4898 77.546 52.8151 78.9944 52.1563 80.4502C52.0723 80.6358 51.9882 80.8215 51.9015 81.0128C51.7543 81.339 51.5176 81.6326 51.3723 81.9596L49.9019 84.6123L49.1667 83.6094L48.0617 81.9596C48.0617 81.9596 47.972 81.7857 47.8804 81.6082C47.684 81.2272 47.4891 80.8455 47.2942 80.4637C47.1565 80.1959 47.0187 79.928 46.8807 79.6603C46.5931 79.1017 46.3059 78.5428 46.0189 77.9838C45.5932 77.1553 45.1641 76.3286 44.7339 75.5024C44.6306 75.3038 44.6306 75.3038 44.5251 75.1012C44.2589 74.5897 43.9925 74.0782 43.726 73.5668C42.9472 72.0713 42.1788 70.5711 41.4221 69.0645C40.9867 68.1978 40.5492 67.3323 40.1117 66.4667C39.7271 65.7059 39.3428 64.9449 38.9587 64.1838C38.6766 63.625 38.3943 63.0661 38.1117 62.5075C36.7291 59.7738 35.3653 57.0324 34.0456 54.2681C33.8279 53.8121 33.6096 53.3565 33.391 52.9009C30.8962 47.6993 28.4413 42.482 26.0641 37.2264C25.4011 35.7606 24.7373 34.2953 24.0664 32.8331C24.0074 32.7045 23.9483 32.5758 23.8875 32.4432C23.6015 31.8201 23.315 31.1973 23.0281 30.5746C22.4798 29.3825 21.9396 28.1878 21.4142 26.9856C21.312 26.7529 21.2098 26.5201 21.1076 26.2874C20.9176 25.8533 20.7292 25.4186 20.5427 24.983C20.4593 24.7927 20.3758 24.6024 20.2899 24.4063C20.2179 24.2393 20.1459 24.0722 20.0718 23.9002C19.8713 23.4629 19.8713 23.4629 19.2991 23.3406C18.7418 23.6659 18.5886 23.814 18.3801 24.4348C18.3414 24.824 18.3119 25.2141 18.2867 25.6044C18.269 25.8662 18.2512 26.1279 18.2333 26.3897C18.2237 26.5335 18.2141 26.6774 18.2042 26.8256C17.9281 30.9189 17.5674 35.005 17.2083 39.0916C17.1797 39.4177 17.1511 39.7438 17.1225 40.0699C17.0085 41.3685 16.8945 42.6671 16.7803 43.9656C16.5434 46.6602 16.3117 49.3551 16.0826 52.0503C16.0108 52.8928 15.939 53.7352 15.8672 54.5777C15.8487 54.7945 15.8302 55.0114 15.8112 55.2348C15.5633 58.143 15.3151 61.0512 15.0658 63.9592C14.9928 64.8096 14.9201 65.6599 14.8475 66.5103C14.7793 67.31 14.7108 68.1098 14.6421 68.9095C14.6167 69.2057 14.5914 69.502 14.5662 69.7983C14.5314 70.2079 14.4961 70.6174 14.4608 71.0269C14.4412 71.2569 14.4215 71.4868 14.4012 71.7237C14.3546 72.2066 14.3012 72.6852 14.239 73.1661C14.102 74.2563 14.0973 75.3472 14.0883 76.4443C14.0853 76.715 14.0802 76.9857 14.0732 77.2563C14.0326 78.8413 14.003 80.2241 15.0717 81.5123C16.7657 83.2652 19.5881 83.2449 21.8723 83.3358C21.8723 83.6367 21.8723 83.9376 21.8723 84.2476C14.6544 84.2476 7.43658 84.2476 0 84.2476C0 84.0069 0 83.7662 0 83.5182C0.579822 83.3264 1.03376 83.3045 1.64272 83.2789C3.29569 83.1582 4.95818 82.8232 6.17743 81.6341C7.91639 79.5647 7.85076 76.1776 8.09097 73.6159C8.18501 72.6146 8.28404 71.6138 8.38232 70.6129C8.40278 70.4033 8.42325 70.1937 8.44433 69.9777C8.66354 67.7415 8.9007 65.5073 9.142 63.2734C9.18853 62.8424 9.23488 62.4114 9.28102 61.9803C9.53146 59.6413 9.79871 57.3056 10.0974 54.9722C10.3018 53.3731 10.4849 51.7722 10.6604 50.1698C10.7177 49.6498 10.7752 49.1298 10.8328 48.6098C10.8476 48.4749 10.8625 48.3401 10.8779 48.2012C10.9663 47.4047 11.0578 46.6087 11.152 45.8129C11.5022 42.8527 11.8157 39.8895 12.1184 36.9242C12.5313 32.8818 12.9562 28.8416 13.4281 24.8055C13.7186 22.319 13.9791 19.8317 14.2122 17.3393C14.3477 15.9017 14.5023 14.4663 14.6561 13.0305C14.7967 11.7148 14.9346 10.3988 15.0717 9.08265C15.0876 8.92966 15.1036 8.77668 15.12 8.61906C15.3366 6.53708 15.5392 4.4554 15.6974 2.3681C15.7547 1.6263 15.8161 0.907352 15.9907 0.18138C16.5683 0.235074 16.8353 0.281364 17.2292 0.717764C18.0351 2.0491 18.7447 3.4153 19.4301 4.80992C19.7039 5.36248 19.9823 5.91265 20.2612 6.4627C21.5339 8.97307 22.7794 11.4943 23.995 14.0325C24.4401 14.9588 24.8899 15.8829 25.3399 16.8068C25.5029 17.1416 25.6658 17.4763 25.8286 17.8111C26.3934 18.9714 26.9597 20.1311 27.5278 21.2898C28.7429 23.7701 29.9398 26.2565 31.104 28.7608C31.7804 30.2132 32.4732 31.6568 33.176 33.0967C34.5087 35.8287 35.7924 38.5827 37.0736 41.3388C38.5234 44.4719 38.5234 44.4719 40.0521 47.5674C41.3309 50.07 42.5296 52.6136 43.7477 55.1457C45.6013 58.9977 47.4706 62.8423 49.3871 66.6639C49.5146 66.9181 49.6417 67.1724 49.7687 67.4268C49.9454 67.7807 50.1231 68.1341 50.3011 68.4873C50.4017 68.6878 50.6371 69.1077 50.6371 69.1077L51.8318 71.118L52.1647 70.4613C52.3839 69.8395 52.6455 69.2686 52.9382 68.6775C52.9923 68.5676 53.0464 68.4578 53.1022 68.3446C53.2186 68.1082 53.3352 67.872 53.4522 67.6359C53.768 66.9976 54.0812 66.3581 54.3943 65.7185C54.4579 65.5884 54.5216 65.4584 54.5872 65.3244C55.423 63.6143 56.2253 61.8889 57.027 60.1629C57.4689 59.2118 57.9133 58.262 58.3582 57.3123C59.8368 54.1545 61.3079 50.9937 62.7564 47.8222C63.6116 45.95 64.475 44.0817 65.3412 42.2145C66.3304 40.0817 67.3153 37.9471 68.2935 35.8092C68.4066 35.5622 68.5197 35.3151 68.6328 35.068C68.6888 34.9456 68.7448 34.8231 68.8026 34.697C70.6028 30.7644 72.4074 26.8349 74.268 22.9299C75.2808 20.8033 76.2699 18.6669 77.2476 16.5242C77.3616 16.2742 77.4757 16.0242 77.5898 15.7743C77.6468 15.6493 77.7038 15.5244 77.7625 15.3957C78.7903 13.1453 79.8339 10.9021 80.8757 8.65807C81.2723 7.80341 81.6667 6.94781 82.0599 6.09157C83.0112 4.02402 83.9783 1.98207 85.0997 -0.000976562Z" fill="#F8F7FB"/>
<path d="M403.069 0.101074C403.433 0.191341 403.433 0.191341 403.805 0.28343C404.113 1.39578 404.28 2.47821 404.396 3.62497C404.415 3.80406 404.434 3.98315 404.454 4.16766C404.514 4.73818 404.573 5.30883 404.632 5.87949C404.671 6.25335 404.711 6.62721 404.75 7.00105C404.937 8.76954 405.114 10.5386 405.282 12.309C405.426 13.8358 405.592 15.3592 405.769 16.8826C406.069 19.4691 406.329 22.0563 406.538 24.6516C406.675 26.2913 406.867 27.9197 407.077 29.5517C407.351 31.6841 407.588 33.8202 407.825 35.9569C407.873 36.386 407.921 36.8152 407.969 37.2443C408.374 40.8824 408.774 44.521 409.171 48.1601C409.275 49.1181 409.38 50.0761 409.485 51.034C409.708 53.066 409.929 55.097 410.087 57.1351C410.163 58.0487 410.282 58.9513 410.419 59.8574C410.863 62.7966 411.129 65.752 411.409 68.7101C411.752 75.1536 413.914 80.2467 414.649 80.7025C415.42 81.1809 415.822 81.4859 416.487 81.7967C416.626 81.8632 416.766 81.9297 416.909 81.9983C418.301 82.6031 419.791 82.9143 421.266 83.2555C421.266 83.5564 421.266 83.8573 421.266 84.1673C415.018 84.1673 408.771 84.1673 402.334 84.1673C402.507 83.4823 402.717 83.0711 403.081 82.4862C404.611 79.6015 403.286 74.3034 402.92 71.1972C402.842 70.5086 402.766 69.8199 402.689 69.1312C402.639 68.6807 402.589 68.2302 402.538 67.7798C402.346 66.0676 402.18 64.3546 402.036 62.6379C401.908 61.1309 401.775 59.6253 401.619 58.121C401.605 57.9811 401.59 57.8412 401.575 57.6971C401.545 57.4067 401.515 57.1163 401.485 56.8258C401.17 53.8016 400.905 50.7751 400.658 47.7447C400.34 43.8506 399.985 39.9658 399.542 36.0838C399.504 35.7513 399.466 35.4189 399.429 35.0864C399.41 34.9241 399.392 34.7618 399.373 34.5945C399.238 33.3985 399.119 32.2016 399.008 31.0033C398.992 30.8306 398.976 30.6578 398.959 30.4797C398.883 29.6643 398.809 28.8487 398.738 28.0328C398.559 26.058 398.279 24.1171 397.923 22.1662C397.741 22.106 397.559 22.0458 397.372 21.9838C396.365 23.9511 395.407 25.9353 394.488 27.9446C394.36 28.2241 394.232 28.5036 394.103 28.7831C393.206 30.7377 392.321 32.6975 391.438 34.6586C390.676 36.3498 389.893 38.0309 389.103 39.7098C388.329 41.3566 387.57 43.0094 386.815 44.6644C385.894 46.6806 384.962 48.6909 384.016 50.6955C383.085 52.6674 382.162 54.6429 381.243 56.6201C381.174 56.7688 381.105 56.9175 381.034 57.0707C380.68 57.8314 380.327 58.5921 379.973 59.3528C379.327 60.7445 378.679 62.1358 378.032 63.5272C377.684 64.2748 377.336 65.0224 376.988 65.77C376.858 66.0513 376.727 66.3326 376.596 66.6138C376.534 66.7459 376.473 66.8779 376.41 67.0139C375.653 68.6407 375.653 68.6407 375.388 69.2098C375.218 69.5753 375.048 69.9409 374.878 70.3065C374.398 71.339 373.917 72.3713 373.437 73.4035C373.148 74.023 372.86 74.6426 372.571 75.2623C372.426 75.5747 372.28 75.8872 372.134 76.1996C371.46 77.6481 370.785 79.0965 370.126 80.5522C370.042 80.7379 369.958 80.9235 369.871 81.1148C369.724 81.441 369.487 81.7346 369.342 82.0617L367.872 84.7144L367.136 83.7114L366.031 82.0617C366.031 82.0617 365.942 81.8877 365.85 81.7103C365.654 81.3292 365.459 80.9475 365.264 80.5658C365.126 80.2979 364.988 80.0301 364.85 79.7623C364.563 79.2037 364.276 78.6449 363.989 78.0859C363.563 77.2574 363.134 76.4306 362.704 75.6044C362.6 75.4058 362.6 75.4058 362.495 75.2033C362.229 74.6917 361.962 74.1802 361.696 73.6688C360.917 72.1733 360.149 70.6731 359.392 69.1665C358.956 68.2999 358.519 67.4343 358.081 66.5688C357.697 65.808 357.313 65.0469 356.928 64.2859C356.646 63.727 356.364 63.1682 356.081 62.6095C354.699 59.8758 353.335 57.1345 352.015 54.3702C351.798 53.9142 351.579 53.4585 351.361 53.003C348.866 47.8014 346.411 42.584 344.034 37.3284C343.371 35.8627 342.707 34.3974 342.036 32.9352C341.977 32.8065 341.918 32.6778 341.857 32.5453C341.571 31.9222 341.285 31.2993 340.998 30.6766C340.45 29.4846 339.909 28.2898 339.384 27.0877C339.282 26.8549 339.18 26.6222 339.077 26.3894C338.887 25.9554 338.699 25.5206 338.512 25.0851C338.429 24.8948 338.346 24.7044 338.26 24.5083C338.188 24.3413 338.116 24.1743 338.042 24.0022C337.841 23.565 337.841 23.565 337.269 23.4427C336.712 23.7679 336.558 23.916 336.35 24.5368C336.311 24.926 336.282 25.3162 336.256 25.7065C336.239 25.9682 336.221 26.23 336.203 26.4917C336.193 26.6356 336.184 26.7795 336.174 26.9277C335.898 31.0209 335.537 35.107 335.178 39.1937C335.149 39.5198 335.121 39.8458 335.092 40.1719C334.978 41.4705 334.864 42.7691 334.75 44.0677C334.513 46.7622 334.281 49.4572 334.052 52.1524C333.981 52.9948 333.909 53.8373 333.837 54.6797C333.818 54.8966 333.8 55.1134 333.781 55.3369C333.533 58.2451 333.285 61.1532 333.035 64.0613C332.963 64.9116 332.89 65.762 332.817 66.6124C332.749 67.4121 332.681 68.2118 332.612 69.0115C332.586 69.3078 332.561 69.6041 332.536 69.9004C332.501 70.3099 332.466 70.7195 332.431 71.129C332.411 71.3589 332.391 71.5889 332.371 71.8258C332.324 72.3087 332.271 72.7873 332.209 73.2682C332.072 74.3583 332.067 75.4493 332.058 76.5463C332.055 76.817 332.05 77.0877 332.043 77.3584C332.002 78.9434 331.973 80.3262 333.041 81.6143C334.735 83.3673 337.558 83.347 339.842 83.4379C339.842 83.7388 339.842 84.0397 339.842 84.3497C332.624 84.3497 325.406 84.3497 317.97 84.3497C317.97 84.109 317.97 83.8682 317.97 83.6202C318.55 83.4285 319.003 83.4065 319.612 83.3809C321.265 83.2602 322.928 82.9252 324.147 81.7361C325.886 79.6667 325.82 76.2797 326.061 73.718C326.155 72.7167 326.254 71.7159 326.352 70.715C326.373 70.5053 326.393 70.2957 326.414 70.0797C326.633 67.8436 326.87 65.6094 327.112 63.3754C327.158 62.9444 327.205 62.5134 327.251 62.0824C327.501 59.7434 327.768 57.4077 328.067 55.0742C328.272 53.4751 328.455 51.8743 328.63 50.2718C328.687 49.7518 328.745 49.2318 328.802 48.7118C328.817 48.577 328.832 48.4421 328.848 48.3032C328.936 47.5068 329.027 46.7108 329.122 45.915C329.472 42.9548 329.785 39.9915 330.088 37.0263C330.501 32.9839 330.926 28.9437 331.398 24.9076C331.688 22.4211 331.949 19.9337 332.182 17.4413C332.317 16.0037 332.472 14.5683 332.626 13.1326C332.766 11.8168 332.904 10.5008 333.041 9.1847C333.057 9.03171 333.073 8.87873 333.09 8.72111C333.306 6.63913 333.509 4.55745 333.667 2.47015C333.724 1.72835 333.786 1.0094 333.96 0.28343C334.538 0.337125 334.805 0.383415 335.199 0.819814C336.005 2.15116 336.714 3.51735 337.4 4.91197C337.674 5.46453 337.952 6.0147 338.231 6.56475C339.504 9.07512 340.749 11.5964 341.965 14.1346C342.41 15.0609 342.86 15.9849 343.31 16.9089C343.473 17.2436 343.635 17.5784 343.798 17.9131C344.363 19.0735 344.929 20.2331 345.497 21.3919C346.713 23.8721 347.91 26.3585 349.074 28.8628C349.75 30.3152 350.443 31.7588 351.146 33.1987C352.478 35.9308 353.762 38.6848 355.043 41.4408C356.493 44.5739 356.493 44.5739 358.022 47.6695C359.301 50.172 360.499 52.7157 361.717 55.2477C363.571 59.0997 365.44 62.9444 367.357 66.766C367.484 67.0201 367.611 67.2744 367.738 67.5288C367.915 67.8827 368.093 68.2361 368.271 68.5894C368.371 68.7898 368.607 69.2098 368.607 69.2098L369.802 71.22L370.134 70.5633C370.354 69.9415 370.615 69.3706 370.908 68.7796C370.962 68.6697 371.016 68.5598 371.072 68.4466C371.188 68.2103 371.305 67.974 371.422 67.7379C371.738 67.0997 372.051 66.4602 372.364 65.8206C372.428 65.6905 372.491 65.5604 372.557 65.4264C373.393 63.7163 374.195 61.9909 374.997 60.2649C375.439 59.3139 375.883 58.364 376.328 57.4144C377.807 54.2566 379.278 51.0958 380.726 47.9242C381.581 46.0521 382.445 44.1838 383.311 42.3166C384.3 40.1837 385.285 38.0491 386.263 35.9113C386.376 35.6642 386.489 35.4171 386.602 35.1701C386.659 35.0476 386.715 34.9252 386.772 34.799C388.573 30.8664 390.377 26.9369 392.238 23.032C393.251 20.9054 394.24 18.769 395.217 16.6263C395.331 16.3763 395.445 16.1263 395.559 15.8763C395.616 15.7514 395.673 15.6265 395.732 15.4978C396.76 13.2474 397.804 11.0041 398.845 8.76012C399.242 7.90546 399.636 7.04986 400.03 6.19363C400.981 4.12607 401.948 2.08412 403.069 0.101074Z" fill="#F8F7FB"/>
<path d="M147.04 0.181641C147.66 0.48912 147.813 1.18367 148.078 1.79079C148.143 1.93776 148.208 2.08474 148.275 2.23616C148.997 3.89014 149.641 5.57227 150.28 7.25934C150.408 7.59583 150.536 7.93229 150.664 8.26871C150.989 9.11936 151.312 9.9704 151.635 10.8215C151.915 11.5594 152.197 12.2968 152.478 13.0342C152.583 13.3097 152.688 13.5852 152.793 13.8608C152.845 13.9958 152.896 14.1308 152.95 14.2699C153.107 14.6818 153.264 15.0937 153.421 15.5057C154.224 17.6134 155.031 19.7195 155.84 21.825C155.901 21.9845 155.962 22.144 156.025 22.3083C156.647 23.926 157.268 25.5437 157.891 27.1611C158.199 27.9619 158.507 28.7628 158.815 29.5638C158.876 29.7224 158.937 29.881 159 30.0444C159.946 32.5069 160.88 34.9739 161.809 37.4429C162.804 40.0843 163.825 42.7152 164.854 45.3441C165.617 47.2968 166.373 49.2512 167.097 51.2186C168.14 54.045 169.268 56.8381 170.388 59.635C170.927 60.9825 171.463 62.3312 172 63.6799C172.174 64.1188 172.349 64.5575 172.524 64.9962C173.037 66.2826 173.547 67.5697 174.046 68.8616C174.895 71.054 175.791 73.2139 176.781 75.3466C176.878 75.5568 176.975 75.767 177.075 75.9835C177.635 77.1695 178.246 78.2635 179.021 79.3243C179.133 79.4787 179.245 79.6331 179.36 79.7923C180.831 81.5509 183.006 82.4597 185.087 83.3361C185.087 83.5768 185.087 83.8175 185.087 84.0655C179.203 84.0655 173.32 84.0655 167.258 84.0655C167.258 83.9452 167.258 83.8248 167.258 83.7008C167.429 83.5955 167.599 83.4902 167.775 83.3817C168.462 82.9006 168.656 82.6694 168.912 81.8772C169.041 80.7865 169.015 79.887 168.588 78.8685C168.168 77.8485 167.778 76.8194 167.39 75.7868C167.236 75.3763 167.081 74.9658 166.927 74.5553C166.846 74.3408 166.765 74.1262 166.682 73.9051C165.259 70.123 163.818 66.348 162.353 62.5817C160.4 57.5597 160.4 57.5597 159.516 55.1962C159.445 55.0084 159.375 54.8205 159.302 54.6269C158.974 53.7435 158.698 52.8804 158.436 51.9708C150.126 52.031 141.817 52.0912 133.255 52.1532C131.656 56.8001 130.065 61.4463 128.525 66.1121C128.334 66.6875 128.144 67.2627 127.953 67.8379C126.766 71.4201 126.766 71.4201 125.603 75.0104C125.561 75.1426 125.518 75.2747 125.474 75.4109C125.18 76.3407 124.917 77.261 124.8 78.2301C124.774 78.4325 124.774 78.4325 124.748 78.639C124.661 79.921 125.139 81.0346 125.987 81.9998C126.969 82.8739 128.211 83.0473 129.464 83.2677C129.599 83.2922 129.735 83.3166 129.874 83.3418C130.205 83.4014 130.535 83.46 130.866 83.5184C130.866 83.699 130.866 83.8795 130.866 84.0655C128.587 84.0895 126.308 84.1133 124.03 84.1368C122.971 84.1478 121.913 84.1588 120.854 84.17C119.829 84.1808 118.804 84.1914 117.779 84.2019C117.392 84.2059 117.004 84.21 116.617 84.2141C114.014 84.2419 111.412 84.2529 108.81 84.2479C108.81 84.0072 108.81 83.7665 108.81 83.5184C109.531 83.3368 110.25 83.1603 110.976 83.0034C113.544 82.4301 115.956 81.5972 117.445 79.3129C118.766 77.142 119.673 74.7845 120.538 72.4061C120.624 72.173 120.709 71.9399 120.795 71.7069C120.985 71.1886 121.174 70.6701 121.363 70.1515C121.638 69.3965 121.914 68.6419 122.191 67.8873C123.71 63.7377 125.213 59.5826 126.707 55.4242C128.077 51.6125 129.449 47.802 130.888 44.0154C131.494 42.4183 132.079 40.8143 132.658 39.2072C132.937 38.4334 133.216 37.66 133.496 36.8865C133.552 36.7302 133.609 36.5739 133.667 36.4129C134.241 34.8236 134.821 33.2362 135.403 31.6495C135.449 31.5241 135.495 31.3988 135.542 31.2696C136.303 29.1948 136.303 29.1948 136.644 28.2983C136.96 27.4645 137.26 26.6254 137.559 25.7856C137.619 25.6173 137.679 25.449 137.74 25.2757C137.87 24.9123 138 24.5488 138.129 24.1854C138.337 23.6026 138.545 23.0199 138.753 22.4373C139.386 20.6628 140.018 18.8881 140.648 17.1125C142.004 13.2918 143.373 9.47577 144.774 5.67133C144.92 5.27428 145.066 4.87711 145.212 4.47984C145.414 3.92932 145.617 3.37928 145.821 2.82937C145.881 2.66643 145.94 2.5035 146.002 2.33562C146.288 1.56799 146.579 0.866683 147.04 0.181641Z" fill="#F9F9FC"/>
<path d="M189.501 2.37061C197.932 2.37061 206.363 2.37061 215.049 2.37061C215.049 2.67149 215.049 2.97238 215.049 3.28239C214.823 3.30025 214.597 3.31812 214.364 3.33652C214.064 3.3639 213.764 3.39146 213.464 3.41915C213.315 3.43044 213.167 3.44172 213.013 3.45335C211.805 3.57034 210.88 3.96979 210.086 4.92359C209.679 6.13615 209.725 7.22876 210.289 8.39135C210.554 8.89976 210.828 9.40247 211.106 9.9042C211.419 10.4793 211.72 11.0602 212.02 11.6423C213.208 13.9486 214.42 16.2382 215.702 18.4944C216.023 19.0631 216.34 19.634 216.656 20.2052C218.021 22.669 219.399 25.1243 220.812 27.5608C221.161 28.163 221.507 28.7664 221.852 29.37C222.048 29.7107 222.243 30.0513 222.439 30.392C222.624 30.7145 222.808 31.0372 222.993 31.36C223.718 32.6233 224.47 33.8638 225.254 35.0918C225.526 35.5594 225.526 35.5594 225.526 35.9242C226.301 35.2102 226.868 34.4427 227.444 33.5649C227.539 33.422 227.634 33.2791 227.731 33.1319C229.866 29.9017 231.923 26.621 233.98 23.3416C234.085 23.1744 234.19 23.0071 234.299 22.8348C235.663 20.6613 237.005 18.4753 238.327 16.2763C238.555 15.8981 238.785 15.5208 239.016 15.1441C242.137 10.5412 242.137 10.5412 242.987 5.28831C242.73 4.59842 242.373 4.36228 241.727 3.99899C240.662 3.54118 239.638 3.40057 238.495 3.35077C238.361 3.34372 238.226 3.33667 238.088 3.3294C237.76 3.31241 237.433 3.29721 237.105 3.28239C237.044 2.9815 236.984 2.68061 236.921 2.37061C244.139 2.37061 251.357 2.37061 258.794 2.37061C258.794 2.67149 258.794 2.97238 258.794 3.28239C258.676 3.28962 258.559 3.29684 258.438 3.30429C255.145 3.51751 252.594 3.73145 250.286 6.30338C248.787 8.16784 247.505 10.2013 246.186 12.1921C245.681 12.9542 245.175 13.7157 244.669 14.4774C243.973 15.5254 243.276 16.5736 242.581 17.6219C240.826 20.2644 239.062 22.8998 237.289 25.5299C235.206 28.6197 233.13 31.7134 231.089 34.8306C230.654 35.4936 230.211 36.1512 229.765 36.8067C229.558 37.1166 229.351 37.4264 229.144 37.7363C229.049 37.8721 228.954 38.0078 228.857 38.1477C228.774 38.2731 228.691 38.3985 228.606 38.5277C228.534 38.6335 228.462 38.7393 228.388 38.8482C228.178 39.5623 228.593 40.1894 228.918 40.8184C229.022 40.9964 229.126 41.1744 229.232 41.3578C229.35 41.5602 229.467 41.7626 229.588 41.9712C229.716 42.1894 229.843 42.4076 229.971 42.6258C230.104 42.8542 230.237 43.0828 230.37 43.3113C230.643 43.7813 230.917 44.2509 231.191 44.7203C231.561 45.3539 231.928 45.9888 232.295 46.6241C233.567 48.8232 234.858 51.0108 236.164 53.1904C237.065 54.6955 237.96 56.2045 238.851 57.7157C239.977 59.6241 241.11 61.528 242.247 63.4292C243.08 64.8215 243.907 66.2173 244.73 67.6149C248.303 74.2104 248.303 74.2104 252.912 80.0544C253.059 80.2067 253.059 80.2067 253.21 80.3621C255.551 82.5862 258.843 83.0328 261.918 83.3368C261.918 83.6377 261.918 83.9386 261.918 84.2486C257.454 84.2659 252.991 84.2178 248.528 84.164C247.588 84.1528 246.649 84.1419 245.71 84.131C243.883 84.1098 242.056 84.0881 240.23 84.0662C240.23 83.8857 240.23 83.7052 240.23 83.5191C240.538 83.2919 240.538 83.2919 240.942 83.0747C241.556 82.7438 241.798 82.5176 242.068 81.8779C242.332 80.4964 241.779 79.4778 241.114 78.2992C241.015 78.1174 240.916 77.9356 240.814 77.7482C240.501 77.1773 240.182 76.6096 239.862 76.0425C239.763 75.8658 239.664 75.6891 239.562 75.507C238.972 74.4581 238.374 73.4137 237.773 72.371C237.276 71.5069 236.783 70.6404 236.289 69.774C236.191 69.6021 236.093 69.4302 235.992 69.253C235.474 68.3429 234.957 67.4315 234.445 66.518C233.137 64.1877 231.797 61.8807 230.423 59.5885C228.864 56.9821 227.341 54.3558 225.831 51.7218C224.981 50.2396 224.115 48.77 223.211 47.32C222.952 46.8655 222.952 46.8655 222.952 46.5008C222.368 46.9958 222.049 47.6307 221.689 48.2902C221.016 49.4992 220.32 50.6929 219.609 51.8803C218.757 53.3053 217.911 54.7336 217.071 56.1657C216.353 57.3894 215.632 58.611 214.903 59.8284C213.768 61.7247 212.659 63.6349 211.56 65.5514C210.764 66.9378 209.958 68.318 209.144 69.6943C208.252 71.2095 207.365 72.7275 206.491 74.2532C206.386 74.4339 206.28 74.6146 206.172 74.8007C205.238 76.443 204.242 78.2145 204.297 80.1456C204.299 80.453 204.299 80.453 204.302 80.7667C204.433 81.6223 204.763 82.0883 205.411 82.653C206.147 83.1774 206.744 83.2077 207.628 83.257C207.758 83.2649 207.888 83.2728 208.021 83.2809C208.342 83.3002 208.663 83.3186 208.984 83.3368C208.984 83.6377 208.984 83.9386 208.984 84.2486C202.372 84.2486 195.761 84.2486 188.949 84.2486C188.949 83.8875 188.949 83.5264 188.949 83.1544C189.268 83.1375 189.268 83.1375 189.593 83.1202C192.893 82.7478 195.306 81.3249 197.354 78.7773C198.114 77.7837 198.79 76.7361 199.472 75.6892C199.627 75.4529 199.782 75.2167 199.937 74.9805C200.868 73.5602 201.788 72.1331 202.695 70.6976C203.34 69.6761 204 68.6639 204.664 67.6542C205.723 66.0446 206.761 64.4231 207.792 62.796C208.157 62.2192 208.524 61.6431 208.891 61.0671C209.075 60.7777 209.26 60.4882 209.444 60.1987C209.898 59.4853 210.352 58.7724 210.809 58.0605C211.918 56.3278 213.005 54.583 214.077 52.8277C214.8 51.6452 215.531 50.4677 216.267 49.2932C217.34 47.5793 218.397 45.8556 219.429 44.1174C219.607 43.8264 219.798 43.5438 219.993 43.264C220.226 42.8681 220.226 42.8681 220.192 42.4413C219.922 41.6947 219.542 41.0244 219.15 40.3349C219.06 40.1752 218.97 40.0154 218.878 39.8508C217.752 37.8574 216.584 35.888 215.417 33.9182C214.966 33.1566 214.515 32.3947 214.064 31.6328C213.932 31.4087 213.799 31.1846 213.667 30.9605C212.726 29.3709 211.794 27.7771 210.867 26.1795C208.991 22.9457 207.069 19.7398 205.129 16.5431C204.673 15.7901 204.219 15.0355 203.769 14.2791C200.117 7.57798 200.117 7.57798 193.763 3.83017C192.351 3.53045 190.942 3.35961 189.501 3.28239C189.501 2.9815 189.501 2.68061 189.501 2.37061Z" fill="#F9F8FB"/>
<path d="M274.049 2.37061C281.873 2.37061 289.698 2.37061 297.759 2.37061C297.759 2.67149 297.759 2.97238 297.759 3.28239C297.41 3.62878 296.766 3.50559 296.3 3.52173C294.62 3.6165 293.376 3.89641 292.176 5.11735C290.395 7.30098 290.351 10.2629 290.359 12.9499C290.359 13.1988 290.358 13.4476 290.357 13.6965C290.355 14.3736 290.356 15.0507 290.356 15.7278C290.357 16.4609 290.355 17.194 290.354 17.9271C290.351 19.3617 290.351 20.7963 290.352 22.2309C290.352 23.3998 290.352 24.5686 290.351 25.7374C290.351 25.9044 290.351 26.0713 290.35 26.2433C290.35 26.5825 290.35 26.9218 290.35 27.261C290.348 30.4399 290.348 33.6189 290.349 36.7978C290.35 39.692 290.348 42.5861 290.345 45.4803C290.341 48.463 290.34 51.4457 290.34 54.4283C290.341 56.0984 290.34 57.7684 290.338 59.4385C290.335 60.8626 290.335 62.2867 290.337 63.7108C290.338 64.4343 290.339 65.1578 290.336 65.8814C290.328 68.8126 290.398 71.722 290.641 74.6442C290.651 74.772 290.661 74.8998 290.671 75.0314C290.852 77.3011 291.15 80.0259 292.955 81.6365C295.265 83.3251 297.953 83.2942 300.7 83.3368C300.7 83.6979 300.7 84.0589 300.7 84.4309C300.21 84.436 299.72 84.4395 299.23 84.4423C299.096 84.4439 298.963 84.4454 298.826 84.447C297.93 84.4507 297.046 84.4074 296.152 84.3398C294.018 84.1963 291.879 84.226 289.741 84.2308C289.292 84.2311 288.843 84.2314 288.394 84.2316C287.221 84.2322 286.049 84.234 284.876 84.2361C283.676 84.2379 282.476 84.2388 281.276 84.2397C278.928 84.2416 276.58 84.2447 274.233 84.2486C274.233 83.9477 274.233 83.6468 274.233 83.3368C274.398 83.3177 274.398 83.3177 274.567 83.2981C275.072 83.238 275.577 83.1734 276.082 83.1088C276.255 83.0889 276.429 83.0689 276.607 83.0483C277.708 82.9037 279.379 82.2427 279.379 82.2427C279.5 82.2427 279.747 82.0603 279.747 82.0603C279.798 81.9576 279.849 81.8549 279.902 81.749C280.043 81.4702 280.189 81.1933 280.338 80.9184C280.416 80.7725 280.494 80.6265 280.574 80.4761C280.651 80.3325 280.729 80.1888 280.809 80.0408C281.379 78.6842 281.495 77.2283 281.605 75.7754C281.62 75.5703 281.636 75.3652 281.652 75.154C281.828 72.5828 281.82 70.0101 281.814 67.4346C281.813 66.6916 281.814 65.9487 281.814 65.2057C281.815 63.7578 281.814 62.31 281.812 60.8621C281.81 59.1717 281.81 57.4813 281.811 55.7908C281.811 52.7737 281.809 49.7565 281.806 46.7393C281.804 43.8186 281.802 40.8979 281.803 37.9771C281.803 37.7969 281.803 37.6167 281.803 37.431C281.803 37.2511 281.803 37.0711 281.803 36.8858C281.803 33.5478 281.802 30.2098 281.8 26.8718C281.799 25.6961 281.799 24.5204 281.799 23.3447C281.799 21.9117 281.798 20.4787 281.796 19.0457C281.796 18.3159 281.795 17.5861 281.795 16.8563C281.796 16.1865 281.795 15.5168 281.794 14.847C281.793 14.4939 281.793 14.1409 281.794 13.7878C281.92 9.13395 281.92 9.13395 280.081 5.04914C278.887 3.9491 277.544 3.66145 275.967 3.49893C275.782 3.47696 275.596 3.45498 275.405 3.43233C274.953 3.37921 274.501 3.3293 274.049 3.28239C274.049 2.9815 274.049 2.68061 274.049 2.37061Z" fill="#FBFAFC"/>
<path d="M145.483 15.5002L146.092 17.1828C146.165 17.3553 146.165 17.3553 146.239 17.5313C146.724 18.6889 147.166 19.861 147.597 21.0393C147.639 21.1533 147.681 21.2672 147.724 21.3846C149.467 26.1338 151.13 30.9096 152.731 35.7077C153.517 38.0634 154.324 40.4107 155.156 42.7511C155.206 42.891 155.255 43.0309 155.306 43.1751C155.448 43.5731 155.59 43.971 155.732 44.3688C155.797 44.5533 155.797 44.5533 155.864 44.7415C156.059 45.2873 156.258 45.8308 156.466 46.372C156.534 46.5482 156.601 46.7245 156.671 46.9061C156.759 47.1286 156.759 47.1286 156.848 47.3557L157.339 48.6985C154.517 48.7028 151.328 48.6966 148.506 48.6985C147.196 48.6995 145.886 48.7008 144.576 48.7028C143.313 48.7049 142.05 48.7059 140.787 48.7064C140.304 48.7067 139.821 48.7074 139.338 48.7084C138.664 48.7097 137.989 48.7099 137.315 48.7098C137.114 48.7104 136.912 48.7111 136.705 48.7118C136.522 48.7115 136.339 48.7113 136.15 48.711C135.99 48.7112 135.831 48.7114 135.666 48.7115L134.271 48.6985C134.271 48.6985 135.175 46.2354 135.555 45.0676C135.622 44.859 135.688 44.6504 135.756 44.4355C135.964 43.7859 136.174 43.1373 136.385 42.489C136.449 42.2935 136.512 42.0981 136.578 41.8967C136.95 40.7549 137.327 39.6147 137.705 38.475C138.713 35.4424 139.708 32.4066 140.67 29.3593C142.099 24.8343 143.877 19.9667 145.483 15.5002Z" fill="#0C0921"/>
<path d="M288.2 98.6548C293.571 98.6548 293.571 98.6548 294.904 99.7617C295 99.8854 295.097 100.009 295.196 100.136C295.347 100.323 295.347 100.323 295.501 100.514C296.178 101.463 296.011 102.643 295.92 103.761C295.749 104.31 295.516 104.75 295.184 105.22C295.078 105.37 294.972 105.52 294.863 105.676C294.787 105.766 294.711 105.856 294.633 105.949C294.766 105.987 294.898 106.024 295.035 106.063C295.901 106.483 296.487 107.254 296.839 108.137C296.991 109.566 297.038 110.983 296.103 112.149C295.412 112.875 294.847 113.231 293.898 113.608C292.017 113.608 290.137 113.608 288.2 113.608C288.2 108.673 288.2 103.739 288.2 98.6548Z" fill="#F9F9FA"/>
<path d="M378.036 98.6367C378.339 98.6399 378.339 98.6399 378.649 98.6431C378.852 98.6448 379.056 98.6464 379.265 98.6481C379.422 98.6502 379.579 98.6523 379.741 98.6545C379.869 103.701 379.955 108.742 379.925 113.79C379.257 113.79 378.59 113.79 377.903 113.79C377.842 110.24 377.781 106.689 377.719 103.031C377.416 103.813 377.112 104.596 376.8 105.402C376.579 105.954 376.357 106.507 376.133 107.058C376.075 107.201 376.017 107.344 375.957 107.491C375.836 107.788 375.714 108.086 375.593 108.383C375.409 108.835 375.226 109.286 375.043 109.738C374.924 110.03 374.805 110.322 374.686 110.614C374.632 110.746 374.578 110.879 374.523 111.016C374.159 111.903 373.748 112.755 373.308 113.608C372.822 113.608 372.337 113.608 371.837 113.608C371.177 112.042 370.524 110.473 369.879 108.901C369.776 108.651 369.672 108.4 369.569 108.15C369.415 107.778 369.262 107.405 369.109 107.033C369.02 106.816 368.93 106.599 368.838 106.375C368.406 105.269 368.012 104.148 367.61 103.031C367.549 106.521 367.489 110.012 367.426 113.608C366.759 113.608 366.092 113.608 365.404 113.608C365.404 108.733 365.404 103.859 365.404 98.8369C366.193 98.8369 366.981 98.8369 367.794 98.8369C368.941 101.017 369.877 103.259 370.803 105.538C371.029 106.09 371.254 106.641 371.48 107.193C371.619 107.533 371.758 107.874 371.896 108.214C371.959 108.367 372.021 108.519 372.085 108.676C372.139 108.81 372.194 108.944 372.25 109.082C372.349 109.318 372.457 109.55 372.573 109.778C373.105 109.162 373.361 108.493 373.629 107.738C374.499 105.372 375.494 103.062 376.501 100.752C376.582 100.565 376.663 100.379 376.747 100.187C376.823 100.014 376.899 99.8412 376.977 99.6632C377.044 99.5082 377.112 99.3531 377.182 99.1934C377.436 98.658 377.436 98.658 378.036 98.6367Z" fill="#F6F6F8"/>
<path d="M343.163 98.8379C349.309 98.8379 349.309 98.8379 350.56 99.9256C350.659 100.044 350.758 100.163 350.86 100.285C351.013 100.463 351.013 100.463 351.168 100.644C351.926 101.734 351.937 102.842 351.802 104.126C351.473 105.247 350.93 106.321 349.902 106.936C349.13 107.34 348.645 107.591 347.758 107.591C348.823 109.09 349.909 110.566 351.043 112.015C351.172 112.18 351.301 112.345 351.434 112.515C351.542 112.65 351.651 112.784 351.762 112.923C351.986 113.244 351.986 113.244 351.986 113.609C351.108 113.859 350.258 114.007 349.412 113.609C348.45 112.667 347.812 111.442 347.144 110.288C346.363 108.837 346.363 108.837 345.185 107.773C345.185 109.759 345.185 111.745 345.185 113.791C344.518 113.791 343.851 113.791 343.163 113.791C343.163 108.857 343.163 103.922 343.163 98.8379Z" fill="#F8F7F9"/>
<path d="M399.024 98.6548C399.631 98.6548 400.237 98.6548 400.862 98.6548C401.287 99.0844 401.474 99.3445 401.735 99.8629C401.889 100.134 402.042 100.404 402.196 100.674C402.277 100.82 402.358 100.966 402.441 101.116C402.9 101.923 403.412 102.697 403.918 103.476C404.136 103.814 404.353 104.153 404.571 104.492C404.683 104.667 404.796 104.842 404.912 105.022C405.166 105.417 405.42 105.811 405.673 106.206C406.013 106.736 406.354 107.265 406.694 107.794C406.891 108.099 407.087 108.405 407.283 108.71C407.462 108.987 407.462 108.987 407.644 109.269C407.75 109.434 407.855 109.598 407.964 109.768C408.185 110.126 408.185 110.126 408.398 110.326C408.398 106.474 408.398 102.623 408.398 98.6548C409.065 98.6548 409.733 98.6548 410.42 98.6548C410.42 103.589 410.42 108.524 410.42 113.608C409.632 113.608 408.843 113.608 408.031 113.608C407.39 112.919 407.01 112.4 406.56 111.602C406.311 111.207 406.061 110.812 405.811 110.417C405.554 109.996 405.299 109.574 405.044 109.152C404.908 108.928 404.772 108.704 404.636 108.48C404.299 107.924 403.962 107.368 403.626 106.811C403.334 106.329 403.042 105.847 402.749 105.366C402.373 104.745 401.996 104.124 401.621 103.503C401.549 103.385 401.477 103.266 401.404 103.144C401.277 102.929 401.159 102.708 401.046 102.484C400.986 106.155 400.925 109.826 400.862 113.608C400.256 113.608 399.649 113.608 399.024 113.608C399.024 108.673 399.024 103.739 399.024 98.6548Z" fill="#F7F7F9"/>
<path d="M333.712 99.4365C335.765 100.58 337.258 102.319 337.929 104.587C338.339 106.709 337.927 108.842 336.764 110.667C336.574 110.922 336.379 111.173 336.178 111.419C336.083 111.535 335.989 111.652 335.892 111.771C334.92 112.846 333.389 113.678 331.925 113.831C329.109 113.965 327.092 113.787 324.885 111.864C323.097 109.914 322.608 107.579 322.729 105.03C322.889 103.207 324.021 101.551 325.33 100.317C327.766 98.3966 330.928 98.0594 333.712 99.4365ZM326.167 102.283C325.059 103.787 324.651 105.396 324.782 107.225C325.092 109.004 326.014 110.207 327.373 111.36C328.322 112.014 329.124 112.246 330.273 112.229C330.404 112.227 330.534 112.225 330.668 112.224C331.703 112.191 332.416 112.037 333.237 111.419C333.361 111.335 333.484 111.251 333.612 111.164C334.8 110.261 335.64 109.051 335.871 107.564C336.058 105.575 335.837 104.045 334.574 102.448C333.545 101.312 332.332 100.614 330.803 100.391C328.923 100.308 327.451 100.916 326.167 102.283Z" fill="#F7F6F8"/>
<path d="M272.761 98.6548C273.489 98.6548 274.217 98.6548 274.967 98.6548C274.969 99.1751 274.969 99.1751 274.972 99.7059C274.978 100.855 274.988 102.004 275 103.154C275.008 103.85 275.014 104.547 275.016 105.243C275.019 105.916 275.026 106.589 275.034 107.261C275.037 107.517 275.038 107.773 275.039 108.029C275.021 109.951 275.021 109.951 275.886 111.602C276.709 112.146 277.494 112.075 278.459 111.967C279.258 111.607 279.719 111.154 280.142 110.39C280.49 109.426 280.408 108.375 280.409 107.363C280.412 107.111 280.415 106.86 280.418 106.608C280.426 105.949 280.43 105.291 280.433 104.632C280.436 103.959 280.444 103.285 280.451 102.611C280.465 101.293 280.474 99.9737 280.481 98.6548C281.148 98.6548 281.815 98.6548 282.502 98.6548C282.52 100.094 282.533 101.534 282.541 102.973C282.544 103.642 282.55 104.31 282.558 104.979C282.566 105.626 282.57 106.273 282.572 106.919C282.574 107.283 282.58 107.646 282.586 108.01C282.586 109.661 282.406 111.158 281.354 112.491C280.067 113.478 279.196 113.942 277.54 113.904C277.383 113.908 277.227 113.911 277.066 113.915C275.619 113.904 274.742 113.363 273.714 112.388C272.669 110.817 272.685 109.14 272.707 107.31C272.708 107.059 272.709 106.808 272.71 106.557C272.712 105.903 272.717 105.249 272.723 104.595C272.729 103.925 272.731 103.255 272.734 102.585C272.74 101.275 272.75 99.9648 272.761 98.6548Z" fill="#F2F1F3"/>
<path d="M254.195 99.9201C255.406 100.794 255.406 100.794 255.861 101.39C256.001 102.345 255.795 102.938 255.309 103.761C254.689 103.556 254.571 103.399 254.172 102.906C253.108 101.666 252.005 100.793 250.332 100.593C248.707 100.559 247.533 100.816 246.297 101.9C245.04 103.222 244.589 104.453 244.569 106.246C244.567 106.376 244.565 106.507 244.563 106.642C244.588 108.171 245.297 109.549 246.303 110.69C247.901 111.873 249.287 112.146 251.266 111.967C252.765 111.54 253.849 110.472 254.942 109.414C255.478 109.61 255.82 109.738 256.228 110.143C256.128 111.183 255.188 111.942 254.451 112.609C252.733 113.946 250.595 113.966 248.509 113.791C246.646 113.498 245 112.516 243.815 111.07C243.403 110.488 243.093 109.884 242.811 109.232C242.739 109.077 242.667 108.923 242.593 108.764C241.987 106.961 242.034 104.87 242.763 103.122C243.127 102.407 243.565 101.808 244.098 101.208C244.194 101.095 244.29 100.983 244.39 100.867C246.938 98.1007 251.117 97.9697 254.195 99.9201Z" fill="#F7F7F8"/>
<path d="M385.615 98.8379C388.223 98.8379 390.831 98.8379 393.518 98.8379C393.518 99.3795 393.518 99.9211 393.518 100.479C391.577 100.479 389.637 100.479 387.637 100.479C387.637 101.984 387.637 103.488 387.637 105.038C389.335 105.038 391.033 105.038 392.783 105.038C392.783 105.58 392.783 106.121 392.783 106.679C391.085 106.679 389.387 106.679 387.637 106.679C387.637 108.485 387.637 110.29 387.637 112.15C389.638 112.15 391.64 112.15 393.702 112.15C393.702 112.691 393.702 113.233 393.702 113.791C391.033 113.791 388.365 113.791 385.615 113.791C385.615 108.857 385.615 103.922 385.615 98.8379Z" fill="#F8F8F9"/>
<path d="M310.809 98.8379C313.356 98.8379 315.904 98.8379 318.528 98.8379C318.528 99.3795 318.528 99.9211 318.528 100.479C316.709 100.479 314.889 100.479 313.014 100.479C313.014 102.044 313.014 103.608 313.014 105.22C314.409 105.22 315.804 105.22 317.242 105.22C317.242 105.762 317.242 106.304 317.242 106.862C315.847 106.862 314.452 106.862 313.014 106.862C313.014 109.148 313.014 111.435 313.014 113.791C312.286 113.791 311.559 113.791 310.809 113.791C310.809 108.857 310.809 103.922 310.809 98.8379Z" fill="#F1F0F2"/>
<path d="M261.547 98.6548C262.214 98.6548 262.881 98.6548 263.569 98.6548C263.569 103.048 263.569 107.441 263.569 111.967C265.328 111.967 267.087 111.967 268.899 111.967C268.899 112.508 268.899 113.05 268.899 113.608C266.473 113.608 264.047 113.608 261.547 113.608C261.547 108.673 261.547 103.739 261.547 98.6548Z" fill="#F7F6F8"/>
<path d="M290.027 106.678C290.49 106.663 290.952 106.648 291.429 106.633C291.644 106.623 291.644 106.623 291.864 106.613C293.024 106.594 293.638 107.035 294.507 107.784C294.97 108.613 294.942 109.4 294.806 110.325C294.403 111.155 293.988 111.58 293.152 111.967C292.609 112.031 292.078 112.018 291.532 112.001C290.787 111.984 290.787 111.984 290.027 111.967C290.027 110.221 290.027 108.476 290.027 106.678Z" fill="#100E21"/>
<path d="M345.178 100.478C348.237 100.478 348.237 100.478 349.394 101.504C349.882 102.296 349.922 102.855 349.773 103.76C349.457 104.619 348.993 105.166 348.302 105.766C347.313 106.093 346.221 105.948 345.178 105.948C345.178 104.143 345.178 102.338 345.178 100.478Z" fill="#0B0A1C"/>
<path d="M290.027 100.478C292.517 100.478 292.517 100.478 293.336 101.207C293.435 101.288 293.533 101.368 293.635 101.451C294.06 101.963 293.961 102.483 293.94 103.12C293.868 103.739 293.695 104.162 293.336 104.672C292.398 105.317 291.105 105.056 290.027 105.037C290.027 103.532 290.027 102.028 290.027 100.478Z" fill="#0E0C1E"/>
<path d="M417.599 110.792C418.259 110.937 418.696 111.158 418.888 111.785C419.075 112.399 418.969 112.963 418.508 113.415C418.03 113.884 417.269 113.904 416.682 113.608C416.029 113.279 415.842 112.863 415.866 112.138C415.904 111.024 416.448 110.728 417.599 110.792Z" fill="#F6F4F8"/>
<path d="M137.112 40.3005C137.48 40.8476 137.48 40.8476 137.42 41.211C137.372 41.3457 137.324 41.4803 137.275 41.6191C137.224 41.7654 137.173 41.9117 137.12 42.0625C137.037 42.2904 137.037 42.2904 136.952 42.523C136.897 42.6771 136.843 42.8312 136.787 42.9899C136.653 43.3708 136.516 43.7507 136.377 44.13C136.256 44.13 136.135 44.13 136.01 44.13C136.275 42.8135 136.667 41.5677 137.112 40.3005Z" fill="#1C1B25"/>
<path d="M329.008 100.479C329.395 100.464 329.781 100.454 330.168 100.445C330.383 100.438 330.599 100.432 330.821 100.426C331.397 100.479 331.397 100.479 331.948 101.026C330.917 101.026 329.886 101.026 328.824 101.026C328.885 100.845 328.946 100.665 329.008 100.479Z" fill="#181724"/>
<path d="M329.375 26.0769C329.497 26.0769 329.618 26.0769 329.743 26.0769C329.765 27.2499 329.711 28.3778 329.559 29.5417C329.499 29.5417 329.438 29.5417 329.375 29.5417C329.315 28.8797 329.254 28.2178 329.192 27.5358C329.313 27.5358 329.434 27.5358 329.559 27.5358C329.499 27.0543 329.438 26.5729 329.375 26.0769Z" fill="#2B2933"/>
<path d="M126.83 70.7537C126.951 70.8138 127.073 70.874 127.198 70.936C127.076 71.5378 126.955 72.1396 126.83 72.7596C126.648 72.8198 126.466 72.8799 126.279 72.9419C126.336 72.6797 126.393 72.4176 126.451 72.1555C126.483 72.0095 126.515 71.8636 126.548 71.7132C126.646 71.3007 126.646 71.3007 126.83 70.7537Z" fill="#181822"/>
<path d="M246.475 70.5718C246.93 70.7523 246.93 70.7523 247.394 70.9365C247.394 71.0568 247.394 71.1772 247.394 71.3012C247.515 71.3614 247.636 71.4216 247.761 71.4836C247.701 71.7844 247.64 72.0853 247.577 72.3953C247.073 71.8118 246.726 71.3003 246.475 70.5718Z" fill="#1B1925"/>
<path d="M129.587 63.4607C129.771 63.8254 129.771 63.8254 129.688 64.1673C129.639 64.2952 129.591 64.4231 129.541 64.5548C129.472 64.7466 129.472 64.7466 129.401 64.9423C129.22 65.2843 129.22 65.2843 128.668 65.649C128.751 65.318 128.835 64.9876 128.921 64.6574C128.991 64.3813 128.991 64.3813 129.063 64.0997C129.22 63.643 129.22 63.643 129.587 63.4607Z" fill="#15141F"/>
<path d="M247.951 72.2131C248.072 72.4538 248.193 72.6946 248.318 72.9426C248.44 72.9426 248.561 72.9426 248.686 72.9426C248.625 73.2434 248.565 73.5443 248.502 73.8543C248.001 73.4253 247.801 73.011 247.583 72.3955C247.704 72.3353 247.826 72.2751 247.951 72.2131Z" fill="#1A1925"/>
<path d="M124.982 77.866C125.23 78.6046 125.096 79.1045 124.982 79.8719C124.86 79.8719 124.739 79.8719 124.614 79.8719C124.604 79.606 124.597 79.3401 124.591 79.0741C124.585 78.8519 124.585 78.8519 124.578 78.6253C124.614 78.2307 124.614 78.2307 124.982 77.866Z" fill="#2E2F35"/>
<path d="M245.204 68.0193C245.326 68.0193 245.447 68.0193 245.572 68.0193C245.754 68.5007 245.936 68.9821 246.123 69.4781C245.941 69.5684 245.941 69.5684 245.756 69.6605C245.513 69.1791 245.27 68.6977 245.021 68.2016C245.081 68.1415 245.142 68.0813 245.204 68.0193Z" fill="#1A1A24"/>
<path d="M338.017 28.4478C338.199 28.4478 338.381 28.4478 338.568 28.4478C339.119 29.4963 339.119 29.4963 339.119 29.9066C338.937 29.9066 338.755 29.9066 338.568 29.9066C338.386 29.4252 338.204 28.9438 338.017 28.4478Z" fill="#24232E"/>
<path d="M126.099 72.9429C126.221 73.003 126.342 73.0632 126.467 73.1252C126.406 73.4863 126.346 73.8474 126.283 74.2194C126.101 74.2795 125.919 74.3397 125.732 74.4017C125.853 73.9203 125.974 73.4389 126.099 72.9429Z" fill="#21202A"/>
<path d="M168.926 55.9829C169.047 55.9829 169.168 55.9829 169.293 55.9829C169.293 56.1033 169.293 56.2236 169.293 56.3476C169.475 56.4078 169.657 56.468 169.845 56.53C169.723 56.8309 169.602 57.1318 169.477 57.4418C169.12 56.9097 169.026 56.5983 168.926 55.9829Z" fill="#161621"/>
</svg>
