<svg width="420" height="188" viewBox="0 0 420 188" fill="none" xmlns="http://www.w3.org/2000/svg">
<path d="M148.216 55.3876L160.57 55.3848V12.3108L191.446 12.3127L185.271 0.00462951H160.57V0.00268555H148.218V0.00462951H117.341L117.338 12.3099L148.218 12.3108L148.216 55.3876Z" fill="#FEFEFE"/>
<path d="M216.149 12.313L216.146 36.9272L209.977 43.0759L185.272 43.0787V18.4615L172.921 18.4673L172.918 55.3848L185.272 55.3876V55.3856L216.149 55.3876L216.149 55.3868L228.5 43.0806L228.504 0.00268555L191.448 0.00546264L197.623 12.313H216.149Z" fill="#FEFEFE"/>
<path d="M247.007 43.081V43.0779H277.883L277.882 55.3849L290.236 55.3879V43.0779V30.7707V0.00694272L277.885 0.000833127L277.884 30.7707L247.007 30.7727L247.005 12.3131H253.182V0L247.004 0.00388793V0.00277709L234.657 0.00583189L234.655 30.7738V31.1378L234.654 43.0779L247.007 43.081Z" fill="#FEFEFE"/>
<path d="M314.956 30.7699L308.78 30.7718V0.00389709H296.429L296.427 30.7727H296.426L296.427 32.8738L296.426 55.388L308.78 55.3852V43.0782L339.658 43.081L339.652 55.388L352.006 55.3852V43.0782L352.005 30.768L329.593 30.7699L354.294 0.00500792L339.658 0.00195312L314.956 30.7699Z" fill="#FEFEFE"/>
<path d="M413.752 18.4657V0.00583189V0.00277709H407.209L401.401 0V0.00388793L370.521 0.00583189V0.0116638L358.173 12.31L370.526 12.3131H401.4V18.4646L358.169 18.4626L358.17 20.5144V55.3879L370.524 55.3849V30.7727H401.399L401.398 55.3849L413.752 55.3879V30.7727H419.927V18.4657H413.752Z" fill="#FEFEFE"/>
<path d="M123.529 67.6934H92.6523H92.6504L80.301 79.9984H80.3002V80.0003L80.2971 104.615H92.6543V86.1521L98.8277 80.0003H123.529V104.617L117.352 110.767L80.3002 110.769L80.2971 123.079L123.529 123.075V123.074L135.88 110.767V80.0003V67.6934H123.529Z" fill="#FEFEFE"/>
<path d="M277.884 67.6926V92.306L247.008 92.3079L247.006 86.1536L234.658 86.1564L234.657 92.3079H234.656V95.6635L234.655 98.4597H234.656V104.615H277.884V110.767L234.654 110.769L234.659 123.076H282.002L290.237 123.078V123.076V122.16L290.241 67.6926H277.884Z" fill="#FEFEFE"/>
<path d="M247.007 79.9996L247.01 67.6954H222.308L209.954 67.6926V67.6954H197.601L191.427 79.9996H209.954V123.074L222.305 123.079L222.307 79.9996H247.007Z" fill="#FEFEFE"/>
<path d="M345.832 67.6929H296.429L296.426 80.0029H296.429L296.428 123.074L308.78 123.08V123.076H314.958L314.955 110.766L308.78 110.767L308.782 80.002L339.657 80.0001V123.078H352.009L352.011 67.6929L345.832 67.694V67.6929Z" fill="#FEFEFE"/>
<path d="M370.524 86.1531L376.697 80.0004H401.4V86.1531H370.524ZM419.927 86.1531H413.752V69.7421V67.6904L370.524 67.6965L358.172 80.0038V86.1534L358.169 98.4636H358.172L358.17 123.076L370.524 123.079V98.4636L401.399 98.4617L401.398 123.079L413.752 123.076V98.4606H419.927V86.1534V86.1531Z" fill="#FEFEFE"/>
<path d="M197.605 104.613L185.251 104.615V110.768H154.378L154.381 86.1505L160.551 80.0025H185.254L191.428 67.6953L154.376 67.6934L142.025 79.9995L142.028 110.768H142.025L142.028 123.077L197.61 123.075L197.605 113.443V104.613Z" fill="#FEFEFE"/>
<path d="M24.7079 110.77V86.1565L30.8833 80.003L55.585 80.0011L55.5831 110.768L24.7079 110.77ZM67.9363 80.0011V67.6938H60.419L55.5853 67.6919V67.6938H24.7082V67.6947L12.3572 80.0011L12.3541 80.005L12.3521 110.771H11.7067L0.00306567 110.768L0 129.232L12.3541 129.229L12.3549 123.076H24.7082H55.5825L67.9366 123.079V123.076H74.1089L74.112 110.766L67.9366 110.767V80.0011H67.9363Z" fill="#FEFEFE"/>
<path d="M114.25 95.3855C114.25 91.9867 111.482 89.229 108.077 89.229C104.666 89.229 101.899 91.9869 101.899 95.3855C101.896 98.7816 104.664 101.539 108.074 101.539C111.486 101.539 114.253 98.7814 114.25 95.3855Z" fill="#FEFEFE"/>
<path d="M206.881 27.6946C206.881 24.2955 204.114 21.5381 200.703 21.5381C197.295 21.5409 194.525 24.2957 194.528 27.6916C194.528 31.0904 197.295 33.8481 200.706 33.8481C204.114 33.8509 206.881 31.0932 206.881 27.6946Z" fill="#FEFEFE"/>
<path fill-rule="evenodd" clip-rule="evenodd" d="M16.4902 9.54846V36.7289L106.554 36.7309L106.558 0.170502L25.9041 0.167725L16.4902 9.54846Z" fill="#E31E25"/>
<path d="M59.8461 3.48779H26.4877L19.8118 10.1389H36.4968L36.4949 33.4073H43.1708V10.1389H59.8461V3.48779Z" fill="#FEFEFE"/>
<path d="M87.7579 20.1117L101.1 3.49362L93.1956 3.48779L79.8477 20.1126H76.5155V20.1056V3.49057L69.8433 3.48779L69.8394 23.434H69.8455L69.8433 33.4065H76.5125L76.5144 26.7562L93.1936 26.7581L93.1906 33.4065H99.8665L99.8637 26.7581L99.8665 20.1098L87.7579 20.1117Z" fill="#FEFEFE"/>
<path d="M53.1884 13.4604L46.5183 13.4663V20.1116H46.5164L46.5172 21.5226L46.5164 26.761H53.1853V26.7599L66.5304 26.758V20.1116H53.1873L53.1884 13.4604Z" fill="#FEFEFE"/>
<path d="M24.8135 33.4072C22.0489 33.4072 19.8118 31.1775 19.8118 28.4229C19.8087 25.6652 22.0492 23.4327 24.8166 23.4358C27.5813 23.4358 29.8187 25.6655 29.8187 28.4201C29.8187 31.175 27.581 33.4042 24.8135 33.4072Z" fill="#FEFEFE"/>
<path opacity="0.8" fill-rule="evenodd" clip-rule="evenodd" d="M177.94 188H180.537C184.285 188 186.266 186.026 186.266 182.292V173.994H182.601V182.292C182.601 183.713 181.963 184.348 180.538 184.348H177.94C176.513 184.348 175.877 183.712 175.877 182.292V153.821C175.877 152.399 176.513 151.765 177.94 151.765H180.538C181.963 151.765 182.601 152.399 182.601 153.821V162.118H186.266V153.821C186.266 150.087 184.285 148.113 180.537 148.113H177.94C174.193 148.113 172.21 150.087 172.21 153.821V182.292C172.21 186.026 174.193 188 177.94 188Z" fill="#E31E25"/>
<path opacity="0.8" fill-rule="evenodd" clip-rule="evenodd" d="M198.252 188H201.919V151.765H207.113V148.113H193.058V151.765H198.252V188Z" fill="#E31E25"/>
<path opacity="0.8" fill-rule="evenodd" clip-rule="evenodd" d="M213.89 188H217.556V169.883H222.217C225.965 169.883 227.945 167.908 227.945 164.174V153.821C227.945 150.087 225.965 148.113 222.217 148.113H213.89V188ZM217.556 151.765H222.217C223.644 151.765 224.28 152.399 224.28 153.821V164.199C224.28 165.623 223.663 166.229 222.217 166.229H217.556V151.764V151.765Z" fill="#E31E25"/>
<path opacity="0.8" fill-rule="evenodd" clip-rule="evenodd" d="M234.737 188H238.28L245.127 162.343V188H248.793V148.113H245.226L238.404 173.666V148.113H234.737V188Z" fill="#E31E25"/>
<path opacity="0.8" fill-rule="evenodd" clip-rule="evenodd" d="M255.585 188H259.25V151.765H265.975V188H269.64V148.113H255.585V188Z" fill="#E31E25"/>
<path opacity="0.8" fill-rule="evenodd" clip-rule="evenodd" d="M281.619 188H285.286V151.765H290.479V148.113H276.425V151.765H281.619V188Z" fill="#E31E25"/>
<path opacity="0.8" fill-rule="evenodd" clip-rule="evenodd" d="M297.272 188H300.814L307.662 162.343V188H311.328V148.113H307.76L300.938 173.666V148.113H297.272V188Z" fill="#E31E25"/>
<path opacity="0.8" fill-rule="evenodd" clip-rule="evenodd" d="M323.832 188H326.43C330.178 188 332.158 186.026 332.158 182.292V173.232C332.158 170.844 331.448 169.108 330.042 168.056C331.448 167.005 332.158 165.269 332.158 162.88V153.821C332.158 150.087 330.178 148.113 326.43 148.113H323.832C320.086 148.113 318.104 150.087 318.104 153.821V162.118H321.769V153.821C321.769 152.399 322.406 151.765 323.832 151.765H326.43C327.857 151.765 328.494 152.399 328.494 153.821V161.612C328.494 165.751 326.575 166.23 325.132 166.23H321.999V169.883H325.132C326.575 169.883 328.494 170.364 328.494 174.527V182.292C328.494 183.713 327.856 184.348 326.43 184.348H323.832C322.405 184.348 321.769 183.712 321.769 182.292V173.994H318.104V182.292C318.104 186.026 320.086 188 323.832 188Z" fill="#E31E25"/>
<path opacity="0.8" fill-rule="evenodd" clip-rule="evenodd" d="M338.944 188H353V184.347H338.944V188Z" fill="#E31E25"/>
<path opacity="0.8" fill-rule="evenodd" clip-rule="evenodd" d="M359.776 188H368.102C371.85 188 373.83 186.026 373.83 182.292V166.763C373.83 163.028 371.85 161.054 368.102 161.054H363.441V151.764H372.558V148.113H359.776V188H359.776ZM363.441 164.706H368.102C369.549 164.706 370.165 165.313 370.165 166.736V182.292C370.165 183.713 369.529 184.348 368.102 184.348H363.441V164.706V164.706Z" fill="#E31E25"/>
<path opacity="0.8" fill-rule="evenodd" clip-rule="evenodd" d="M379.253 188H382.927L383.628 182.824H389.085L389.786 188H393.46L388.123 148.113H384.59L379.253 188H379.253ZM386.355 162.375L388.604 179.171H384.108L386.355 162.375Z" fill="#E31E25"/>
<path opacity="0.8" fill-rule="evenodd" clip-rule="evenodd" d="M398.874 188H402.538V169.883H407.2C410.948 169.883 412.928 167.908 412.928 164.174V153.821C412.928 150.087 410.948 148.113 407.2 148.113H398.874V188ZM402.538 151.765H407.2C408.626 151.765 409.263 152.399 409.263 153.821V164.199C409.263 165.623 408.646 166.229 407.2 166.229H402.538V151.764V151.765Z" fill="#E31E25"/>
</svg>
