<svg width="137" height="42" viewBox="0 0 137 42" fill="none" xmlns="http://www.w3.org/2000/svg">
<path d="M48.1679 18.001L52.183 18.0001V4.00108L62.2177 4.00171L60.2107 0.00160835H52.183V0.000976562H48.1686V0.00160835H38.1338L38.1328 4.00081L48.1686 4.00108L48.1679 18.001Z" fill="#FEFEFE"/>
<path d="M70.2529 4.0018L70.2522 12.0014L68.2472 13.9997L60.2182 14.0006V6.00005L56.204 6.00194L56.2031 18.0001L60.2182 18.001V18.0004L70.2529 18.001L70.2532 18.0007L74.2673 14.0012L74.2683 0.000976562L62.2252 0.00187911L64.2322 4.0018H70.2529Z" fill="#FEFEFE"/>
<path d="M80.2806 14.0013V14.0003H90.3151L90.3148 18L94.3298 18.001V14.0003V10.0004V0.00225637L90.3158 0.000270765L90.3154 10.0004L80.2806 10.0011L80.28 4.00173H82.2874V0L80.2796 0.00126357V0.00090255L76.2666 0.00189535L76.266 10.0014V10.1197L76.2656 14.0003L80.2806 14.0013Z" fill="#FEFEFE"/>
<path d="M102.366 10L100.359 10.0007V0.00112007H96.3447L96.3441 10.0009H96.3438L96.3441 10.6838L96.3438 18.0009L100.359 18V14.0002L110.394 14.0011L110.392 18.0009L114.407 18V14.0002L114.407 9.99939L107.123 10L115.151 0.00148109L110.394 0.000488281L102.366 10Z" fill="#FEFEFE"/>
<path d="M134.471 6.00132V0.00189535V0.00090255H132.344L130.457 0V0.00126357L120.42 0.00189535V0.00379071L116.408 4.00073L120.422 4.00173H130.456V6.00096L116.406 6.00033L116.407 6.66714V18.001L120.422 18V10.0011H130.456L130.456 18L134.471 18.001V10.0011H136.477V6.00132H134.471Z" fill="#FEFEFE"/>
<path d="M40.1595 22.0002H30.1248H30.1242L26.1106 25.9994H26.1104V26L26.1094 33.9996H30.1254V27.9993L32.1318 26H40.1595V34.0003L38.1522 35.999L26.1104 35.9996L26.1094 40.0003L40.1595 39.9993V39.999L44.1736 35.9992V26V22.0002H40.1595Z" fill="#FEFEFE"/>
<path d="M90.3154 22V29.9993L80.2809 29.9999L80.2802 27.9998L76.2672 28.0007L76.2669 29.9999H76.2665V31.0905L76.2663 31.9993H76.2665V33.9998H90.3154V35.9991L76.2656 35.9997L76.2675 39.9995H91.6538L94.3303 40.0001V39.9995V39.7018L94.3313 22H90.3154Z" fill="#FEFEFE"/>
<path d="M80.2741 25.9997L80.2751 22.0009H72.247L68.2321 22V22.0009H64.2174L62.2109 25.9997H68.2321V39.9987L72.2461 40.0006L72.2467 25.9997H80.2741Z" fill="#FEFEFE"/>
<path d="M112.401 22H96.3447L96.3438 26.0007H96.3447L96.3444 39.9988L100.359 40.0007V39.9995H102.366L102.366 35.9987L100.359 35.9991L100.359 26.0005L110.394 25.9998V40.0001H114.408L114.409 22L112.401 22.0004V22Z" fill="#FEFEFE"/>
<path d="M120.422 27.9996L122.428 26H130.456V27.9996H120.422ZM136.477 27.9996H134.471V22.6661V21.9993L120.422 22.0013L116.407 26.0011V27.9997L116.406 32.0005H116.407L116.407 39.9995L120.422 40.0004V32.0005L130.456 31.9999L130.456 40.0004L134.471 39.9995V31.9995H136.477V27.9997V27.9996Z" fill="#FEFEFE"/>
<path d="M64.2198 33.999L60.2048 33.9996V35.9993H50.1709L50.1719 27.9988L52.1774 26.0007H60.2058L62.2124 22.0009L50.1703 22.0002L46.1562 25.9997L46.1572 35.9993H46.1562L46.1572 40L64.2213 39.9991L64.2198 36.8688V33.999Z" fill="#FEFEFE"/>
<path d="M8.03003 36V28.0007L10.037 26.0009L18.065 26.0002L18.0644 35.9994L8.03003 36ZM22.0792 26.0002V22.0004H19.6361L18.0651 21.9998V22.0004H8.03012V22.0007L4.01606 26.0002L4.01506 26.0015L4.01442 36.0004H3.80465L0.000996338 35.9994L0 42.0001L4.01506 41.9991L4.01533 39.9996H8.03012H18.0642L22.0793 40.0005V39.9996H24.0853L24.0863 35.9988L22.0793 35.9991V26.0002H22.0792Z" fill="#FEFEFE"/>
<path d="M37.1313 31.0001C37.1313 29.8955 36.2317 28.9993 35.1252 28.9993C34.0166 28.9993 33.1172 29.8956 33.1172 31.0001C33.1163 32.1039 34.0157 33 35.1242 33C36.2328 33 37.1322 32.1038 37.1313 31.0001Z" fill="#FEFEFE"/>
<path d="M67.2414 9.00062C67.2414 7.8959 66.342 6.99976 65.2335 6.99976C64.1259 7.00066 63.2256 7.89599 63.2266 8.99963C63.2266 10.1043 64.126 11.0005 65.2345 11.0005C66.3421 11.0014 67.2414 10.1052 67.2414 9.00062Z" fill="#FEFEFE"/>
<path fill-rule="evenodd" clip-rule="evenodd" d="M5.35938 3.10317V11.9368L34.6299 11.9374L34.6311 0.0553459L8.41886 0.0544434L5.35938 3.10317Z" fill="#E31E25"/>
<path d="M19.4564 1.13354H8.61497L6.44531 3.29515H11.8679L11.8673 10.8573H14.037V3.29515H19.4564V1.13354Z" fill="#FEFEFE"/>
<path d="M28.5266 6.5363L32.8628 1.13544L30.2939 1.13354L25.9558 6.53657H24.8729V6.53431V1.13445L22.7044 1.13354L22.7031 7.61602H22.7051L22.7044 10.8571H24.8719L24.8725 8.69574L30.2932 8.69637L30.2922 10.8571H32.4619L32.461 8.69637L32.4619 6.53567L28.5266 6.5363Z" fill="#FEFEFE"/>
<path d="M17.2934 4.37476L15.1256 4.37665V6.53636H15.125L15.1253 6.99495L15.125 8.69743H17.2924V8.69707L21.6295 8.69643V6.53636H17.293L17.2934 4.37476Z" fill="#FEFEFE"/>
<path d="M8.07088 10.8572C7.17237 10.8572 6.44531 10.1325 6.44531 9.23726C6.44432 8.34102 7.17246 7.61546 8.07188 7.61646C8.9704 7.61646 9.69754 8.34111 9.69754 9.23635C9.69754 10.1317 8.9703 10.8562 8.07088 10.8572Z" fill="#FEFEFE"/>
</svg>
