<svg width="124" height="29" viewBox="0 0 124 29" fill="none" xmlns="http://www.w3.org/2000/svg">
<path d="M6.4799 0.320067C8.69324 0.320067 10.3332 0.906734 11.3999 2.08007C12.4932 3.2534 13.0399 4.9734 13.0399 7.24007L13.0399 10.8801C13.0399 13.1467 12.4932 14.8667 11.3999 16.0401C10.3332 17.2134 8.69324 17.8001 6.4799 17.8001L4.3999 17.8001L4.3999 28.3201L-9.81122e-05 28.3201L-9.75809e-05 0.320066L6.4799 0.320067ZM4.3999 4.32007L4.3999 13.8001L6.4799 13.8001C7.17324 13.8001 7.70657 13.6134 8.0799 13.2401C8.45324 12.8667 8.6399 12.1734 8.6399 11.1601L8.6399 6.96007C8.6399 5.94673 8.45324 5.2534 8.0799 4.88007C7.70657 4.50673 7.17324 4.32007 6.4799 4.32007L4.3999 4.32007ZM24.278 28.3201C24.2247 28.1334 24.1714 27.9601 24.118 27.8001C24.0647 27.6401 24.0114 27.4401 23.958 27.2001C23.9314 26.9601 23.9047 26.6534 23.878 26.2801C23.878 25.9067 23.878 25.4401 23.878 24.8801L23.878 20.4801C23.878 19.1734 23.6514 18.2534 23.198 17.7201C22.7447 17.1867 22.0114 16.9201 20.998 16.9201L19.478 16.9201L19.478 28.3201L15.078 28.3201L15.078 0.320067L21.718 0.320067C24.0114 0.320067 25.6647 0.853401 26.678 1.92007C27.718 2.98674 28.238 4.60007 28.238 6.76007L28.238 8.96007C28.238 11.8401 27.278 13.7334 25.358 14.6401C26.478 15.0934 27.238 15.8401 27.638 16.8801C28.0647 17.8934 28.278 19.1334 28.278 20.6001L28.278 24.9201C28.278 25.6134 28.3047 26.2267 28.358 26.7601C28.4114 27.2667 28.5447 27.7867 28.758 28.3201L24.278 28.3201ZM19.478 4.32007L19.478 12.9201L21.198 12.9201C22.0247 12.9201 22.6647 12.7067 23.118 12.2801C23.598 11.8534 23.838 11.0801 23.838 9.96007L23.838 7.20007C23.838 6.18673 23.6514 5.4534 23.278 5.00007C22.9314 4.54673 22.3714 4.32007 21.598 4.32007L19.478 4.32007ZM35.2118 21.8801C35.2118 22.8934 35.4118 23.6134 35.8118 24.0401C36.2384 24.4401 36.7984 24.6401 37.4918 24.6401C38.1851 24.6401 38.7318 24.4401 39.1318 24.0401C39.5584 23.6134 39.7718 22.8934 39.7718 21.8801L39.7718 6.76007C39.7718 5.74673 39.5584 5.04007 39.1318 4.64007C38.7318 4.2134 38.1851 4.00007 37.4918 4.00007C36.7984 4.00007 36.2384 4.2134 35.8118 4.64007C35.4118 5.04007 35.2118 5.74673 35.2118 6.76007L35.2118 21.8801ZM30.8118 7.04007C30.8118 4.7734 31.3851 3.04007 32.5318 1.84007C33.6784 0.613401 35.3318 6.88886e-05 37.4918 6.89296e-05C39.6518 6.89706e-05 41.3051 0.613402 42.4518 1.84007C43.5984 3.04007 44.1718 4.7734 44.1718 7.04007L44.1718 21.6001C44.1718 23.8667 43.5984 25.6134 42.4518 26.8401C41.3051 28.0401 39.6518 28.6401 37.4918 28.6401C35.3318 28.6401 33.6784 28.0401 32.5318 26.8401C31.3851 25.6134 30.8118 23.8667 30.8118 21.6001L30.8118 7.04007Z" fill="#E0223B"/>
<path d="M46.8312 12.3201L54.8312 12.3201L54.8312 16.3201L46.8312 16.3201L46.8312 12.3201ZM57.2524 7.04007C57.2524 4.7734 57.7857 3.04007 58.8524 1.84007C59.9457 0.613402 61.5724 6.93865e-05 63.7324 6.94275e-05C65.8924 6.94685e-05 67.5057 0.613402 68.5724 1.84007C69.6657 3.04007 70.2124 4.7734 70.2124 7.04007L70.2124 8.12007L66.0524 8.12007L66.0524 6.76007C66.0524 5.74674 65.8524 5.04007 65.4524 4.64007C65.0791 4.2134 64.5457 4.00007 63.8524 4.00007C63.1591 4.00007 62.6124 4.2134 62.2124 4.64007C61.8391 5.04007 61.6524 5.74674 61.6524 6.76007C61.6524 7.72007 61.8657 8.5734 62.2924 9.32007C62.7191 10.0401 63.2524 10.7334 63.8924 11.4001C64.5324 12.0401 65.2124 12.6934 65.9324 13.3601C66.6791 14.0001 67.3724 14.7067 68.0124 15.4801C68.6524 16.2534 69.1857 17.1334 69.6124 18.1201C70.0391 19.1067 70.2524 20.2667 70.2524 21.6001C70.2524 23.8667 69.6924 25.6134 68.5724 26.8401C67.4791 28.0401 65.8524 28.6401 63.6924 28.6401C61.5324 28.6401 59.8924 28.0401 58.7724 26.8401C57.6791 25.6134 57.1324 23.8667 57.1324 21.6001L57.1324 19.6801L61.2924 19.6801L61.2924 21.8801C61.2924 22.8934 61.4924 23.6001 61.8924 24.0001C62.3191 24.4001 62.8791 24.6001 63.5724 24.6001C64.2657 24.6001 64.8124 24.4001 65.2124 24.0001C65.6391 23.6001 65.8524 22.8934 65.8524 21.8801C65.8524 20.9201 65.6391 20.0801 65.2124 19.3601C64.7857 18.6134 64.2524 17.9201 63.6124 17.2801C62.9724 16.6134 62.2791 15.9601 61.5324 15.3201C60.8124 14.6534 60.1324 13.9334 59.4924 13.1601C58.8524 12.3867 58.3191 11.5067 57.8924 10.5201C57.4657 9.5334 57.2524 8.3734 57.2524 7.04007ZM71.5733 0.320068L85.1733 0.320068L85.1733 4.32007L80.5733 4.32007L80.5733 28.3201L76.1733 28.3201L76.1733 4.32007L71.5733 4.32007L71.5733 0.320068ZM96.3874 28.3201C96.3341 28.1334 96.2807 27.9601 96.2274 27.8001C96.1741 27.6401 96.1207 27.4401 96.0674 27.2001C96.0407 26.9601 96.0141 26.6534 95.9874 26.2801C95.9874 25.9067 95.9874 25.4401 95.9874 24.8801L95.9874 20.4801C95.9874 19.1734 95.7607 18.2534 95.3074 17.7201C94.8541 17.1867 94.1207 16.9201 93.1074 16.9201L91.5874 16.9201L91.5874 28.3201L87.1874 28.3201L87.1874 0.320068L93.8274 0.320068C96.1207 0.320068 97.7741 0.853402 98.7874 1.92007C99.8274 2.98674 100.347 4.60007 100.347 6.76007L100.347 8.96007C100.347 11.8401 99.3874 13.7334 97.4674 14.6401C98.5874 15.0934 99.3474 15.8401 99.7474 16.8801C100.174 17.8934 100.387 19.1334 100.387 20.6001L100.387 24.9201C100.387 25.6134 100.414 26.2267 100.467 26.7601C100.521 27.2667 100.654 27.7867 100.867 28.3201L96.3874 28.3201ZM91.5874 4.32007L91.5874 12.9201L93.3074 12.9201C94.1341 12.9201 94.7741 12.7067 95.2274 12.2801C95.7074 11.8534 95.9474 11.0801 95.9474 9.96007L95.9474 7.20007C95.9474 6.18674 95.7607 5.4534 95.3874 5.00007C95.0407 4.54674 94.4807 4.32007 93.7074 4.32007L91.5874 4.32007ZM103.281 0.320068L107.681 0.320069L107.681 28.3201L103.281 28.3201L103.281 0.320068ZM117.378 0.320069C119.592 0.320069 121.232 0.906736 122.298 2.08007C123.392 3.2534 123.938 4.9734 123.938 7.24007L123.938 10.8801C123.938 13.1467 123.392 14.8667 122.298 16.0401C121.232 17.2134 119.592 17.8001 117.378 17.8001L115.298 17.8001L115.298 28.3201L110.898 28.3201L110.898 0.320069L117.378 0.320069ZM115.298 4.32007L115.298 13.8001L117.378 13.8001C118.072 13.8001 118.605 13.6134 118.978 13.2401C119.352 12.8667 119.538 12.1734 119.538 11.1601L119.538 6.96007C119.538 5.94674 119.352 5.2534 118.978 4.88007C118.605 4.50674 118.072 4.32007 117.378 4.32007L115.298 4.32007Z" fill="white"/>
</svg>
