<svg width="316" height="86" viewBox="0 0 316 86" fill="none" xmlns="http://www.w3.org/2000/svg">
<path d="M63.8042 0C64.077 0.0667419 64.077 0.0667419 64.3554 0.134832C64.5869 0.957294 64.7117 1.75763 64.799 2.60553C64.8132 2.73794 64.8275 2.87036 64.8422 3.00679C64.8874 3.42862 64.9314 3.85055 64.9755 4.27249C65.0051 4.54892 65.0347 4.82535 65.0644 5.10177C65.204 6.40936 65.3374 7.7174 65.4627 9.02638C65.5709 10.1553 65.6955 11.2817 65.8284 12.4081C66.0533 14.3205 66.2481 16.2335 66.4049 18.1524C66.5074 19.3647 66.6514 20.5688 66.8089 21.7754C67.0142 23.3521 67.1923 24.9315 67.3699 26.5114C67.4057 26.8287 67.4416 27.146 67.4774 27.4633C67.7812 30.1533 68.0814 32.8436 68.3784 35.5343C68.4566 36.2427 68.5354 36.951 68.6144 37.6593C68.7814 39.1616 68.9471 40.6634 69.0654 42.1703C69.1229 42.8458 69.2119 43.5132 69.3148 44.1832C69.6474 46.3564 69.8468 48.5416 70.0571 50.7288C70.3137 55.493 71.9346 59.2587 72.4859 59.5958C73.0643 59.9495 73.3652 60.1751 73.8639 60.4048C73.9684 60.454 74.0728 60.5032 74.1804 60.5539C75.2241 61.001 76.3412 61.2311 77.4468 61.4835C77.4468 61.7059 77.4468 61.9284 77.4468 62.1576C72.7628 62.1576 68.0789 62.1576 63.253 62.1576C63.3824 61.6512 63.5396 61.3471 63.8128 60.9146C64.9602 58.7817 63.9662 54.8644 63.6922 52.5677C63.634 52.0586 63.5766 51.5493 63.5192 51.0401C63.4816 50.707 63.4439 50.3739 63.4058 50.0409C63.2618 48.7749 63.1371 47.5084 63.029 46.239C62.9334 45.1248 62.834 44.0115 62.7168 42.8993C62.7059 42.7958 62.6951 42.6924 62.6838 42.5858C62.6612 42.3711 62.6385 42.1564 62.6159 41.9417C62.3801 39.7056 62.1813 37.4678 61.9959 35.2272C61.7576 32.3479 61.4918 29.4755 61.1596 26.6052C61.1312 26.3594 61.1028 26.1136 61.0745 25.8678C61.0606 25.7477 61.0468 25.6277 61.0325 25.5041C60.9318 24.6198 60.8427 23.7348 60.759 22.8488C60.747 22.721 60.7349 22.5933 60.7224 22.4617C60.6656 21.8587 60.6101 21.2556 60.5563 20.6524C60.4228 19.1923 60.2126 17.7572 59.9457 16.3147C59.8093 16.2702 59.6728 16.2257 59.5323 16.1799C58.7772 17.6345 58.0594 19.1016 57.3705 20.5872C57.2743 20.7938 57.178 21.0005 57.0818 21.2071C56.4093 22.6524 55.7455 24.1014 55.0839 25.5515C54.512 26.8019 53.9248 28.0449 53.3328 29.2863C52.7529 30.5039 52.1836 31.7259 51.6171 32.9496C50.9268 34.4404 50.2279 35.9268 49.5185 37.409C48.8208 38.867 48.129 40.3276 47.4399 41.7895C47.3881 41.8995 47.3363 42.0094 47.2829 42.1227C47.0178 42.6852 46.7528 43.2476 46.4878 43.8101C46.003 44.8391 45.5176 45.8678 45.0323 46.8965C44.7715 47.4493 44.5107 48.0021 44.25 48.5549C44.1519 48.7628 44.0538 48.9708 43.9557 49.1788C43.9096 49.2764 43.8636 49.374 43.8161 49.4746C43.2488 50.6774 43.2488 50.6774 43.0503 51.0982C42.9228 51.3685 42.7953 51.6388 42.6678 51.9091C42.3078 52.6725 41.9475 53.4358 41.5871 54.199C41.3707 54.6571 41.1544 55.1152 40.9381 55.5733C40.829 55.8044 40.7199 56.0354 40.6108 56.2664C40.1047 57.3374 39.5988 58.4083 39.1049 59.4847C39.0419 59.622 38.9789 59.7592 38.9139 59.9006C38.8036 60.1418 38.6261 60.3589 38.5171 60.6007L37.4147 62.5621L36.8635 61.8206L36.035 60.6007C36.035 60.6007 35.9677 60.4721 35.8991 60.3409C35.7519 60.0592 35.6057 59.777 35.4596 59.4947C35.3563 59.2966 35.253 59.0986 35.1496 58.9006C34.9339 58.4876 34.7186 58.0744 34.5034 57.6611C34.1843 57.0485 33.8626 56.4372 33.54 55.8263C33.4625 55.6795 33.4625 55.6795 33.3835 55.5297C33.1838 55.1515 32.9841 54.7733 32.7843 54.3952C32.2004 53.2894 31.6243 52.1802 31.057 51.0662C30.7306 50.4254 30.4025 49.7855 30.0745 49.1455C29.7861 48.5829 29.4981 48.0202 29.21 47.4575C28.9985 47.0443 28.7869 46.6311 28.575 46.218C27.5384 44.1968 26.5159 42.1699 25.5265 40.126C25.3633 39.7888 25.1996 39.4519 25.0357 39.1151C23.1652 35.2691 21.3247 31.4114 19.5423 27.5255C19.0453 26.4417 18.5476 25.3583 18.0446 24.2772C18.0003 24.182 17.9561 24.0869 17.9105 23.9889C17.696 23.5282 17.4812 23.0676 17.2661 22.6072C16.855 21.7258 16.45 20.8424 16.0561 19.9536C15.9795 19.7815 15.9029 19.6094 15.8262 19.4373C15.6837 19.1164 15.5425 18.7949 15.4027 18.4729C15.3401 18.3322 15.2776 18.1914 15.2131 18.0464C15.1592 17.923 15.1052 17.7995 15.0496 17.6722C14.8993 17.3489 14.8993 17.3489 14.4703 17.2585C14.0525 17.499 13.9376 17.6085 13.7813 18.0675C13.7523 18.3553 13.7302 18.6437 13.7113 18.9323C13.698 19.1259 13.6847 19.3194 13.6713 19.5129C13.6641 19.6193 13.6569 19.7257 13.6494 19.8353C13.4424 22.8618 13.172 25.883 12.9028 28.9046C12.8813 29.1457 12.8599 29.3868 12.8384 29.6279C12.7529 30.5881 12.6674 31.5483 12.5818 32.5084C12.4042 34.5007 12.2305 36.4934 12.0587 38.4862C12.0049 39.1091 11.9511 39.732 11.8972 40.3548C11.8834 40.5152 11.8695 40.6755 11.8552 40.8407C11.6694 42.991 11.4833 45.1413 11.2964 47.2915C11.2417 47.9202 11.1871 48.5489 11.1327 49.1777C11.0816 49.769 11.0302 50.3603 10.9787 50.9516C10.9597 51.1707 10.9407 51.3897 10.9218 51.6088C10.8957 51.9116 10.8693 52.2144 10.8428 52.5172C10.8281 52.6873 10.8133 52.8573 10.7981 53.0325C10.7632 53.3895 10.7232 53.7434 10.6765 54.0989C10.5738 54.905 10.5703 55.7116 10.5635 56.5228C10.5612 56.7229 10.5575 56.9231 10.5522 57.1232C10.5218 58.2951 10.4995 59.3175 11.3008 60.27C12.5709 61.5661 14.687 61.5511 16.3996 61.6183C16.3996 61.8408 16.3996 62.0632 16.3996 62.2925C10.988 62.2925 5.57641 62.2925 0.000854492 62.2925C0.000854492 62.1145 0.000854492 61.9365 0.000854492 61.7531C0.435575 61.6114 0.775914 61.5951 1.23248 61.5762C2.47179 61.4869 3.71824 61.2393 4.63237 60.36C5.93615 58.83 5.88694 56.3256 6.06704 54.4315C6.13754 53.6912 6.21179 52.9512 6.28548 52.2111C6.30082 52.0561 6.31617 51.9011 6.33197 51.7414C6.49632 50.088 6.67413 48.4361 6.85504 46.7844C6.88993 46.4657 6.92468 46.147 6.95928 45.8283C7.14705 44.0988 7.34741 42.3719 7.57138 40.6465C7.72464 39.4642 7.8619 38.2805 7.9935 37.0957C8.03642 36.7112 8.07952 36.3267 8.12269 35.9423C8.13385 35.8425 8.14501 35.7428 8.15651 35.6401C8.22281 35.0512 8.29139 34.4627 8.36203 33.8743C8.62461 31.6855 8.85967 29.4946 9.08663 27.3021C9.39614 24.3132 9.7147 21.3259 10.0685 18.3416C10.2864 16.5032 10.4816 14.6641 10.6565 12.8212C10.758 11.7583 10.8739 10.6969 10.9892 9.63536C11.0947 8.66251 11.198 7.68945 11.3008 6.71633C11.3128 6.60321 11.3247 6.4901 11.3371 6.37356C11.4994 4.83417 11.6513 3.29499 11.7699 1.75167C11.8129 1.20319 11.8589 0.671608 11.9898 0.134832C12.4229 0.174533 12.6231 0.208759 12.9184 0.531428C13.5226 1.51581 14.0546 2.52596 14.5685 3.55712C14.7738 3.96568 14.9825 4.37247 15.1916 4.77917C16.1458 6.63531 17.0797 8.4995 17.991 10.3762C18.3248 11.0611 18.662 11.7443 18.9994 12.4275C19.1216 12.675 19.2437 12.9225 19.3658 13.17C19.7892 14.028 20.2138 14.8854 20.6397 15.7422C21.5508 17.576 22.4482 19.4145 23.321 21.2661C23.8281 22.34 24.3475 23.4074 24.8745 24.472C25.8737 26.4921 26.8361 28.5283 27.7967 30.5662C28.8837 32.8827 28.8837 32.8827 30.0298 35.1715C30.9886 37.0219 31.8873 38.9026 32.8006 40.7748C34.1903 43.6229 35.5918 46.4656 37.0288 49.2913C37.1243 49.4792 37.2196 49.6672 37.3148 49.8553C37.4473 50.117 37.5805 50.3783 37.714 50.6395C37.7894 50.7877 37.9659 51.0982 37.9659 51.0982L38.8616 52.5845L39.1112 52.099C39.2756 51.6392 39.4717 51.2171 39.6912 50.7801C39.7317 50.6989 39.7723 50.6176 39.8141 50.5339C39.9014 50.3592 39.9888 50.1845 40.0765 50.0099C40.3133 49.538 40.5481 49.0652 40.7828 48.5923C40.8306 48.4961 40.8783 48.3999 40.9275 48.3008C41.5541 47.0364 42.1556 45.7607 42.7567 44.4845C43.088 43.7813 43.4212 43.079 43.7548 42.3768C44.8634 40.042 45.9663 37.7049 47.0523 35.3599C47.6935 33.9757 48.3409 32.5942 48.9902 31.2136C49.7319 29.6367 50.4704 28.0584 51.2037 26.4777C51.2885 26.295 51.3733 26.1123 51.4581 25.9296C51.5001 25.8391 51.5421 25.7486 51.5854 25.6553C52.9352 22.7475 54.2882 19.8421 55.6831 16.9548C56.4425 15.3825 57.184 13.8028 57.917 12.2185C58.0026 12.0337 58.0881 11.8489 58.1736 11.664C58.2163 11.5717 58.2591 11.4793 58.3031 11.3841C59.0737 9.72023 59.8561 8.06161 60.6372 6.4024C60.9346 5.77048 61.2303 5.13785 61.525 4.50476C62.2383 2.97604 62.9634 1.46624 63.8042 0Z" fill="#F8F7FB"/>
<path d="M302.207 0.0749512C302.48 0.141693 302.48 0.141693 302.758 0.209783C302.99 1.03225 303.115 1.83258 303.202 2.68048C303.216 2.81289 303.23 2.94531 303.245 3.08174C303.29 3.50357 303.334 3.9255 303.379 4.34745C303.408 4.62388 303.438 4.9003 303.467 5.17672C303.607 6.48431 303.74 7.79235 303.866 9.10133C303.974 10.2303 304.099 11.3566 304.231 12.483C304.456 14.3954 304.651 16.3084 304.808 18.2274C304.91 19.4397 305.054 20.6438 305.212 21.8504C305.417 23.4271 305.595 25.0065 305.773 26.5863C305.809 26.9036 305.845 27.2209 305.88 27.5382C306.184 30.2282 306.484 32.9186 306.781 35.6093C306.86 36.3176 306.938 37.0259 307.017 37.7342C307.184 39.2366 307.35 40.7383 307.468 42.2453C307.526 42.9208 307.615 43.5881 307.718 44.2581C308.05 46.4314 308.25 48.6165 308.46 50.8037C308.717 55.5679 310.338 59.3337 310.889 59.6708C311.467 60.0245 311.768 60.25 312.267 60.4798C312.371 60.529 312.476 60.5781 312.583 60.6288C313.627 61.076 314.744 61.3061 315.85 61.5584C315.85 61.7809 315.85 62.0034 315.85 62.2326C311.166 62.2326 306.482 62.2326 301.656 62.2326C301.785 61.7261 301.943 61.422 302.216 60.9896C303.363 58.8567 302.369 54.9393 302.095 52.6426C302.037 52.1335 301.98 51.6243 301.922 51.1151C301.885 50.782 301.847 50.4489 301.809 50.1158C301.665 48.8499 301.54 47.5833 301.432 46.314C301.336 45.1997 301.237 44.0865 301.12 42.9742C301.109 42.8708 301.098 42.7674 301.087 42.6608C301.064 42.4461 301.042 42.2313 301.019 42.0166C300.783 39.7805 300.584 37.5427 300.399 35.3021C300.161 32.4229 299.895 29.5505 299.563 26.6801C299.534 26.4343 299.506 26.1885 299.478 25.9427C299.464 25.8227 299.45 25.7027 299.436 25.579C299.335 24.6947 299.246 23.8097 299.162 22.9237C299.15 22.796 299.138 22.6682 299.125 22.5366C299.069 21.9336 299.013 21.3306 298.959 20.7274C298.826 19.2672 298.616 17.8322 298.349 16.3896C298.212 16.3451 298.076 16.3007 297.935 16.2548C297.18 17.7094 296.462 19.1765 295.773 20.6621C295.677 20.8688 295.581 21.0754 295.485 21.2821C294.812 22.7273 294.149 24.1764 293.487 25.6264C292.915 26.8768 292.328 28.1198 291.736 29.3612C291.156 30.5788 290.587 31.8009 290.02 33.0246C289.33 34.5153 288.631 36.0017 287.922 37.4839C287.224 38.9419 286.532 40.4025 285.843 41.8645C285.791 41.9744 285.739 42.0844 285.686 42.1977C285.421 42.7601 285.156 43.3225 284.891 43.885C284.406 44.914 283.921 45.9427 283.435 46.9715C283.174 47.5243 282.914 48.077 282.653 48.6298C282.555 48.8378 282.457 49.0458 282.359 49.2537C282.313 49.3514 282.267 49.449 282.219 49.5495C281.652 50.7524 281.652 50.7524 281.453 51.1732C281.326 51.4434 281.198 51.7137 281.071 51.9841C280.711 52.7474 280.351 53.5107 279.99 54.2739C279.774 54.732 279.557 55.1902 279.341 55.6483C279.232 55.8793 279.123 56.1104 279.014 56.3414C278.508 57.4123 278.002 58.4832 277.508 59.5596C277.445 59.6969 277.382 59.8342 277.317 59.9756C277.207 60.2168 277.029 60.4339 276.92 60.6757L275.818 62.6371L275.266 61.8955L274.438 60.6757C274.438 60.6757 274.371 60.5471 274.302 60.4159C274.155 60.1341 274.009 59.8519 273.863 59.5696C273.759 59.3716 273.656 59.1736 273.553 58.9756C273.337 58.5626 273.122 58.1494 272.906 57.736C272.587 57.1235 272.266 56.5122 271.943 55.9013C271.866 55.7545 271.866 55.7545 271.786 55.6047C271.587 55.2265 271.387 54.8483 271.187 54.4701C270.603 53.3644 270.027 52.2551 269.46 51.1412C269.134 50.5004 268.806 49.8604 268.477 49.2204C268.189 48.6579 267.901 48.0952 267.613 47.5325C267.402 47.1192 267.19 46.7061 266.978 46.293C265.941 44.2717 264.919 42.2448 263.93 40.2009C263.766 39.8638 263.603 39.5268 263.439 39.19C261.568 35.344 259.728 31.4864 257.945 27.6004C257.448 26.5167 256.951 25.4332 256.448 24.3521C256.403 24.257 256.359 24.1618 256.313 24.0638C256.099 23.6031 255.884 23.1426 255.669 22.6822C255.258 21.8008 254.853 20.9174 254.459 20.0285C254.383 19.8564 254.306 19.6844 254.229 19.5123C254.087 19.1913 253.946 18.8699 253.806 18.5478C253.743 18.4071 253.681 18.2664 253.616 18.1214C253.562 17.9979 253.508 17.8744 253.453 17.7472C253.302 17.4239 253.302 17.4239 252.873 17.3335C252.456 17.5739 252.341 17.6835 252.184 18.1425C252.155 18.4302 252.133 18.7187 252.114 19.0073C252.101 19.2008 252.088 19.3944 252.074 19.5879C252.067 19.6943 252.06 19.8006 252.052 19.9102C251.845 22.9367 251.575 25.9579 251.306 28.9796C251.284 29.2207 251.263 29.4618 251.241 29.7029C251.156 30.6631 251.07 31.6232 250.985 32.5834C250.807 34.5757 250.634 36.5683 250.462 38.5611C250.408 39.184 250.354 39.8069 250.3 40.4298C250.286 40.5901 250.273 40.7505 250.258 40.9157C250.072 43.066 249.886 45.2162 249.699 47.3664C249.645 47.9951 249.59 48.6239 249.536 49.2526C249.485 49.844 249.433 50.4353 249.382 51.0266C249.363 51.2456 249.344 51.4647 249.325 51.6838C249.299 51.9866 249.272 52.2894 249.246 52.5922C249.231 52.7622 249.216 52.9322 249.201 53.1074C249.166 53.4645 249.126 53.8183 249.08 54.1739C248.977 54.9799 248.973 55.7866 248.967 56.5977C248.964 56.7979 248.96 56.998 248.955 57.1981C248.925 58.3701 248.903 59.3925 249.704 60.3449C250.974 61.641 253.09 61.626 254.803 61.6933C254.803 61.9157 254.803 62.1382 254.803 62.3674C249.391 62.3674 243.979 62.3674 238.404 62.3674C238.404 62.1894 238.404 62.0115 238.404 61.8281C238.839 61.6863 239.179 61.6701 239.635 61.6511C240.875 61.5619 242.121 61.3142 243.035 60.435C244.339 58.9049 244.29 56.4006 244.47 54.5065C244.541 53.7661 244.615 53.0261 244.688 52.2861C244.704 52.1311 244.719 51.9761 244.735 51.8164C244.899 50.163 245.077 48.511 245.258 46.8593C245.293 46.5406 245.328 46.2219 245.362 45.9032C245.55 44.1738 245.75 42.4468 245.974 40.7215C246.128 39.5391 246.265 38.3555 246.397 37.1707C246.439 36.7862 246.483 36.4017 246.526 36.0172C246.537 35.9175 246.548 35.8178 246.56 35.7151C246.626 35.1262 246.694 34.5376 246.765 33.9492C247.028 31.7605 247.263 29.5695 247.49 27.377C247.799 24.3881 248.118 21.4008 248.472 18.4166C248.689 16.5781 248.885 14.739 249.059 12.8961C249.161 11.8332 249.277 10.7719 249.392 9.71031C249.498 8.73746 249.601 7.7644 249.704 6.79128C249.716 6.67817 249.728 6.56505 249.74 6.44851C249.902 4.90912 250.054 3.36994 250.173 1.82662C250.216 1.27814 250.262 0.746559 250.393 0.209783C250.826 0.249484 251.026 0.283711 251.321 0.60638C251.926 1.59076 252.458 2.60091 252.972 3.63207C253.177 4.04063 253.386 4.44742 253.595 4.85412C254.549 6.71026 255.483 8.57445 256.394 10.4512C256.728 11.136 257.065 11.8193 257.402 12.5025C257.525 12.7499 257.647 12.9975 257.769 13.245C258.192 14.1029 258.617 14.9604 259.043 15.8171C259.954 17.651 260.851 19.4894 261.724 21.3411C262.231 22.4149 262.751 23.4823 263.278 24.547C264.277 26.567 265.239 28.6033 266.2 30.6411C267.287 32.9577 267.287 32.9577 268.433 35.2465C269.392 37.0969 270.29 38.9776 271.204 40.8498C272.593 43.6979 273.995 46.5406 275.432 49.3662C275.527 49.5541 275.623 49.7422 275.718 49.9303C275.85 50.1919 275.984 50.4532 276.117 50.7144C276.192 50.8626 276.369 51.1732 276.369 51.1732L277.265 52.6595L277.514 52.174C277.679 51.7142 277.875 51.2921 278.094 50.8551C278.135 50.7738 278.175 50.6926 278.217 50.6089C278.304 50.4341 278.392 50.2595 278.48 50.0849C278.716 49.613 278.951 49.1401 279.186 48.6672C279.234 48.571 279.281 48.4749 279.331 48.3758C279.957 47.1113 280.559 45.8356 281.16 44.5594C281.491 43.8563 281.824 43.1539 282.158 42.4518C283.266 40.1169 284.369 37.7798 285.455 35.4349C286.097 34.0506 286.744 32.6692 287.393 31.2886C288.135 29.7116 288.873 28.1333 289.607 26.5526C289.692 26.3699 289.776 26.1873 289.861 26.0046C289.903 25.914 289.945 25.8235 289.988 25.7302C291.338 22.8225 292.691 19.9171 294.086 17.0298C294.845 15.4574 295.587 13.8778 296.32 12.2935C296.406 12.1087 296.491 11.9238 296.577 11.739C296.619 11.6466 296.662 11.5543 296.706 11.4591C297.477 9.79518 298.259 8.13656 299.04 6.47735C299.338 5.84543 299.633 5.2128 299.928 4.57972C300.641 3.05099 301.366 1.54119 302.207 0.0749512Z" fill="#F8F7FB"/>
<path d="M110.246 0.136108C110.711 0.363455 110.826 0.876998 111.025 1.3259C111.073 1.43457 111.122 1.54324 111.172 1.6552C111.713 2.87813 112.196 4.12188 112.675 5.36928C112.771 5.61808 112.867 5.86685 112.963 6.1156C113.207 6.74456 113.449 7.3738 113.691 8.00313C113.901 8.54866 114.112 9.09392 114.323 9.63914C114.402 9.84286 114.481 10.0466 114.56 10.2503C114.598 10.3501 114.637 10.4499 114.677 10.5528C114.794 10.8573 114.912 11.1619 115.03 11.4666C115.632 13.0249 116.237 14.5822 116.844 16.139C116.889 16.2569 116.935 16.3748 116.983 16.4963C117.449 17.6925 117.915 18.8885 118.381 20.0844C118.612 20.6765 118.843 21.2687 119.074 21.8609C119.12 21.9782 119.166 22.0955 119.213 22.2163C119.922 24.0371 120.623 25.8611 121.319 27.6867C122.065 29.6397 122.831 31.585 123.602 33.5287C124.174 34.9726 124.741 36.4176 125.284 37.8723C126.066 39.962 126.911 42.0273 127.751 44.0953C128.155 45.0916 128.557 46.0888 128.959 47.086C129.09 47.4105 129.222 47.7349 129.353 48.0593C129.737 49.0104 130.12 49.9621 130.494 50.9173C131.13 52.5383 131.802 54.1353 132.545 55.7122C132.617 55.8676 132.69 56.023 132.765 56.1832C133.185 57.0601 133.643 57.869 134.224 58.6533C134.308 58.7675 134.392 58.8816 134.478 58.9993C135.581 60.2996 137.211 60.9716 138.772 61.6196C138.772 61.7976 138.772 61.9755 138.772 62.1589C134.361 62.1589 129.949 62.1589 125.405 62.1589C125.405 62.0699 125.405 61.9809 125.405 61.8892C125.533 61.8114 125.66 61.7335 125.792 61.6533C126.307 61.2976 126.452 61.1266 126.645 60.5409C126.741 59.7345 126.722 59.0694 126.402 58.3162C126.087 57.5621 125.794 56.8012 125.504 56.0377C125.388 55.7342 125.272 55.4307 125.156 55.1272C125.096 54.9685 125.035 54.8099 124.973 54.6464C123.906 51.8499 122.826 49.0588 121.727 46.274C120.263 42.5608 120.263 42.5608 119.6 40.8133C119.547 40.6744 119.494 40.5354 119.439 40.3923C119.194 39.7392 118.986 39.101 118.79 38.4284C112.56 38.4729 106.33 38.5174 99.9108 38.5633C98.7118 41.9991 97.5193 45.4345 96.3642 48.8844C96.2216 49.3098 96.0787 49.7351 95.9358 50.1604C95.0453 52.809 95.0453 52.809 94.1737 55.4636C94.1419 55.5614 94.1101 55.6591 94.0773 55.7598C93.8563 56.4473 93.6597 57.1277 93.5719 57.8443C93.5524 57.9939 93.5524 57.9939 93.5326 58.1466C93.4672 59.0945 93.826 59.9179 94.4617 60.6315C95.198 61.2779 96.1289 61.4061 97.0686 61.569C97.1701 61.5871 97.2715 61.6052 97.376 61.6238C97.6237 61.6679 97.8715 61.7112 98.1194 61.7544C98.1194 61.8879 98.1194 62.0214 98.1194 62.1589C96.4109 62.1767 94.7025 62.1943 92.994 62.2116C92.2004 62.2197 91.4068 62.2279 90.6132 62.2361C89.8447 62.2441 89.0763 62.252 88.3079 62.2597C88.0173 62.2627 87.7267 62.2657 87.4362 62.2688C85.485 62.2893 83.5342 62.2974 81.5829 62.2937C81.5829 62.1158 81.5829 61.9378 81.5829 61.7544C82.1234 61.6201 82.6625 61.4896 83.2075 61.3736C85.1328 60.9497 86.9407 60.3338 88.057 58.6448C89.0474 57.0398 89.7276 55.2966 90.3765 53.5381C90.4405 53.3657 90.5046 53.1934 90.5687 53.0211C90.7111 52.6378 90.8531 52.2545 90.9949 51.871C91.2012 51.3128 91.4083 50.7548 91.6154 50.1969C92.7543 47.1287 93.8812 44.0565 95.0016 40.9818C96.0286 38.1635 97.057 35.346 98.136 32.5463C98.5906 31.3654 99.0293 30.1794 99.4632 28.9911C99.6721 28.4191 99.8816 27.8472 100.091 27.2753C100.134 27.1597 100.176 27.0441 100.219 26.9251C100.65 25.75 101.085 24.5763 101.521 23.4031C101.556 23.3104 101.59 23.2177 101.626 23.1222C102.196 21.5881 102.196 21.5881 102.452 20.9252C102.688 20.3088 102.913 19.6883 103.137 19.0674C103.182 18.943 103.227 18.8185 103.274 18.6903C103.371 18.4217 103.468 18.1529 103.565 17.8842C103.721 17.4533 103.877 17.0225 104.033 16.5917C104.507 15.2796 104.982 13.9674 105.454 12.6546C106.471 9.82964 107.496 7.00808 108.547 4.19513C108.657 3.90155 108.766 3.60789 108.876 3.31415C109.027 2.9071 109.179 2.50041 109.332 2.09381C109.377 1.97334 109.421 1.85286 109.468 1.72874C109.682 1.16116 109.9 0.642621 110.246 0.136108Z" fill="#F9F9FC"/>
<path d="M142.081 1.75391C148.403 1.75391 154.724 1.75391 161.236 1.75391C161.236 1.97638 161.236 2.19885 161.236 2.42807C161.067 2.44128 160.897 2.45449 160.723 2.4681C160.498 2.48834 160.273 2.50871 160.048 2.52919C159.936 2.53753 159.825 2.54588 159.71 2.55447C158.804 2.64097 158.111 2.93632 157.516 3.64156C157.21 4.53811 157.245 5.34597 157.667 6.20557C157.866 6.58149 158.072 6.95319 158.28 7.32416C158.515 7.74938 158.741 8.17889 158.965 8.60928C159.856 10.3145 160.764 12.0075 161.726 13.6757C161.967 14.0962 162.204 14.5183 162.441 14.9406C163.465 16.7623 164.497 18.5777 165.557 20.3792C165.819 20.8245 166.078 21.2707 166.337 21.717C166.484 21.9689 166.63 22.2207 166.777 22.4726C166.915 22.7111 167.054 22.9497 167.192 23.1883C167.736 24.1224 168.3 25.0396 168.887 25.9476C169.091 26.2934 169.091 26.2934 169.091 26.563C169.673 26.0352 170.098 25.4676 170.529 24.8186C170.6 24.713 170.672 24.6073 170.745 24.4985C172.346 22.1101 173.888 19.6844 175.43 17.2596C175.509 17.136 175.588 17.0123 175.669 16.8849C176.692 15.2778 177.698 13.6616 178.689 12.0356C178.86 11.7559 179.033 11.477 179.206 11.1985C181.546 7.79517 181.546 7.79517 182.182 3.91122C181.99 3.40113 181.722 3.22653 181.238 2.95792C180.44 2.61942 179.672 2.51545 178.815 2.47863C178.714 2.47341 178.613 2.4682 178.509 2.46283C178.264 2.45027 178.018 2.43903 177.773 2.42807C177.727 2.20559 177.682 1.98312 177.635 1.75391C183.047 1.75391 188.458 1.75391 194.034 1.75391C194.034 1.97638 194.034 2.19885 194.034 2.42807C193.946 2.43341 193.857 2.43876 193.767 2.44426C191.298 2.60191 189.386 2.7601 187.655 4.66175C186.532 6.04032 185.57 7.54383 184.581 9.01578C184.203 9.57929 183.823 10.1424 183.444 10.7055C182.922 11.4804 182.4 12.2554 181.878 13.0306C180.563 14.9844 179.24 16.933 177.911 18.8776C176.349 21.1622 174.792 23.4496 173.262 25.7544C172.936 26.2447 172.604 26.7309 172.27 27.2156C172.114 27.4447 171.959 27.6738 171.804 27.9029C171.733 28.0033 171.662 28.1037 171.589 28.2071C171.527 28.2998 171.465 28.3925 171.401 28.4881C171.347 28.5663 171.293 28.6445 171.237 28.725C171.08 29.253 171.391 29.7167 171.635 30.1818C171.712 30.3134 171.79 30.445 171.87 30.5806C171.958 30.7303 172.046 30.8799 172.137 31.0341C172.233 31.1955 172.328 31.3568 172.424 31.5181C172.524 31.687 172.623 31.856 172.723 32.025C172.928 32.3725 173.133 32.7197 173.338 33.0668C173.616 33.5353 173.891 34.0047 174.167 34.4744C175.12 36.1004 176.088 37.7179 177.067 39.3295C177.743 40.4423 178.414 41.5581 179.082 42.6755C179.926 44.0865 180.775 45.4942 181.628 46.9C182.253 47.9294 182.872 48.9614 183.49 49.9948C186.168 54.8715 186.168 54.8715 189.624 59.1924C189.734 59.305 189.734 59.305 189.847 59.4199C191.602 61.0644 194.071 61.3946 196.376 61.6194C196.376 61.8419 196.376 62.0643 196.376 62.2936C193.029 62.3064 189.683 62.2708 186.337 62.231C185.633 62.2227 184.928 62.2147 184.224 62.2066C182.855 62.1909 181.485 62.1749 180.115 62.1587C180.115 62.0252 180.115 61.8918 180.115 61.7542C180.347 61.5862 180.347 61.5862 180.649 61.4256C181.11 61.1809 181.291 61.0137 181.493 60.5407C181.692 59.5193 181.277 58.7661 180.779 57.8947C180.704 57.7602 180.63 57.6258 180.553 57.4873C180.319 57.0651 180.08 56.6454 179.84 56.2261C179.765 56.0954 179.691 55.9648 179.615 55.8302C179.172 55.0546 178.724 54.2824 178.274 53.5114C177.901 52.8725 177.531 52.2318 177.161 51.5912C177.088 51.4641 177.014 51.337 176.938 51.206C176.55 50.5331 176.163 49.8592 175.778 49.1838C174.798 47.4608 173.793 45.755 172.763 44.0602C171.594 42.133 170.452 40.1912 169.32 38.2436C168.683 37.1477 168.034 36.0611 167.356 34.989C167.162 34.653 167.162 34.653 167.162 34.3833C166.724 34.7493 166.485 35.2187 166.214 35.7063C165.71 36.6003 165.188 37.4829 164.655 38.3608C164.016 39.4145 163.382 40.4705 162.752 41.5294C162.214 42.4342 161.673 43.3374 161.127 44.2376C160.276 45.6396 159.445 47.052 158.62 48.4691C158.024 49.4942 157.419 50.5146 156.809 51.5323C156.14 52.6526 155.475 53.775 154.82 54.9031C154.741 55.0367 154.662 55.1703 154.581 55.3079C153.88 56.5222 153.134 57.832 153.175 59.2598C153.177 59.4872 153.177 59.4872 153.179 59.7191C153.277 60.3517 153.524 60.6963 154.01 61.1138C154.562 61.5015 155.01 61.5239 155.672 61.5604C155.77 61.5662 155.867 61.572 155.967 61.578C156.208 61.5924 156.448 61.6059 156.689 61.6194C156.689 61.8419 156.689 62.0643 156.689 62.2936C151.732 62.2936 146.775 62.2936 141.668 62.2936C141.668 62.0266 141.668 61.7596 141.668 61.4846C141.907 61.472 141.907 61.472 142.15 61.4593C144.625 61.1839 146.434 60.1318 147.969 58.2481C148.539 57.5135 149.046 56.7389 149.557 55.9649C149.673 55.7902 149.79 55.6155 149.906 55.4408C150.604 54.3906 151.294 53.3355 151.974 52.2741C152.458 51.5188 152.952 50.7704 153.45 50.0238C154.244 48.8337 155.022 47.6348 155.795 46.4317C156.069 46.0053 156.344 45.5793 156.619 45.1534C156.758 44.9394 156.896 44.7254 157.034 44.5113C157.374 43.9839 157.715 43.4567 158.057 42.9304C158.889 41.6493 159.704 40.3591 160.508 39.0613C161.05 38.187 161.597 37.3163 162.149 36.4479C162.954 35.1807 163.746 33.9062 164.521 32.621C164.653 32.4058 164.797 32.1969 164.943 31.99C165.118 31.6973 165.118 31.6973 165.092 31.3817C164.89 30.8297 164.605 30.3341 164.311 29.8243C164.244 29.7062 164.176 29.5881 164.107 29.4664C163.263 27.9924 162.387 26.5363 161.512 25.0799C161.174 24.5167 160.836 23.9534 160.498 23.39C160.399 23.2243 160.299 23.0586 160.2 22.893C159.495 21.7176 158.796 20.5392 158.101 19.3579C156.695 16.9669 155.253 14.5965 153.799 12.2329C153.457 11.6761 153.117 11.1182 152.779 10.5589C150.041 5.60418 150.041 5.60418 145.277 2.83309C144.219 2.61148 143.162 2.48517 142.081 2.42807C142.081 2.20559 142.081 1.98312 142.081 1.75391Z" fill="#F9F8FB"/>
<path d="M205.463 1.75391C211.329 1.75391 217.196 1.75391 223.24 1.75391C223.24 1.97638 223.24 2.19885 223.24 2.42807C222.978 2.68419 222.495 2.5931 222.146 2.60503C220.887 2.67511 219.953 2.88207 219.054 3.78482C217.719 5.39937 217.685 7.58939 217.692 9.57612C217.691 9.76012 217.691 9.94413 217.69 10.1281C217.689 10.6288 217.689 11.1294 217.69 11.6301C217.69 12.1721 217.689 12.7142 217.688 13.2562C217.686 14.317 217.686 15.3777 217.686 16.4384C217.686 17.3026 217.686 18.1669 217.685 19.0311C217.685 19.1545 217.685 19.2779 217.685 19.4051C217.685 19.6559 217.685 19.9068 217.685 20.1576C217.683 22.5081 217.683 24.8585 217.684 27.209C217.685 29.3489 217.683 31.4888 217.681 33.6287C217.678 35.8341 217.677 38.0394 217.677 40.2448C217.678 41.4796 217.677 42.7144 217.675 43.9492C217.674 45.0022 217.674 46.0552 217.675 47.1081C217.676 47.6431 217.676 48.1781 217.675 48.7131C217.668 50.8804 217.72 53.0315 217.903 55.1922C217.91 55.2867 217.918 55.3812 217.926 55.4785C218.062 57.1567 218.285 59.1714 219.638 60.3622C221.37 61.6108 223.385 61.5879 225.445 61.6194C225.445 61.8864 225.445 62.1533 225.445 62.4284C225.077 62.4321 224.71 62.4348 224.342 62.4368C224.242 62.4379 224.143 62.4391 224.04 62.4402C223.368 62.443 222.705 62.411 222.035 62.361C220.435 62.2549 218.831 62.2768 217.228 62.2804C216.891 62.2806 216.555 62.2808 216.218 62.281C215.339 62.2815 214.46 62.2828 213.581 62.2843C212.681 62.2857 211.781 62.2863 210.882 62.287C209.121 62.2884 207.361 62.2907 205.601 62.2936C205.601 62.0711 205.601 61.8486 205.601 61.6194C205.725 61.6053 205.725 61.6053 205.851 61.5908C206.23 61.5463 206.609 61.4986 206.987 61.4509C207.117 61.4361 207.247 61.4213 207.381 61.4061C208.207 61.2991 209.459 60.8104 209.459 60.8104C209.55 60.8104 209.735 60.6756 209.735 60.6756C209.773 60.5996 209.812 60.5237 209.851 60.4454C209.957 60.2393 210.067 60.0345 210.179 59.8313C210.237 59.7234 210.295 59.6154 210.355 59.5042C210.413 59.398 210.472 59.2918 210.532 59.1824C210.959 58.1793 211.046 57.1028 211.128 56.0286C211.14 55.8769 211.151 55.7253 211.163 55.5691C211.295 53.668 211.289 51.7658 211.285 49.8615C211.284 49.3121 211.285 48.7628 211.285 48.2135C211.286 47.1429 211.285 46.0724 211.284 45.0019C211.282 43.752 211.282 42.5021 211.282 41.2522C211.282 39.0214 211.281 36.7905 211.279 34.5596C211.277 32.4001 211.276 30.2405 211.276 28.081C211.276 27.9477 211.276 27.8145 211.276 27.6772C211.276 27.5441 211.276 27.4111 211.276 27.274C211.276 24.806 211.276 22.3379 211.274 19.8698C211.274 19.0005 211.274 18.1312 211.274 17.2619C211.274 16.2024 211.273 15.1428 211.272 14.0832C211.271 13.5437 211.271 13.0041 211.271 12.4645C211.271 11.9693 211.271 11.474 211.27 10.9788C211.269 10.7178 211.27 10.4567 211.27 10.1956C211.364 6.75465 211.364 6.75465 209.985 3.73439C209.091 2.92103 208.083 2.70834 206.901 2.58818C206.762 2.57193 206.623 2.55568 206.48 2.53894C206.141 2.49965 205.802 2.46275 205.463 2.42807C205.463 2.20559 205.463 1.98312 205.463 1.75391Z" fill="#FBFAFC"/>
<path d="M109.068 11.462L109.524 12.7061C109.579 12.8336 109.579 12.8336 109.635 12.9637C109.998 13.8197 110.33 14.6863 110.653 15.5576C110.684 15.6418 110.715 15.7261 110.748 15.8129C112.054 19.3244 113.302 22.8555 114.502 26.4032C115.091 28.145 115.696 29.8806 116.32 31.611C116.357 31.7145 116.394 31.8179 116.433 31.9245C116.539 32.2188 116.645 32.513 116.751 32.8071C116.801 32.9435 116.801 32.9435 116.851 33.0827C116.997 33.4862 117.146 33.8881 117.302 34.2882C117.353 34.4186 117.403 34.5489 117.456 34.6832C117.521 34.8477 117.521 34.8477 117.588 35.0156L117.956 36.0085C115.841 36.0116 113.45 36.007 111.334 36.0085C110.352 36.0092 109.37 36.0101 108.388 36.0117C107.441 36.0131 106.494 36.0139 105.547 36.0143C105.184 36.0145 104.822 36.015 104.46 36.0157C103.955 36.0167 103.449 36.0169 102.944 36.0168C102.793 36.0173 102.642 36.0178 102.486 36.0183C102.349 36.0181 102.211 36.0179 102.07 36.0177C101.95 36.0178 101.831 36.018 101.708 36.0181L100.662 36.0085C100.662 36.0085 101.339 34.1873 101.624 33.3238C101.674 33.1696 101.724 33.0153 101.775 32.8564C101.93 32.3761 102.088 31.8966 102.246 31.4172C102.294 31.2727 102.342 31.1282 102.391 30.9793C102.67 30.135 102.952 29.292 103.236 28.4493C103.992 26.207 104.738 23.9624 105.459 21.7093C106.531 18.3635 107.864 14.7645 109.068 11.462Z" fill="#0C0921"/>
<path d="M216.079 72.9457C220.106 72.9457 220.106 72.9457 221.105 73.7642C221.177 73.8556 221.25 73.947 221.324 74.0412C221.437 74.1794 221.437 74.1794 221.553 74.3203C222.061 75.0222 221.935 75.8945 221.867 76.721C221.739 77.1272 221.564 77.4527 221.315 77.7996C221.236 77.9109 221.156 78.0221 221.074 78.1367C221.017 78.2035 220.961 78.2702 220.902 78.339C221.002 78.3668 221.101 78.3946 221.204 78.4232C221.853 78.7338 222.292 79.3037 222.556 79.957C222.67 81.0131 222.706 82.0608 222.004 82.9233C221.486 83.4596 221.062 83.7235 220.351 84.0019C218.941 84.0019 217.531 84.0019 216.079 84.0019C216.079 80.3534 216.079 76.7048 216.079 72.9457Z" fill="#F9F9FA"/>
<path d="M283.432 72.9316C283.66 72.934 283.66 72.934 283.892 72.9364C284.044 72.9376 284.196 72.9388 284.353 72.9401C284.471 72.9416 284.589 72.9432 284.71 72.9448C284.806 76.6759 284.871 80.4036 284.848 84.1359C284.348 84.1359 283.847 84.1359 283.332 84.1359C283.287 81.5107 283.241 78.8855 283.194 76.1808C282.967 76.7592 282.74 77.3376 282.505 77.9336C282.34 78.3423 282.174 78.7506 282.005 79.1581C281.962 79.2638 281.918 79.3695 281.873 79.4784C281.782 79.6983 281.691 79.9182 281.6 80.138C281.462 80.4718 281.325 80.8058 281.188 81.1398C281.099 81.3557 281.009 81.5715 280.92 81.7874C280.88 81.8854 280.84 81.9835 280.798 82.0845C280.525 82.7408 280.217 83.3706 279.887 84.001C279.523 84.001 279.159 84.001 278.785 84.001C278.289 82.8434 277.8 81.6834 277.316 80.5213C277.239 80.3359 277.161 80.1506 277.084 79.9654C276.968 79.6903 276.854 79.415 276.739 79.1397C276.672 78.9791 276.605 78.8186 276.536 78.6531C276.212 77.8353 275.917 77.0068 275.615 76.1808C275.57 78.7615 275.524 81.3422 275.477 84.001C274.977 84.001 274.477 84.001 273.961 84.001C273.961 80.397 273.961 76.7929 273.961 73.0796C274.553 73.0796 275.144 73.0796 275.753 73.0796C276.613 74.6913 277.315 76.3492 278.009 78.0347C278.178 78.4425 278.347 78.8502 278.517 79.2579C278.621 79.5096 278.725 79.7614 278.829 80.0133C278.875 80.1259 278.922 80.2386 278.97 80.3547C279.011 80.4538 279.052 80.5529 279.094 80.655C279.168 80.8293 279.249 81.0007 279.336 81.1696C279.735 80.7136 279.927 80.2194 280.128 79.6611C280.78 77.9119 281.526 76.2039 282.281 74.4954C282.342 74.3575 282.403 74.2197 282.466 74.0777C282.522 73.9499 282.579 73.8222 282.638 73.6906C282.689 73.576 282.739 73.4613 282.792 73.3432C282.982 72.9474 282.982 72.9474 283.432 72.9316Z" fill="#F6F6F8"/>
<path d="M257.284 73.0807C261.892 73.0807 261.892 73.0807 262.83 73.8849C262.904 73.9727 262.978 74.0605 263.055 74.1509C263.169 74.2821 263.169 74.2821 263.286 74.4158C263.854 75.2222 263.862 76.041 263.761 76.9908C263.515 77.8192 263.107 78.6135 262.336 79.0686C261.758 79.3667 261.394 79.5526 260.729 79.5526C261.527 80.661 262.342 81.7526 263.192 82.8234C263.289 82.9454 263.385 83.0674 263.485 83.1931C263.566 83.2929 263.648 83.3926 263.731 83.4954C263.899 83.7324 263.899 83.7324 263.899 84.0021C263.241 84.187 262.604 84.2962 261.969 84.0021C261.248 83.3054 260.769 82.4002 260.268 81.5468C259.683 80.4742 259.683 80.4742 258.8 79.6875C258.8 81.1558 258.8 82.6241 258.8 84.1369C258.3 84.1369 257.799 84.1369 257.284 84.1369C257.284 80.4884 257.284 76.8398 257.284 73.0807Z" fill="#F8F7F9"/>
<path d="M299.168 72.9457C299.623 72.9457 300.078 72.9457 300.546 72.9457C300.864 73.2633 301.005 73.4557 301.201 73.8389C301.315 74.0391 301.431 74.2391 301.546 74.4388C301.607 74.5467 301.667 74.6545 301.729 74.7656C302.074 75.3624 302.458 75.9344 302.837 76.5103C303 76.7606 303.163 77.0109 303.326 77.2614C303.411 77.3909 303.495 77.5204 303.582 77.6539C303.773 77.9455 303.963 78.2372 304.153 78.529C304.408 78.9205 304.663 79.3119 304.919 79.7032C305.066 79.9288 305.213 80.1546 305.36 80.3804C305.494 80.5851 305.494 80.5851 305.63 80.7939C305.71 80.9155 305.789 81.0371 305.871 81.1624C306.036 81.4274 306.036 81.4274 306.196 81.5749C306.196 78.7273 306.196 75.8796 306.196 72.9457C306.696 72.9457 307.197 72.9457 307.712 72.9457C307.712 76.5942 307.712 80.2428 307.712 84.0019C307.121 84.0019 306.53 84.0019 305.92 84.0019C305.44 83.4926 305.155 83.1085 304.818 82.5188C304.631 82.2266 304.444 81.9346 304.256 81.6429C304.064 81.3313 303.872 81.0194 303.681 80.707C303.579 80.5414 303.477 80.3759 303.375 80.2104C303.122 79.7993 302.87 79.3879 302.618 78.9763C302.399 78.6197 302.18 78.2637 301.961 77.9076C301.678 77.4487 301.396 76.9898 301.115 76.5303C301.061 76.4428 301.007 76.3553 300.952 76.2651C300.857 76.1056 300.768 75.9423 300.684 75.7772C300.638 78.4913 300.593 81.2055 300.546 84.0019C300.091 84.0019 299.637 84.0019 299.168 84.0019C299.168 80.3534 299.168 76.7048 299.168 72.9457Z" fill="#F7F7F9"/>
<path d="M250.196 73.5231C251.735 74.3688 252.854 75.6546 253.357 77.3316C253.665 78.9002 253.355 80.4773 252.483 81.8268C252.341 82.0155 252.195 82.2011 252.044 82.383C251.974 82.4689 251.903 82.5548 251.83 82.6432C251.101 83.4381 249.953 84.0533 248.856 84.1661C246.745 84.2656 245.232 84.1336 243.578 82.7117C242.237 81.2698 241.871 79.5434 241.961 77.6588C242.081 76.3109 242.93 75.0868 243.911 74.1741C245.738 72.7542 248.108 72.5049 250.196 73.5231ZM244.539 75.6277C243.708 76.7401 243.402 77.9294 243.5 79.2819C243.733 80.5968 244.424 81.487 245.443 82.3393C246.154 82.823 246.756 82.994 247.617 82.9813C247.715 82.9802 247.813 82.9791 247.914 82.978C248.689 82.9534 249.224 82.8394 249.839 82.383C249.932 82.3206 250.025 82.2582 250.12 82.1939C251.011 81.5265 251.641 80.6321 251.814 79.5323C251.955 78.0617 251.789 76.9302 250.842 75.7494C250.071 74.9096 249.161 74.3937 248.015 74.2288C246.605 74.1672 245.502 74.6167 244.539 75.6277Z" fill="#F7F6F8"/>
<path d="M204.498 72.9457C205.043 72.9457 205.589 72.9457 206.151 72.9457C206.153 73.3304 206.153 73.3304 206.155 73.7228C206.16 74.5726 206.168 75.4224 206.177 76.2721C206.182 76.7871 206.186 77.302 206.189 77.8169C206.191 78.3144 206.195 78.8118 206.202 79.3092C206.204 79.4985 206.205 79.6878 206.205 79.877C206.192 81.2976 206.192 81.2976 206.84 82.5188C207.457 82.9212 208.046 82.8685 208.77 82.7884C209.368 82.5221 209.714 82.1873 210.032 81.6224C210.292 80.9097 210.231 80.1328 210.232 79.3844C210.234 79.1984 210.236 79.0123 210.238 78.8262C210.244 78.3392 210.247 77.8523 210.249 77.3653C210.252 76.8672 210.258 76.3692 210.263 75.8712C210.274 74.896 210.281 73.9209 210.285 72.9457C210.786 72.9457 211.286 72.9457 211.801 72.9457C211.814 74.01 211.824 75.0743 211.83 76.1387C211.833 76.6331 211.837 77.1274 211.843 77.6218C211.849 78.1 211.852 78.5782 211.854 79.0564C211.855 79.3252 211.859 79.5939 211.864 79.8627C211.864 81.0836 211.729 82.1901 210.94 83.1761C209.975 83.9055 209.322 84.2486 208.081 84.221C207.963 84.2236 207.846 84.2262 207.725 84.2289C206.641 84.2208 205.983 83.8206 205.212 83.1002C204.428 81.9383 204.441 80.6987 204.457 79.3449C204.458 79.1594 204.459 78.9739 204.459 78.7884C204.461 78.3048 204.465 77.8212 204.469 77.3375C204.473 76.8421 204.475 76.3468 204.477 75.8514C204.482 74.8828 204.489 73.9143 204.498 72.9457Z" fill="#F2F1F3"/>
<path d="M190.578 73.8817C191.486 74.528 191.486 74.528 191.827 74.9688C191.931 75.6745 191.777 76.1132 191.413 76.7216C190.948 76.57 190.859 76.4541 190.56 76.0896C189.763 75.1726 188.935 74.5273 187.682 74.3795C186.463 74.3545 185.583 74.5439 184.656 75.3459C183.714 76.323 183.375 77.2332 183.36 78.5587C183.359 78.6554 183.357 78.752 183.356 78.8515C183.375 79.9825 183.906 81.0012 184.661 81.8453C185.859 82.7199 186.898 82.9216 188.381 82.7891C189.505 82.4738 190.318 81.684 191.137 80.9014C191.539 81.0463 191.796 81.1412 192.102 81.4408C192.027 82.2093 191.322 82.7707 190.77 83.2642C189.482 84.2521 187.879 84.267 186.314 84.1374C184.918 83.9214 183.683 83.195 182.795 82.126C182.486 81.6956 182.254 81.2493 182.042 80.7666C181.988 80.6526 181.934 80.5386 181.879 80.4211C181.424 79.0876 181.46 77.5419 182.006 76.2492C182.28 75.7203 182.607 75.2777 183.007 74.834C183.079 74.7507 183.152 74.6675 183.226 74.5817C185.137 72.5365 188.27 72.4397 190.578 73.8817Z" fill="#F7F7F8"/>
<path d="M289.115 73.0807C291.071 73.0807 293.026 73.0807 295.041 73.0807C295.041 73.4811 295.041 73.8816 295.041 74.2942C293.586 74.2942 292.13 74.2942 290.631 74.2942C290.631 75.4065 290.631 76.5189 290.631 77.665C291.904 77.665 293.178 77.665 294.49 77.665C294.49 78.0654 294.49 78.4659 294.49 78.8785C293.216 78.8785 291.943 78.8785 290.631 78.8785C290.631 80.2133 290.631 81.5482 290.631 82.9234C292.132 82.9234 293.632 82.9234 295.179 82.9234C295.179 83.3239 295.179 83.7243 295.179 84.1369C293.178 84.1369 291.177 84.1369 289.115 84.1369C289.115 80.4884 289.115 76.8398 289.115 73.0807Z" fill="#F8F8F9"/>
<path d="M233.021 73.0807C234.931 73.0807 236.841 73.0807 238.809 73.0807C238.809 73.4811 238.809 73.8816 238.809 74.2942C237.445 74.2942 236.081 74.2942 234.675 74.2942C234.675 75.451 234.675 76.6079 234.675 77.7998C235.721 77.7998 236.767 77.7998 237.845 77.7998C237.845 78.2003 237.845 78.6007 237.845 79.0133C236.799 79.0133 235.753 79.0133 234.675 79.0133C234.675 80.7041 234.675 82.3949 234.675 84.1369C234.129 84.1369 233.584 84.1369 233.021 84.1369C233.021 80.4884 233.021 76.8398 233.021 73.0807Z" fill="#F1F0F2"/>
<path d="M196.089 72.9457C196.589 72.9457 197.09 72.9457 197.605 72.9457C197.605 76.1938 197.605 79.4419 197.605 82.7884C198.924 82.7884 200.243 82.7884 201.601 82.7884C201.601 83.1889 201.601 83.5893 201.601 84.0019C199.782 84.0019 197.963 84.0019 196.089 84.0019C196.089 80.3534 196.089 76.7048 196.089 72.9457Z" fill="#F7F6F8"/>
<path d="M217.454 78.8781C217.8 78.867 218.147 78.8558 218.504 78.8444C218.666 78.837 218.666 78.837 218.83 78.8295C219.7 78.8161 220.161 79.1416 220.813 79.6955C221.159 80.3082 221.138 80.8907 221.036 81.5747C220.734 82.1884 220.423 82.5022 219.796 82.7882C219.389 82.8356 218.991 82.8265 218.582 82.8135C218.023 82.801 218.023 82.801 217.454 82.7882C217.454 81.4979 217.454 80.2075 217.454 78.8781Z" fill="#100E21"/>
<path d="M258.791 74.2944C261.085 74.2944 261.085 74.2944 261.952 75.0529C262.318 75.6385 262.348 76.0524 262.236 76.7214C261.999 77.3562 261.652 77.7611 261.134 78.2046C260.392 78.4466 259.573 78.3394 258.791 78.3394C258.791 77.0046 258.791 75.6697 258.791 74.2944Z" fill="#0B0A1C"/>
<path d="M217.454 74.2944C219.32 74.2944 219.32 74.2944 219.934 74.8338C220.008 74.8932 220.082 74.9526 220.158 75.0139C220.477 75.3923 220.403 75.7768 220.387 76.2479C220.333 76.7056 220.204 77.0188 219.934 77.3956C219.231 77.8726 218.262 77.6799 217.454 77.6652C217.454 76.5529 217.454 75.4405 217.454 74.2944Z" fill="#0E0C1E"/>
<path d="M313.088 81.9197C313.583 82.0268 313.911 82.1904 314.055 82.6539C314.195 83.108 314.116 83.525 313.77 83.8589C313.411 84.2064 312.841 84.2211 312.401 84.0022C311.911 83.7585 311.771 83.4511 311.789 82.9151C311.818 82.0916 312.225 81.8729 313.088 81.9197Z" fill="#F6F4F8"/>
<path d="M102.797 29.7993C103.073 30.2038 103.073 30.2038 103.028 30.4725C102.992 30.5721 102.956 30.6716 102.919 30.7742C102.88 30.8824 102.842 30.9906 102.803 31.1021C102.74 31.2706 102.74 31.2706 102.676 31.4426C102.636 31.5565 102.595 31.6704 102.553 31.7878C102.452 32.0694 102.35 32.3503 102.246 32.6308C102.155 32.6308 102.064 32.6308 101.97 32.6308C102.169 31.6574 102.463 30.7363 102.797 29.7993Z" fill="#1C1B25"/>
<path d="M246.673 74.294C246.963 74.2831 247.253 74.2752 247.543 74.2687C247.705 74.264 247.866 74.2593 248.032 74.2545C248.465 74.294 248.465 74.294 248.878 74.6983C248.105 74.6983 247.332 74.6983 246.536 74.6983C246.581 74.5649 246.627 74.4314 246.673 74.294Z" fill="#181724"/>
<path d="M246.938 19.2827C247.029 19.2827 247.12 19.2827 247.214 19.2827C247.231 20.15 247.19 20.984 247.076 21.8445C247.031 21.8445 246.985 21.8445 246.938 21.8445C246.893 21.3551 246.847 20.8656 246.801 20.3614C246.891 20.3614 246.982 20.3614 247.076 20.3614C247.031 20.0054 246.985 19.6495 246.938 19.2827Z" fill="#2B2933"/>
<path d="M95.0799 52.3157C95.1709 52.3602 95.2618 52.4047 95.3555 52.4505C95.2646 52.8955 95.1736 53.3404 95.0799 53.7988C94.9435 53.8433 94.8071 53.8878 94.6665 53.9337C94.7093 53.7398 94.7524 53.546 94.7957 53.3522C94.8197 53.2443 94.8437 53.1363 94.8684 53.0251C94.9421 52.7202 94.9421 52.7202 95.0799 52.3157Z" fill="#181822"/>
<path d="M184.794 52.1816C185.135 52.3151 185.135 52.3151 185.483 52.4513C185.483 52.5403 185.483 52.6293 185.483 52.721C185.574 52.7655 185.665 52.81 185.759 52.8558C185.713 53.0783 185.668 53.3007 185.621 53.53C185.243 53.0985 184.983 52.7203 184.794 52.1816Z" fill="#1B1925"/>
<path d="M97.1607 46.9224C97.2985 47.192 97.2985 47.192 97.2361 47.4448C97.1998 47.5394 97.1636 47.6339 97.1262 47.7314C97.074 47.8732 97.074 47.8732 97.0207 48.0179C96.8851 48.2707 96.8851 48.2707 96.4717 48.5403C96.5335 48.2956 96.597 48.0513 96.6612 47.8072C96.7139 47.6031 96.7139 47.6031 96.7677 47.3948C96.8851 47.0572 96.8851 47.0572 97.1607 46.9224Z" fill="#15141F"/>
<path d="M185.898 53.3959C185.989 53.5739 186.08 53.7518 186.174 53.9352C186.264 53.9352 186.355 53.9352 186.449 53.9352C186.404 54.1577 186.358 54.3801 186.311 54.6094C185.936 54.2921 185.786 53.9858 185.622 53.5307C185.713 53.4862 185.804 53.4417 185.898 53.3959Z" fill="#1A1925"/>
<path d="M93.7103 57.5756C93.8964 58.1217 93.7959 58.4913 93.7103 59.0587C93.6193 59.0587 93.5284 59.0587 93.4347 59.0587C93.4272 58.8621 93.4219 58.6655 93.4175 58.4688C93.4127 58.3046 93.4127 58.3046 93.4078 58.137C93.4347 57.8452 93.4347 57.8452 93.7103 57.5756Z" fill="#2E2F35"/>
<path d="M183.822 50.2931C183.913 50.2931 184.004 50.2931 184.098 50.2931C184.234 50.649 184.371 51.005 184.511 51.3717C184.375 51.4385 184.375 51.4385 184.236 51.5066C184.054 51.1506 183.872 50.7947 183.685 50.4279C183.73 50.3834 183.776 50.3389 183.822 50.2931Z" fill="#1A1A24"/>
<path d="M253.425 21.0352C253.562 21.0352 253.698 21.0352 253.839 21.0352C254.252 21.8104 254.252 21.8104 254.252 22.1138C254.116 22.1138 253.979 22.1138 253.839 22.1138C253.702 21.7579 253.566 21.4019 253.425 21.0352Z" fill="#24232E"/>
<path d="M94.528 53.9341C94.619 53.9786 94.71 54.0231 94.8037 54.0689C94.7582 54.3359 94.7127 54.6028 94.6659 54.8779C94.5294 54.9224 94.393 54.9669 94.2524 55.0127C94.3434 54.6568 94.4343 54.3008 94.528 53.9341Z" fill="#21202A"/>
<path d="M126.63 41.3949C126.721 41.3949 126.812 41.3949 126.906 41.3949C126.906 41.4839 126.906 41.5729 126.906 41.6646C127.042 41.7091 127.179 41.7536 127.319 41.7994C127.228 42.0219 127.137 42.2443 127.044 42.4736C126.776 42.0802 126.706 41.8499 126.63 41.3949Z" fill="#161621"/>
</svg>
