<svg width="312" height="140" viewBox="0 0 312 140" fill="none" xmlns="http://www.w3.org/2000/svg">
<g clip-path="url(#clip0_242_405)">
<path d="M109.868 41.232L119.025 41.2299V9.1644L141.911 9.16585L137.334 0.00340026H119.025V0.00195312H109.869V0.00340026H86.9833L86.9811 9.16378L109.869 9.1644L109.868 41.232Z" fill="#FEFEFE"/>
<path d="M160.213 9.16606L160.211 27.4895L155.638 32.0668L137.327 32.0689V13.7432L128.172 13.7475L128.17 41.2299L137.327 41.232V41.2305L160.213 41.232L160.213 41.2313L169.368 32.0703L169.37 0.00195312L141.904 0.00402047L146.481 9.16606H160.213Z" fill="#FEFEFE"/>
<path d="M183.102 32.0705V32.0682H205.988L205.987 41.2299L215.144 41.2321V32.0682V22.9064V0.00504628L205.99 0.000498132L205.989 22.9064L183.102 22.9079L183.101 9.16605H187.679V-0.00012207L183.1 0.00277221V0.00194527L173.948 0.00421934L173.946 22.9087V23.1797L173.946 32.0682L183.102 32.0705Z" fill="#FEFEFE"/>
<path d="M233.439 22.9064L228.861 22.9079V0.00340026H219.707L219.706 22.9085H219.705L219.706 24.4726L219.705 41.2328L228.861 41.2307V32.0691L251.749 32.0712L251.744 41.2328L260.901 41.2307V32.0691L260.901 22.905L244.289 22.9064L262.597 0.0042272L251.749 0.00195312L233.439 22.9064Z" fill="#FEFEFE"/>
<path d="M306.697 13.7462V0.00421934V0.00194527H301.847L297.542 -0.00012207V0.00277221L274.653 0.00421934V0.00856076L265.501 9.16378L274.657 9.16605H297.541V13.7454L265.498 13.744L265.498 15.2713V41.2321L274.655 41.2299V22.9079H297.54L297.54 41.2299L306.697 41.2321V22.9079H311.273V13.7462H306.697Z" fill="#FEFEFE"/>
<path d="M91.5494 50.3936H68.6634H68.662L59.5084 59.5537H59.5078V59.5552L59.5055 77.8788H68.6649V64.1347L73.2407 59.5552H91.5494V77.8803L86.9713 82.4584L59.5078 82.4599L59.5055 91.6238L91.5494 91.6215V91.6207L100.704 82.459V59.5552V50.3936H91.5494Z" fill="#FEFEFE"/>
<path d="M205.972 50.3925V68.7153L183.086 68.7167L183.085 64.1353L173.933 64.1374L173.932 68.7167H173.931V71.2147L173.93 73.2963H173.931V77.8786H205.972V82.4581L173.929 82.4596L173.933 91.6212H209.024L215.129 91.6227V91.6212V90.9394L215.131 50.3925H205.972Z" fill="#FEFEFE"/>
<path d="M183.095 59.5552L183.098 50.3956H164.788L155.631 50.3936V50.3956H146.475L141.899 59.5552H155.631V91.6207L164.786 91.625L164.787 59.5552H183.095Z" fill="#FEFEFE"/>
<path d="M256.325 50.3925H219.707L219.705 59.5564H219.707L219.706 91.6198L228.862 91.6241V91.6212H233.441L233.439 82.4573L228.862 82.4581L228.864 59.5557L251.749 59.5543V91.6227H260.904L260.905 50.3925L256.325 50.3933V50.3925Z" fill="#FEFEFE"/>
<path d="M274.655 64.134L279.231 59.5538H297.541V64.134H274.655ZM311.273 64.134H306.697V51.9172V50.3899L274.655 50.3944L265.5 59.5563V64.1342L265.498 73.2983H265.5L265.498 91.6203L274.655 91.6226V73.2983L297.54 73.2969L297.54 91.6226L306.697 91.6203V73.296H311.273V64.1342V64.134Z" fill="#FEFEFE"/>
<path d="M146.479 77.8774L137.322 77.8788V82.4592H114.438L114.44 64.1335L119.014 59.5568H137.324L141.901 50.395L114.436 50.3936L105.282 59.5546L105.284 82.4592H105.282L105.284 91.6229L146.482 91.6209L146.479 84.4507V77.8774Z" fill="#FEFEFE"/>
<path d="M18.3139 82.4592V64.1364L22.8912 59.5556L41.2006 59.5541L41.1991 82.4578L18.3139 82.4592ZM50.3556 59.5541V50.3923H44.7836L41.2008 50.3909V50.3923H18.3141V50.3929L9.15933 59.5541L9.15706 59.557L9.15561 82.4601H8.67719L0.00227233 82.4578L0 96.2027L9.15706 96.2004L9.15768 91.6205H18.3141H41.1987L50.3558 91.6225V91.6205H54.9308L54.9331 82.4564L50.3558 82.4572V59.5541H50.3556Z" fill="#FEFEFE"/>
<path d="M84.6753 71.0072C84.6753 68.4769 82.6238 66.4241 80.1001 66.4241C77.5718 66.4241 75.5205 68.4771 75.5205 71.0072C75.5184 73.5353 77.5697 75.588 80.0978 75.588C82.6263 75.588 84.6774 73.5351 84.6753 71.0072Z" fill="#FEFEFE"/>
<path d="M153.341 20.6167C153.341 18.0862 151.29 16.0336 148.762 16.0336C146.236 16.0356 144.182 18.0864 144.185 20.6144C144.185 23.1446 146.236 25.1975 148.764 25.1975C151.29 25.1995 153.341 23.1467 153.341 20.6167Z" fill="#FEFEFE"/>
<path fill-rule="evenodd" clip-rule="evenodd" d="M12.2224 7.10839V27.3423L78.979 27.3437L78.9819 0.127189L19.2001 0.125122L12.2224 7.10839Z" fill="#E31E25"/>
<path d="M44.3642 2.59802H19.6384L14.6901 7.5493H27.0573L27.0558 24.8709H32.0041V7.5493H44.3642V2.59802Z" fill="#FEFEFE"/>
<path d="M65.0694 14.9733L74.9587 2.60236L69.0999 2.59802L59.2062 14.974H56.7363V14.9688V2.60009L51.7907 2.59802L51.7878 17.4465H51.7924L51.7907 24.8703H56.7341L56.7355 19.9196L69.0984 19.9211L69.0961 24.8703H74.0444L74.0424 19.9211L74.0444 14.9719L65.0694 14.9733Z" fill="#FEFEFE"/>
<path d="M39.4265 10.0201L34.4825 10.0245V14.9714H34.4811L34.4817 16.0218L34.4811 19.9215H39.4242V19.9206L49.3159 19.9192V14.9714H39.4257L39.4265 10.0201Z" fill="#FEFEFE"/>
<path d="M18.3975 24.8699C16.3482 24.8699 14.6901 23.21 14.6901 21.1594C14.6878 19.1066 16.3485 17.4446 18.3997 17.4469C20.449 17.4469 22.1073 19.1068 22.1073 21.1574C22.1073 23.2082 20.4488 24.8676 18.3975 24.8699Z" fill="#FEFEFE"/>
<path fill-rule="evenodd" clip-rule="evenodd" d="M131.903 139.953H133.828C136.606 139.953 138.074 138.484 138.074 135.704V129.527H135.358V135.704C135.358 136.762 134.885 137.235 133.828 137.235H131.903C130.845 137.235 130.374 136.762 130.374 135.704V114.51C130.374 113.451 130.845 112.979 131.903 112.979H133.828C134.885 112.979 135.358 113.451 135.358 114.51V120.686H138.074V114.51C138.074 111.73 136.606 110.261 133.828 110.261H131.903C129.126 110.261 127.656 111.73 127.656 114.51V135.704C127.656 138.484 129.126 139.953 131.903 139.953Z" fill="url(#paint0_linear_242_405)"/>
<path fill-rule="evenodd" clip-rule="evenodd" d="M146.942 139.953H149.66V112.979H153.51V110.261H143.091V112.979H146.942V139.953Z" fill="url(#paint1_linear_242_405)"/>
<path fill-rule="evenodd" clip-rule="evenodd" d="M158.56 139.953H161.277V126.466H164.732C167.51 126.466 168.978 124.997 168.978 122.217V114.51C168.978 111.73 167.51 110.261 164.732 110.261H158.56V139.953ZM161.277 112.979H164.732C165.79 112.979 166.261 113.451 166.261 114.51V122.236C166.261 123.295 165.804 123.747 164.732 123.747H161.277V112.979V112.979Z" fill="url(#paint2_linear_242_405)"/>
<path fill-rule="evenodd" clip-rule="evenodd" d="M173.995 139.953H176.621L181.696 120.854V139.953H184.414V110.261H181.769L176.713 129.283V110.261H173.995V139.953Z" fill="url(#paint3_linear_242_405)"/>
<path fill-rule="evenodd" clip-rule="evenodd" d="M189.447 139.953H192.164V112.979H197.148V139.953H199.865V110.261H189.447V139.953Z" fill="url(#paint4_linear_242_405)"/>
<path fill-rule="evenodd" clip-rule="evenodd" d="M208.749 139.953H211.467V112.979H215.316V110.261H204.899V112.979H208.749V139.953Z" fill="url(#paint5_linear_242_405)"/>
<path fill-rule="evenodd" clip-rule="evenodd" d="M220.334 139.953H222.96L228.036 120.854V139.953H230.753V110.261H228.108L223.052 129.283V110.261H220.334V139.953Z" fill="url(#paint6_linear_242_405)"/>
<path fill-rule="evenodd" clip-rule="evenodd" d="M240.032 139.953H241.958C244.736 139.953 246.204 138.484 246.204 135.704V128.96C246.204 127.182 245.677 125.89 244.635 125.106C245.677 124.324 246.204 123.032 246.204 121.253V114.51C246.204 111.73 244.736 110.261 241.958 110.261H240.032C237.255 110.261 235.786 111.73 235.786 114.51V120.686H238.503V114.51C238.503 113.451 238.975 112.979 240.032 112.979H241.958C243.015 112.979 243.487 113.451 243.487 114.51V120.309C243.487 123.39 242.065 123.747 240.996 123.747H238.674V126.466H240.996C242.065 126.466 243.487 126.825 243.487 129.924V135.704C243.487 136.762 243.015 137.235 241.958 137.235H240.032C238.975 137.235 238.503 136.762 238.503 135.704V129.527H235.786V135.704C235.786 138.484 237.255 139.953 240.032 139.953Z" fill="url(#paint7_linear_242_405)"/>
<path fill-rule="evenodd" clip-rule="evenodd" d="M251.238 139.953H261.656V137.233H251.238V139.953Z" fill="url(#paint8_linear_242_405)"/>
<path fill-rule="evenodd" clip-rule="evenodd" d="M266.69 139.953H272.862C275.64 139.953 277.107 138.484 277.107 135.704V124.144C277.107 121.364 275.64 119.894 272.862 119.894H269.407V112.979H276.165V110.261H266.69V139.953H266.69ZM269.407 122.613H272.862C273.934 122.613 274.391 123.065 274.391 124.124V135.704C274.391 136.762 273.919 137.235 272.862 137.235H269.407V122.612V122.613Z" fill="url(#paint9_linear_242_405)"/>
<path fill-rule="evenodd" clip-rule="evenodd" d="M281.115 139.953H283.838L284.358 136.1H288.403L288.922 139.953H291.646L287.69 110.261H285.071L281.115 139.953H281.115ZM286.38 120.878L288.046 133.381H284.714L286.38 120.878Z" fill="url(#paint10_linear_242_405)"/>
<path fill-rule="evenodd" clip-rule="evenodd" d="M295.656 139.953H298.373V126.466H301.828C304.606 126.466 306.073 124.997 306.073 122.217V114.51C306.073 111.73 304.606 110.261 301.828 110.261H295.656V139.953ZM298.373 112.979H301.828C302.885 112.979 303.357 113.451 303.357 114.51V122.236C303.357 123.295 302.899 123.747 301.828 123.747H298.373V112.979V112.979Z" fill="url(#paint11_linear_242_405)"/>
</g>
<defs>
<linearGradient id="paint0_linear_242_405" x1="-27.9415" y1="35.2465" x2="231.276" y2="181.13" gradientUnits="userSpaceOnUse">
<stop stop-color="#603085"/>
<stop offset="1" stop-color="#E31E25"/>
</linearGradient>
<linearGradient id="paint1_linear_242_405" x1="-12.5093" y1="35.2465" x2="246.71" y2="181.134" gradientUnits="userSpaceOnUse">
<stop stop-color="#603085"/>
<stop offset="1" stop-color="#E31E25"/>
</linearGradient>
<linearGradient id="paint2_linear_242_405" x1="2.96231" y1="35.2465" x2="262.179" y2="181.13" gradientUnits="userSpaceOnUse">
<stop stop-color="#603085"/>
<stop offset="1" stop-color="#E31E25"/>
</linearGradient>
<linearGradient id="paint3_linear_242_405" x1="18.3915" y1="35.2465" x2="277.614" y2="181.139" gradientUnits="userSpaceOnUse">
<stop stop-color="#603085"/>
<stop offset="1" stop-color="#E31E25"/>
</linearGradient>
<linearGradient id="paint4_linear_242_405" x1="33.8463" y1="35.2465" x2="293.066" y2="181.134" gradientUnits="userSpaceOnUse">
<stop stop-color="#603085"/>
<stop offset="1" stop-color="#E31E25"/>
</linearGradient>
<linearGradient id="paint5_linear_242_405" x1="49.3136" y1="35.2465" x2="308.52" y2="181.113" gradientUnits="userSpaceOnUse">
<stop stop-color="#603085"/>
<stop offset="1" stop-color="#E31E25"/>
</linearGradient>
<linearGradient id="paint6_linear_242_405" x1="64.7242" y1="35.2465" x2="323.952" y2="181.148" gradientUnits="userSpaceOnUse">
<stop stop-color="#603085"/>
<stop offset="1" stop-color="#E31E25"/>
</linearGradient>
<linearGradient id="paint7_linear_242_405" x1="80.1978" y1="35.2465" x2="339.407" y2="181.117" gradientUnits="userSpaceOnUse">
<stop stop-color="#603085"/>
<stop offset="1" stop-color="#E31E25"/>
</linearGradient>
<linearGradient id="paint8_linear_242_405" x1="95.6407" y1="130.363" x2="104.446" y2="184.474" gradientUnits="userSpaceOnUse">
<stop stop-color="#603085"/>
<stop offset="1" stop-color="#E31E25"/>
</linearGradient>
<linearGradient id="paint9_linear_242_405" x1="111.102" y1="35.2465" x2="370.311" y2="181.117" gradientUnits="userSpaceOnUse">
<stop stop-color="#603085"/>
<stop offset="1" stop-color="#E31E25"/>
</linearGradient>
<linearGradient id="paint10_linear_242_405" x1="123.833" y1="35.2465" x2="384.491" y2="183.53" gradientUnits="userSpaceOnUse">
<stop stop-color="#603085"/>
<stop offset="1" stop-color="#E31E25"/>
</linearGradient>
<linearGradient id="paint11_linear_242_405" x1="140.071" y1="35.2465" x2="399.277" y2="181.113" gradientUnits="userSpaceOnUse">
<stop stop-color="#603085"/>
<stop offset="1" stop-color="#E31E25"/>
</linearGradient>
<clipPath id="clip0_242_405">
<rect width="311.561" height="139.939" fill="white"/>
</clipPath>
</defs>
</svg>
