<svg width="69" height="69" viewBox="0 0 69 69" fill="none" xmlns="http://www.w3.org/2000/svg">
<path fill-rule="evenodd" clip-rule="evenodd" d="M6.74017 30.6924C23.7081 23.2997 35.0227 18.426 40.6839 16.0713C56.8481 9.34799 60.2068 8.18009 62.396 8.14152C62.8775 8.13304 63.9541 8.25237 64.6515 8.81824C65.2403 9.29605 65.4023 9.9415 65.4798 10.3945C65.5574 10.8475 65.6539 11.8795 65.5772 12.6859C64.7012 21.8895 60.911 44.2243 58.9828 54.5325C58.1669 58.8943 56.5604 60.3568 55.0051 60.4999C51.625 60.811 49.0583 58.2661 45.7846 56.1201C40.6618 52.762 37.7677 50.6716 32.7952 47.3948C27.0485 43.6078 30.7739 41.5264 34.0488 38.1248C34.9059 37.2346 49.7986 23.6885 50.0868 22.4597C50.1229 22.306 50.1563 21.7331 49.816 21.4306C49.4757 21.1281 48.9734 21.2315 48.6109 21.3138C48.0971 21.4304 39.9134 26.8396 24.0597 37.5413C21.7368 39.1364 19.6328 39.9136 17.7477 39.8729C15.6694 39.828 11.6718 38.6978 8.69995 37.7318C5.05486 36.5469 2.15782 35.9205 2.41009 33.9082C2.54149 32.86 3.98484 31.7881 6.74017 30.6924Z" fill="white"/>
</svg>
